
<svg width="595" height="1889" viewbox="0 0 595 1889" fill="none" xmlns="http://www.w3.org/2000/svg"><path id="AdaLabel" d="M446.079 1722.1H445.156L447.827 1714.82H448.736L451.406 1722.1H450.483L448.309 1715.98H448.253L446.079 1722.1ZM446.42 1719.26H450.142V1720.04H446.42V1719.26ZM454.783 1722.1H452.539V1714.82H454.883C455.588 1714.82 456.192 1714.97 456.694 1715.26C457.196 1715.55 457.58 1715.97 457.848 1716.51C458.115 1717.05 458.249 1717.69 458.249 1718.45C458.249 1719.2 458.114 1719.86 457.844 1720.4C457.574 1720.95 457.181 1721.37 456.665 1721.66C456.149 1721.95 455.522 1722.1 454.783 1722.1ZM453.42 1721.32H454.726C455.328 1721.32 455.826 1721.2 456.221 1720.97C456.617 1720.74 456.912 1720.41 457.106 1719.98C457.3 1719.55 457.397 1719.04 457.397 1718.45C457.397 1717.86 457.301 1717.35 457.109 1716.93C456.917 1716.5 456.631 1716.18 456.25 1715.95C455.869 1715.72 455.394 1715.61 454.826 1715.61H453.42V1721.32ZM459.683 1722.1H458.76L461.43 1714.82H462.339L465.01 1722.1H464.086L461.913 1715.98H461.856L459.683 1722.1ZM460.024 1719.26H463.745V1720.04H460.024V1719.26Z" /></svg>