
<svg width="595" height="1889" viewbox="0 0 595 1889" fill="none" xmlns="http://www.w3.org/2000/svg"><path id="BikiniBottomLabel" d="M130.099 237.316L127.573 222.991L132.581 222.108C133.579 221.932 134.432 221.96 135.141 222.19C135.849 222.416 136.413 222.791 136.832 223.313C137.25 223.831 137.521 224.439 137.644 225.139C137.753 225.754 137.733 226.282 137.585 226.721C137.441 227.16 137.212 227.527 136.899 227.823C136.59 228.118 136.241 228.357 135.85 228.542L135.875 228.681C136.318 228.632 136.786 228.708 137.278 228.91C137.77 229.112 138.212 229.447 138.602 229.917C138.993 230.387 139.255 230.999 139.388 231.754C139.515 232.473 139.465 233.147 139.24 233.778C139.015 234.409 138.58 234.955 137.935 235.415C137.29 235.875 136.403 236.204 135.275 236.403L130.099 237.316ZM131.562 235.471L135.003 234.864C136.136 234.664 136.902 234.303 137.301 233.781C137.703 233.254 137.848 232.675 137.737 232.046C137.652 231.561 137.449 231.135 137.13 230.768C136.809 230.397 136.399 230.128 135.898 229.961C135.397 229.79 134.834 229.759 134.209 229.869L130.684 230.491L131.562 235.471ZM130.418 228.98L133.635 228.413C134.157 228.321 134.61 228.135 134.994 227.856C135.382 227.576 135.667 227.228 135.848 226.811C136.034 226.394 136.083 225.933 135.994 225.43C135.883 224.8 135.569 224.305 135.054 223.944C134.537 223.578 133.804 223.479 132.852 223.647L129.579 224.224L130.418 228.98ZM147.657 219.45L150.183 233.774L148.449 234.08L145.923 219.756L147.657 219.45ZM159.201 232.184L156.675 217.86L158.41 217.554L159.663 224.66L159.83 224.631L165.012 216.39L167.278 215.99L162.403 223.513L169.804 230.315L167.706 230.685L161.552 224.904L160.116 227.234L160.935 231.878L159.201 232.184ZM176.798 214.312L179.324 228.636L177.589 228.942L175.063 214.617L176.798 214.312ZM197.174 210.719L199.7 225.043L198.021 225.339L188.232 215.469L188.092 215.493L190.076 226.74L188.341 227.046L185.815 212.722L187.494 212.426L197.316 222.319L197.456 222.294L195.467 211.02L197.174 210.719ZM207.919 208.824L210.445 223.148L208.71 223.454L206.185 209.13L207.919 208.824ZM230.542 219.605L228.016 205.28L233.024 204.397C234.022 204.221 234.875 204.249 235.584 204.48C236.292 204.706 236.856 205.08 237.275 205.602C237.693 206.12 237.964 206.728 238.087 207.428C238.196 208.043 238.176 208.571 238.027 209.011C237.883 209.449 237.655 209.817 237.342 210.112C237.033 210.407 236.683 210.647 236.293 210.831L236.318 210.971C236.761 210.921 237.229 210.998 237.721 211.199C238.213 211.401 238.655 211.737 239.045 212.206C239.436 212.676 239.697 213.288 239.831 214.044C239.957 214.762 239.908 215.436 239.683 216.068C239.457 216.699 239.022 217.244 238.377 217.704C237.732 218.164 236.846 218.493 235.717 218.692L230.542 219.605ZM232.005 217.76L235.446 217.153C236.579 216.954 237.345 216.593 237.743 216.071C238.145 215.543 238.291 214.964 238.18 214.335C238.094 213.85 237.892 213.424 237.572 213.057C237.252 212.686 236.842 212.417 236.341 212.25C235.84 212.079 235.277 212.049 234.652 212.159L231.127 212.78L232.005 217.76ZM230.86 211.269L234.078 210.702C234.6 210.61 235.053 210.424 235.436 210.145C235.824 209.865 236.109 209.517 236.291 209.1C236.477 208.683 236.525 208.222 236.436 207.719C236.325 207.089 236.012 206.594 235.497 206.233C234.98 205.867 234.246 205.768 233.295 205.936L230.022 206.513L230.86 211.269ZM259.715 207.076C259.981 208.587 259.939 209.94 259.587 211.137C259.235 212.334 258.637 213.314 257.791 214.079C256.945 214.844 255.911 215.334 254.689 215.549C253.468 215.764 252.328 215.658 251.272 215.228C250.215 214.799 249.317 214.083 248.578 213.078C247.838 212.074 247.335 210.817 247.069 209.306C246.802 207.795 246.845 206.441 247.197 205.245C247.548 204.048 248.147 203.067 248.993 202.303C249.839 201.538 250.873 201.048 252.094 200.833C253.316 200.617 254.455 200.724 255.512 201.153C256.568 201.582 257.466 202.299 258.206 203.303C258.945 204.308 259.448 205.565 259.715 207.076ZM258.036 207.372C257.817 206.132 257.425 205.121 256.86 204.341C256.299 203.56 255.628 203.013 254.846 202.699C254.07 202.384 253.248 202.303 252.38 202.455C251.513 202.608 250.766 202.966 250.139 203.529C249.517 204.09 249.074 204.834 248.809 205.761C248.549 206.686 248.529 207.769 248.747 209.01C248.966 210.25 249.356 211.261 249.917 212.042C250.482 212.822 251.153 213.369 251.93 213.684C252.711 213.999 253.536 214.079 254.403 213.926C255.27 213.773 256.015 213.416 256.637 212.854C257.264 212.292 257.707 211.548 257.967 210.622C258.232 209.696 258.255 208.612 258.036 207.372ZM266.396 200.1L266.125 198.561L276.868 196.666L277.139 198.205L272.635 198.999L274.889 211.785L273.155 212.091L270.9 199.305L266.396 200.1ZM284.573 196.895L284.301 195.356L295.045 193.461L295.316 195L290.812 195.794L293.066 208.58L291.331 208.886L289.077 196.1L284.573 196.895ZM316.61 197.044C316.877 198.554 316.834 199.908 316.483 201.105C316.131 202.301 315.532 203.282 314.686 204.047C313.84 204.811 312.807 205.301 311.585 205.517C310.363 205.732 309.224 205.625 308.168 205.196C307.111 204.767 306.213 204.05 305.474 203.046C304.734 202.042 304.231 200.784 303.965 199.274C303.698 197.763 303.741 196.409 304.092 195.212C304.444 194.016 305.043 193.035 305.889 192.271C306.735 191.506 307.768 191.016 308.99 190.801C310.212 190.585 311.351 190.692 312.407 191.121C313.464 191.55 314.362 192.267 315.101 193.271C315.841 194.275 316.344 195.533 316.61 197.044ZM314.932 197.34C314.713 196.099 314.321 195.089 313.756 194.309C313.195 193.528 312.524 192.98 311.742 192.666C310.966 192.351 310.143 192.27 309.276 192.423C308.409 192.576 307.662 192.934 307.035 193.496C306.413 194.058 305.97 194.802 305.705 195.729C305.445 196.654 305.425 197.737 305.643 198.978C305.862 200.218 306.252 201.228 306.812 202.009C307.378 202.79 308.049 203.337 308.826 203.652C309.607 203.966 310.431 204.047 311.299 203.894C312.166 203.741 312.911 203.384 313.533 202.822C314.16 202.26 314.603 201.516 314.863 200.59C315.128 199.663 315.15 198.58 314.932 197.34ZM323.804 188.39L325.874 188.025L332.839 199.057L333.007 199.028L335.778 186.279L337.848 185.914L340.374 200.238L338.752 200.525L336.832 189.641L336.693 189.666L334.135 201.339L332.568 201.615L326.173 191.521L326.033 191.546L327.952 202.429L326.329 202.715L323.804 188.39Z" /></svg>