
<svg width="595" height="1889" viewbox="0 0 595 1889" fill="none" xmlns="http://www.w3.org/2000/svg"><path id="CinemaLabel" d="M136.238 171.32H134.477C134.373 170.814 134.191 170.369 133.93 169.985C133.674 169.602 133.362 169.28 132.993 169.019C132.628 168.754 132.223 168.555 131.778 168.423C131.333 168.29 130.869 168.224 130.386 168.224C129.505 168.224 128.708 168.446 127.993 168.891C127.282 169.336 126.717 169.992 126.295 170.859C125.879 171.725 125.67 172.788 125.67 174.048C125.67 175.307 125.879 176.37 126.295 177.237C126.717 178.103 127.282 178.759 127.993 179.204C128.708 179.649 129.505 179.871 130.386 179.871C130.869 179.871 131.333 179.805 131.778 179.673C132.223 179.54 132.628 179.344 132.993 179.083C133.362 178.818 133.674 178.494 133.93 178.11C134.191 177.722 134.373 177.277 134.477 176.775H136.238C136.106 177.518 135.864 178.183 135.514 178.771C135.164 179.358 134.728 179.857 134.207 180.269C133.686 180.676 133.102 180.987 132.453 181.2C131.809 181.413 131.12 181.519 130.386 181.519C129.146 181.519 128.042 181.216 127.076 180.61C126.111 180.004 125.351 179.142 124.797 178.025C124.243 176.907 123.966 175.582 123.966 174.048C123.966 172.513 124.243 171.188 124.797 170.07C125.351 168.953 126.111 168.091 127.076 167.485C128.042 166.879 129.146 166.576 130.386 166.576C131.12 166.576 131.809 166.683 132.453 166.896C133.102 167.109 133.686 167.421 134.207 167.833C134.728 168.24 135.164 168.737 135.514 169.325C135.864 169.907 136.106 170.572 136.238 171.32ZM146.471 166.775V181.32H144.71V166.775H146.471ZM167.162 166.775V181.32H165.457L157.531 169.9H157.389V181.32H155.628V166.775H157.332L165.287 178.224H165.429V166.775H167.162ZM176.311 181.32V166.775H185.09V168.337H178.073V173.252H184.635V174.815H178.073V179.758H185.203V181.32H176.311ZM193.889 166.775H195.992L200.935 178.849H201.105L206.048 166.775H208.151V181.32H206.503V170.269H206.361L201.815 181.32H200.225L195.679 170.269H195.537V181.32H193.889V166.775ZM217.904 181.32H216.057L221.398 166.775H223.216L228.557 181.32H226.711L222.364 169.076H222.25L217.904 181.32ZM218.586 175.638H226.029V177.201H218.586V175.638Z" /></svg>