
<svg width="595" height="1889" viewbox="0 0 595 1889" fill="none" xmlns="http://www.w3.org/2000/svg"><path id="ClapLabel" d="M97.699 238.408L96.8345 238.576C96.7351 238.337 96.6031 238.136 96.4387 237.972C96.2767 237.809 96.0926 237.68 95.8864 237.588C95.6822 237.492 95.4645 237.433 95.2334 237.411C95.0023 237.388 94.7683 237.4 94.5312 237.446C94.099 237.53 93.7286 237.715 93.4202 238.002C93.1141 238.288 92.8989 238.664 92.7747 239.13C92.6529 239.595 92.6521 240.136 92.7722 240.754C92.8924 241.373 93.096 241.874 93.3832 242.26C93.6727 242.645 94.013 242.913 94.404 243.064C94.7974 243.214 95.2102 243.247 95.6425 243.163C95.8795 243.117 96.1009 243.04 96.3067 242.933C96.5125 242.825 96.6925 242.69 96.8466 242.527C97.0026 242.362 97.125 242.173 97.2139 241.96C97.3047 241.745 97.3517 241.509 97.3549 241.253L98.2194 241.085C98.2253 241.462 98.1702 241.812 98.0543 242.133C97.9383 242.455 97.7722 242.742 97.5558 242.994C97.3391 243.243 97.0816 243.451 96.7836 243.618C96.4879 243.784 96.1599 243.902 95.7997 243.972C95.1908 244.09 94.6204 244.047 94.0885 243.841C93.5566 243.636 93.1014 243.285 92.7229 242.79C92.3444 242.294 92.082 241.67 91.9356 240.917C91.7893 240.164 91.7987 239.487 91.964 238.886C92.1293 238.284 92.4201 237.789 92.8363 237.399C93.2526 237.01 93.7652 236.756 94.374 236.637C94.7342 236.567 95.0825 236.554 95.4189 236.597C95.7576 236.64 96.0744 236.737 96.3694 236.89C96.6639 237.04 96.9251 237.242 97.1531 237.497C97.3806 237.75 97.5626 238.053 97.699 238.408ZM100.05 243.044L98.6624 235.905L99.5269 235.737L100.765 242.109L104.084 241.464L104.233 242.231L100.05 243.044ZM106.315 241.826L105.409 242.003L106.642 234.354L107.535 234.18L111.544 240.81L110.638 240.986L107.336 235.391L107.28 235.402L106.315 241.826ZM106.108 238.973L109.761 238.263L109.91 239.029L106.257 239.74L106.108 238.973ZM112.656 240.594L111.268 233.455L113.68 232.986C114.241 232.877 114.718 232.889 115.113 233.022C115.51 233.152 115.827 233.372 116.065 233.68C116.304 233.988 116.464 234.352 116.546 234.773C116.627 235.194 116.616 235.593 116.511 235.97C116.408 236.347 116.199 236.672 115.883 236.946C115.567 237.217 115.131 237.407 114.575 237.515L112.846 237.851L112.697 237.084L114.398 236.753C114.782 236.679 115.077 236.553 115.283 236.375C115.49 236.197 115.624 235.986 115.685 235.74C115.747 235.491 115.751 235.224 115.695 234.938C115.64 234.653 115.536 234.407 115.386 234.203C115.237 233.998 115.033 233.854 114.774 233.772C114.514 233.687 114.19 233.683 113.802 233.758L112.282 234.054L113.52 240.426L112.656 240.594Z" /></svg>