
<svg width="595" height="1889" viewbox="0 0 595 1889" fill="none" xmlns="http://www.w3.org/2000/svg"><path id="CognitoLabel" d="M294.883 663.606V664.487C294.629 664.539 294.407 664.63 294.215 664.76C294.023 664.888 293.862 665.044 293.732 665.229C293.6 665.411 293.5 665.613 293.434 665.836C293.368 666.059 293.335 666.291 293.335 666.532C293.335 666.972 293.446 667.371 293.668 667.729C293.891 668.084 294.219 668.367 294.652 668.578C295.085 668.786 295.617 668.89 296.246 668.89C296.876 668.89 297.408 668.786 297.841 668.578C298.274 668.367 298.602 668.084 298.825 667.729C299.047 667.371 299.158 666.972 299.158 666.532C299.158 666.291 299.125 666.059 299.059 665.836C298.993 665.613 298.894 665.411 298.764 665.229C298.632 665.044 298.469 664.888 298.278 664.76C298.084 664.63 297.861 664.539 297.61 664.487V663.606C297.982 663.672 298.314 663.793 298.608 663.968C298.902 664.143 299.151 664.361 299.357 664.622C299.561 664.882 299.716 665.174 299.822 665.499C299.929 665.821 299.982 666.165 299.982 666.532C299.982 667.152 299.831 667.704 299.528 668.187C299.225 668.67 298.794 669.05 298.235 669.327C297.676 669.604 297.013 669.742 296.246 669.742C295.479 669.742 294.817 669.604 294.258 669.327C293.699 669.05 293.268 668.67 292.965 668.187C292.662 667.704 292.511 667.152 292.511 666.532C292.511 666.165 292.564 665.821 292.67 665.499C292.777 665.174 292.933 664.882 293.139 664.622C293.343 664.361 293.591 664.143 293.885 663.968C294.176 663.793 294.509 663.672 294.883 663.606ZM296.246 656.046C297.013 656.046 297.676 656.185 298.235 656.462C298.794 656.739 299.225 657.119 299.528 657.602C299.831 658.085 299.982 658.636 299.982 659.257C299.982 659.877 299.831 660.429 299.528 660.911C299.225 661.394 298.794 661.774 298.235 662.051C297.676 662.328 297.013 662.467 296.246 662.467C295.479 662.467 294.817 662.328 294.258 662.051C293.699 661.774 293.268 661.394 292.965 660.911C292.662 660.429 292.511 659.877 292.511 659.257C292.511 658.636 292.662 658.085 292.965 657.602C293.268 657.119 293.699 656.739 294.258 656.462C294.817 656.185 295.479 656.046 296.246 656.046ZM296.246 656.899C295.617 656.899 295.085 657.004 294.652 657.215C294.219 657.423 293.891 657.706 293.668 658.063C293.446 658.419 293.335 658.816 293.335 659.257C293.335 659.697 293.446 660.096 293.668 660.453C293.891 660.809 294.219 661.091 294.652 661.302C295.085 661.51 295.617 661.615 296.246 661.615C296.876 661.615 297.408 661.51 297.841 661.302C298.274 661.091 298.602 660.809 298.825 660.453C299.047 660.096 299.158 659.697 299.158 659.257C299.158 658.816 299.047 658.419 298.825 658.063C298.602 657.706 298.274 657.423 297.841 657.215C297.408 657.004 296.876 656.899 296.246 656.899ZM294.883 649.594C294.644 649.672 294.429 649.775 294.24 649.903C294.048 650.028 293.885 650.179 293.75 650.354C293.615 650.527 293.512 650.723 293.441 650.943C293.37 651.164 293.335 651.405 293.335 651.668C293.335 652.099 293.446 652.491 293.668 652.843C293.891 653.196 294.219 653.477 294.652 653.685C295.085 653.893 295.617 653.997 296.246 653.997C296.876 653.997 297.408 653.892 297.841 653.681C298.274 653.471 298.602 653.185 298.825 652.826C299.047 652.466 299.158 652.061 299.158 651.611C299.158 651.194 299.07 650.827 298.892 650.51C298.712 650.191 298.459 649.942 298.132 649.764C297.803 649.585 297.416 649.495 296.971 649.495L297.028 649.225V651.412H296.246V648.642H297.028C297.627 648.642 298.147 648.77 298.59 649.026C299.033 649.279 299.376 649.63 299.62 650.077C299.862 650.522 299.982 651.033 299.982 651.611C299.982 652.255 299.831 652.821 299.528 653.309C299.225 653.794 298.794 654.173 298.235 654.445C297.676 654.715 297.013 654.85 296.246 654.85C295.671 654.85 295.154 654.773 294.695 654.619C294.233 654.463 293.84 654.242 293.516 653.958C293.191 653.674 292.943 653.338 292.77 652.95C292.597 652.562 292.511 652.134 292.511 651.668C292.511 651.284 292.569 650.927 292.685 650.595C292.798 650.262 292.96 649.965 293.171 649.704C293.379 649.441 293.629 649.222 293.92 649.047C294.209 648.872 294.53 648.751 294.883 648.685V649.594ZM292.61 641.367H299.883V642.219L294.173 646.182V646.253H299.883V647.134H292.61V646.282L298.335 642.304V642.233H292.61V641.367ZM292.61 638.724H299.883V639.605H292.61V638.724ZM293.391 637.356H292.61V631.901H293.391V634.188H299.883V635.069H293.391V637.356ZM296.246 624.709C297.013 624.709 297.676 624.847 298.235 625.124C298.794 625.401 299.225 625.781 299.528 626.264C299.831 626.747 299.982 627.299 299.982 627.919C299.982 628.539 299.831 629.091 299.528 629.574C299.225 630.057 298.794 630.437 298.235 630.714C297.676 630.991 297.013 631.129 296.246 631.129C295.479 631.129 294.817 630.991 294.258 630.714C293.699 630.437 293.268 630.057 292.965 629.574C292.662 629.091 292.511 628.539 292.511 627.919C292.511 627.299 292.662 626.747 292.965 626.264C293.268 625.781 293.699 625.401 294.258 625.124C294.817 624.847 295.479 624.709 296.246 624.709ZM296.246 625.561C295.617 625.561 295.085 625.666 294.652 625.877C294.219 626.085 293.891 626.368 293.668 626.726C293.446 627.081 293.335 627.478 293.335 627.919C293.335 628.359 293.446 628.758 293.668 629.116C293.891 629.471 294.219 629.754 294.652 629.964C295.085 630.173 295.617 630.277 296.246 630.277C296.876 630.277 297.408 630.173 297.841 629.964C298.274 629.754 298.602 629.471 298.825 629.116C299.047 628.758 299.158 628.359 299.158 627.919C299.158 627.478 299.047 627.081 298.825 626.726C298.602 626.368 298.274 626.085 297.841 625.877C297.408 625.666 296.876 625.561 296.246 625.561Z" /></svg>