
<svg width="595" height="1889" viewbox="0 0 595 1889" fill="none" xmlns="http://www.w3.org/2000/svg"><path id="D2Label" d="M520.512 192.43H516.023V177.884H520.711C522.122 177.884 523.329 178.175 524.333 178.758C525.337 179.335 526.106 180.166 526.641 181.251C527.176 182.33 527.444 183.623 527.444 185.129C527.444 186.644 527.174 187.948 526.634 189.042C526.094 190.131 525.308 190.969 524.276 191.556C523.244 192.138 521.989 192.43 520.512 192.43ZM517.784 190.867H520.398C521.601 190.867 522.597 190.635 523.388 190.171C524.179 189.707 524.768 189.047 525.157 188.19C525.545 187.333 525.739 186.312 525.739 185.129C525.739 183.954 525.547 182.943 525.164 182.096C524.78 181.244 524.207 180.59 523.445 180.136C522.683 179.676 521.733 179.447 520.597 179.447H517.784V190.867ZM530.142 192.43V191.151L534.944 185.896C535.507 185.28 535.971 184.745 536.336 184.29C536.7 183.831 536.97 183.4 537.145 182.998C537.325 182.591 537.415 182.165 537.415 181.719C537.415 181.208 537.292 180.765 537.046 180.391C536.804 180.017 536.473 179.728 536.051 179.525C535.63 179.321 535.157 179.219 534.631 179.219C534.072 179.219 533.585 179.335 533.168 179.567C532.756 179.795 532.436 180.114 532.209 180.526C531.987 180.938 531.875 181.421 531.875 181.975H530.199C530.199 181.123 530.396 180.375 530.789 179.731C531.182 179.087 531.717 178.585 532.394 178.225C533.076 177.865 533.84 177.685 534.688 177.685C535.54 177.685 536.295 177.865 536.953 178.225C537.612 178.585 538.128 179.07 538.502 179.681C538.876 180.292 539.063 180.971 539.063 181.719C539.063 182.254 538.966 182.778 538.772 183.289C538.582 183.796 538.251 184.362 537.777 184.987C537.309 185.607 536.658 186.364 535.824 187.259L532.557 190.754V190.867H539.319V192.43H530.142Z" /></svg>