
<svg width="595" height="1889" viewbox="0 0 595 1889" fill="none" xmlns="http://www.w3.org/2000/svg"><path id="EchoLabel" d="M395.638 1573.61V1566.34H400.027V1567.12H396.519V1569.57H399.8V1570.36H396.519V1572.83H400.084V1573.61H395.638ZM407.467 1568.61H406.586C406.534 1568.36 406.443 1568.13 406.313 1567.94C406.185 1567.75 406.029 1567.59 405.844 1567.46C405.662 1567.33 405.459 1567.23 405.237 1567.16C405.014 1567.09 404.782 1567.06 404.541 1567.06C404.1 1567.06 403.701 1567.17 403.344 1567.39C402.989 1567.62 402.706 1567.94 402.495 1568.38C402.287 1568.81 402.183 1569.34 402.183 1569.97C402.183 1570.6 402.287 1571.13 402.495 1571.57C402.706 1572 402.989 1572.33 403.344 1572.55C403.701 1572.77 404.1 1572.88 404.541 1572.88C404.782 1572.88 405.014 1572.85 405.237 1572.78C405.459 1572.72 405.662 1572.62 405.844 1572.49C406.029 1572.36 406.185 1572.2 406.313 1572C406.443 1571.81 406.534 1571.59 406.586 1571.34H407.467C407.401 1571.71 407.28 1572.04 407.105 1572.33C406.929 1572.63 406.712 1572.88 406.451 1573.08C406.191 1573.29 405.898 1573.44 405.574 1573.55C405.252 1573.65 404.908 1573.71 404.541 1573.71C403.92 1573.71 403.369 1573.56 402.886 1573.25C402.403 1572.95 402.023 1572.52 401.746 1571.96C401.469 1571.4 401.33 1570.74 401.33 1569.97C401.33 1569.2 401.469 1568.54 401.746 1567.98C402.023 1567.42 402.403 1566.99 402.886 1566.69C403.369 1566.39 403.92 1566.24 404.541 1566.24C404.908 1566.24 405.252 1566.29 405.574 1566.4C405.898 1566.5 406.191 1566.66 406.451 1566.86C406.712 1567.07 406.929 1567.32 407.105 1567.61C407.28 1567.9 407.401 1568.23 407.467 1568.61ZM408.89 1573.61V1566.34H409.771V1569.57H413.648V1566.34H414.529V1573.61H413.648V1570.36H409.771V1573.61H408.89ZM422.429 1569.97C422.429 1570.74 422.29 1571.4 422.013 1571.96C421.736 1572.52 421.356 1572.95 420.873 1573.25C420.39 1573.56 419.839 1573.71 419.218 1573.71C418.598 1573.71 418.047 1573.56 417.564 1573.25C417.081 1572.95 416.701 1572.52 416.424 1571.96C416.147 1571.4 416.008 1570.74 416.008 1569.97C416.008 1569.2 416.147 1568.54 416.424 1567.98C416.701 1567.42 417.081 1566.99 417.564 1566.69C418.047 1566.39 418.598 1566.24 419.218 1566.24C419.839 1566.24 420.39 1566.39 420.873 1566.69C421.356 1566.99 421.736 1567.42 422.013 1567.98C422.29 1568.54 422.429 1569.2 422.429 1569.97ZM421.576 1569.97C421.576 1569.34 421.471 1568.81 421.26 1568.38C421.052 1567.94 420.769 1567.62 420.412 1567.39C420.057 1567.17 419.659 1567.06 419.218 1567.06C418.778 1567.06 418.379 1567.17 418.022 1567.39C417.667 1567.62 417.384 1567.94 417.173 1568.38C416.965 1568.81 416.86 1569.34 416.86 1569.97C416.86 1570.6 416.965 1571.13 417.173 1571.57C417.384 1572 417.667 1572.33 418.022 1572.55C418.379 1572.77 418.778 1572.88 419.218 1572.88C419.659 1572.88 420.057 1572.77 420.412 1572.55C420.769 1572.33 421.052 1572 421.26 1571.57C421.471 1571.13 421.576 1570.6 421.576 1569.97Z" /></svg>