
<svg width="595" height="1889" viewbox="0 0 595 1889" fill="none" xmlns="http://www.w3.org/2000/svg"><path id="EightBitLabel" d="M542.851 1866.98C542.266 1866.98 541.749 1866.87 541.3 1866.67C540.854 1866.46 540.506 1866.17 540.256 1865.8C540.006 1865.43 539.882 1865.01 539.885 1864.54C539.882 1864.17 539.955 1863.83 540.103 1863.52C540.25 1863.2 540.452 1862.94 540.708 1862.73C540.966 1862.52 541.255 1862.38 541.573 1862.32V1862.27C541.155 1862.17 540.823 1861.93 540.576 1861.57C540.328 1861.21 540.206 1860.79 540.209 1860.33C540.206 1859.89 540.319 1859.49 540.546 1859.14C540.773 1858.79 541.086 1858.52 541.483 1858.31C541.884 1858.11 542.34 1858.01 542.851 1858.01C543.357 1858.01 543.809 1858.11 544.206 1858.31C544.604 1858.52 544.917 1858.79 545.144 1859.14C545.374 1859.49 545.49 1859.89 545.493 1860.33C545.49 1860.79 545.364 1861.21 545.114 1861.57C544.867 1861.93 544.539 1862.17 544.13 1862.27V1862.32C544.445 1862.38 544.729 1862.52 544.982 1862.73C545.235 1862.94 545.436 1863.2 545.587 1863.52C545.738 1863.83 545.814 1864.17 545.817 1864.54C545.814 1865.01 545.686 1865.43 545.434 1865.8C545.184 1866.17 544.836 1866.46 544.39 1866.67C543.946 1866.87 543.434 1866.98 542.851 1866.98ZM542.851 1866.04C543.246 1866.04 543.587 1865.98 543.874 1865.85C544.161 1865.72 544.382 1865.54 544.539 1865.31C544.695 1865.07 544.775 1864.8 544.777 1864.49C544.775 1864.16 544.689 1863.87 544.522 1863.62C544.354 1863.36 544.125 1863.16 543.836 1863.02C543.549 1862.87 543.221 1862.8 542.851 1862.8C542.479 1862.8 542.147 1862.87 541.854 1863.02C541.564 1863.16 541.336 1863.36 541.168 1863.62C541.003 1863.87 540.922 1864.16 540.925 1864.49C540.922 1864.8 540.998 1865.07 541.151 1865.31C541.307 1865.54 541.53 1865.72 541.82 1865.85C542.11 1865.98 542.453 1866.04 542.851 1866.04ZM542.851 1861.9C543.164 1861.9 543.441 1861.84 543.682 1861.71C543.926 1861.59 544.118 1861.41 544.257 1861.19C544.397 1860.96 544.468 1860.7 544.471 1860.4C544.468 1860.1 544.398 1859.85 544.262 1859.63C544.125 1859.41 543.936 1859.23 543.695 1859.12C543.453 1858.99 543.172 1858.93 542.851 1858.93C542.525 1858.93 542.239 1858.99 541.995 1859.12C541.75 1859.23 541.561 1859.41 541.428 1859.63C541.294 1859.85 541.229 1860.1 541.232 1860.4C541.229 1860.7 541.296 1860.96 541.432 1861.19C541.571 1861.41 541.763 1861.59 542.007 1861.71C542.252 1861.84 542.533 1861.9 542.851 1861.9ZM551.217 1862.03V1862.96H547.399V1862.03H551.217ZM553.123 1866.86V1858.13H556.174C556.782 1858.13 557.284 1858.24 557.679 1858.45C558.074 1858.65 558.368 1858.93 558.561 1859.29C558.754 1859.64 558.85 1860.02 558.85 1860.45C558.85 1860.82 558.784 1861.13 558.65 1861.38C558.52 1861.62 558.346 1861.82 558.13 1861.96C557.917 1862.1 557.686 1862.2 557.436 1862.27V1862.36C557.703 1862.38 557.971 1862.47 558.241 1862.64C558.511 1862.81 558.737 1863.05 558.919 1863.37C559.1 1863.69 559.191 1864.08 559.191 1864.54C559.191 1864.98 559.092 1865.37 558.893 1865.72C558.694 1866.07 558.38 1866.35 557.951 1866.55C557.522 1866.76 556.964 1866.86 556.277 1866.86H553.123ZM554.18 1865.92H556.277C556.967 1865.92 557.457 1865.79 557.747 1865.52C558.039 1865.25 558.186 1864.92 558.186 1864.54C558.186 1864.24 558.11 1863.97 557.96 1863.72C557.809 1863.47 557.595 1863.27 557.316 1863.12C557.038 1862.96 556.708 1862.89 556.328 1862.89H554.18V1865.92ZM554.18 1861.97H556.14C556.458 1861.97 556.745 1861.9 557.001 1861.78C557.26 1861.65 557.464 1861.48 557.615 1861.25C557.768 1861.02 557.845 1860.76 557.845 1860.45C557.845 1860.07 557.711 1859.74 557.444 1859.47C557.177 1859.2 556.754 1859.07 556.174 1859.07H554.18V1861.97ZM561.985 1858.13V1866.86H560.928V1858.13H561.985ZM563.626 1859.07V1858.13H570.172V1859.07H567.428V1866.86H566.371V1859.07H563.626Z" /></svg>