
<svg width="595" height="1889" viewbox="0 0 595 1889" fill="none" xmlns="http://www.w3.org/2000/svg"><path id="FifthFloorRestrooms3Label" d="M531.128 961.602L528.848 948.602H532.368L533.088 954.282C533.155 954.962 533.228 955.642 533.308 956.322C533.388 957.002 533.462 957.682 533.528 958.362H533.608C533.728 957.682 533.848 957.002 533.968 956.322C534.088 955.629 534.208 954.949 534.328 954.282L535.568 948.602H538.448L539.688 954.282C539.808 954.935 539.928 955.609 540.048 956.302C540.168 956.982 540.288 957.669 540.408 958.362H540.488C540.555 957.669 540.628 956.982 540.708 956.302C540.788 955.609 540.862 954.935 540.928 954.282L541.648 948.602H544.928L542.768 961.602H538.408L537.408 956.442C537.315 955.935 537.228 955.422 537.148 954.902C537.068 954.382 536.995 953.882 536.928 953.402H536.848C536.782 953.882 536.708 954.382 536.628 954.902C536.562 955.422 536.475 955.935 536.368 956.442L535.408 961.602H531.128ZM552.213 961.842C551.106 961.842 550.079 961.602 549.133 961.122C548.199 960.629 547.446 959.889 546.873 958.902C546.299 957.915 546.013 956.682 546.013 955.202C546.013 954.109 546.179 953.142 546.513 952.302C546.859 951.449 547.326 950.729 547.913 950.142C548.513 949.555 549.186 949.115 549.933 948.822C550.693 948.515 551.479 948.362 552.293 948.362C553.159 948.362 553.933 948.535 554.613 948.882C555.306 949.215 555.879 949.615 556.333 950.082L554.533 952.282C554.213 952.002 553.879 951.775 553.533 951.602C553.199 951.415 552.813 951.322 552.373 951.322C551.866 951.322 551.393 951.475 550.953 951.782C550.526 952.075 550.179 952.502 549.913 953.062C549.659 953.622 549.533 954.295 549.533 955.082C549.533 956.295 549.786 957.235 550.293 957.902C550.813 958.555 551.493 958.882 552.333 958.882C552.839 958.882 553.286 958.769 553.673 958.542C554.073 958.315 554.413 958.055 554.693 957.762L556.493 959.922C555.946 960.562 555.306 961.042 554.573 961.362C553.839 961.682 553.053 961.842 552.213 961.842Z" /></svg>