
<svg width="595" height="1889" viewbox="0 0 595 1889" fill="none" xmlns="http://www.w3.org/2000/svg"><path id="FifthFloorRestrooms2Label" d="M528.73 613.604L526.45 600.604H529.97L530.69 606.284C530.757 606.964 530.83 607.644 530.91 608.324C530.99 609.004 531.063 609.684 531.13 610.364H531.21C531.33 609.684 531.45 609.004 531.57 608.324C531.69 607.63 531.81 606.95 531.93 606.284L533.17 600.604H536.05L537.29 606.284C537.41 606.937 537.53 607.61 537.65 608.304C537.77 608.984 537.89 609.67 538.01 610.364H538.09C538.157 609.67 538.23 608.984 538.31 608.304C538.39 607.61 538.463 606.937 538.53 606.284L539.25 600.604H542.53L540.37 613.604H536.01L535.01 608.444C534.917 607.937 534.83 607.424 534.75 606.904C534.67 606.384 534.597 605.884 534.53 605.404H534.45C534.383 605.884 534.31 606.384 534.23 606.904C534.163 607.424 534.077 607.937 533.97 608.444L533.01 613.604H528.73ZM549.814 613.844C548.708 613.844 547.681 613.604 546.734 613.124C545.801 612.63 545.048 611.89 544.474 610.904C543.901 609.917 543.614 608.684 543.614 607.204C543.614 606.11 543.781 605.144 544.114 604.304C544.461 603.45 544.928 602.73 545.514 602.144C546.114 601.557 546.788 601.117 547.534 600.824C548.294 600.517 549.081 600.364 549.894 600.364C550.761 600.364 551.534 600.537 552.214 600.884C552.908 601.217 553.481 601.617 553.934 602.084L552.134 604.284C551.814 604.004 551.481 603.777 551.134 603.604C550.801 603.417 550.414 603.324 549.974 603.324C549.468 603.324 548.994 603.477 548.554 603.784C548.128 604.077 547.781 604.504 547.514 605.064C547.261 605.624 547.134 606.297 547.134 607.084C547.134 608.297 547.388 609.237 547.894 609.904C548.414 610.557 549.094 610.884 549.934 610.884C550.441 610.884 550.888 610.77 551.274 610.544C551.674 610.317 552.014 610.057 552.294 609.764L554.094 611.924C553.548 612.564 552.908 613.044 552.174 613.364C551.441 613.684 550.654 613.844 549.814 613.844Z" /></svg>