
<svg width="595" height="1889" viewbox="0 0 595 1889" fill="none" xmlns="http://www.w3.org/2000/svg"><g id="FifthFloorEntrance">
<path d="M434.079 172.754H382.818C382.063 172.755 381.339 173.055 380.805 173.589C380.271 174.123 379.971 174.847 379.97 175.602V194.587H383.767V176.551H433.129V225.913H383.767V206.928H379.97V226.862C379.971 227.617 380.271 228.341 380.805 228.875C381.339 229.409 382.063 229.709 382.818 229.71H434.079C434.834 229.709 435.558 229.409 436.091 228.875C436.625 228.341 436.926 227.617 436.927 226.862V175.602C436.926 174.847 436.625 174.123 436.091 173.589C435.558 173.055 434.834 172.755 434.079 172.754Z" />
<path d="M402.916 213.965L405.601 216.649L421.575 200.675L405.601 184.701L402.916 187.386L414.307 198.777H379.97V202.574H414.307L402.916 213.965Z" />
</g></svg>