
<svg width="595" height="1889" viewbox="0 0 595 1889" fill="none" xmlns="http://www.w3.org/2000/svg"><path id="FifthFloor" fill-rule="evenodd" clip-rule="evenodd" d="M497.563 1932.44H594.355L594.399 520.038H477.055V454.519H564.874V233.112H586.072V44.2744H336.878V56.4012H263.281L0.814453 109.955L36.2478 291.058L348.223 234.395V268.164H389.541V268.003H459.43V273.003H420.13V449.381H459.43V454.381H420.13V454.519H402.003V515.678H460.991V520.678H402.003V520.806H79.9467L115.592 692.778H391.102V692.611H460.991V697.611H420.13V866.47H461.001V871.47H420.13V871.629H146.859L197.513 1035.71H391.102V1035.54H460.991V1040.54H420.13V1389.15L376.417 1405.08L417.506 1530.74H461.008V1535.74H419.141L419.193 1535.9L364.552 1550.58L497.563 1932.44Z" /></svg>