
<svg width="595" height="1889" viewbox="0 0 595 1889" fill="none" xmlns="http://www.w3.org/2000/svg"><path id="FifthFloorLabel" d="M375.676 23.0537V5.59916H386.142V7.47416H377.79V13.3719H385.358V15.2469H377.79V23.0537H375.676ZM398.626 5.59916V23.0537H396.512V5.59916H398.626ZM409.614 23.0537V5.59916H420.08V7.47416H411.727V13.3719H419.295V15.2469H411.727V23.0537H409.614ZM429.495 7.47416V5.59916H442.586V7.47416H437.097V23.0537H434.984V7.47416H429.495ZM452.598 23.0537V5.59916H454.712V13.3719H464.018V5.59916H466.132V23.0537H464.018V15.2469H454.712V23.0537H452.598ZM490.614 23.0537V5.59916H501.08V7.47416H492.727V13.3719H500.295V15.2469H492.727V23.0537H490.614ZM511.45 23.0537V5.59916H513.563V21.1787H521.677V23.0537H511.45ZM546.427 14.3264C546.427 16.1673 546.094 17.7583 545.43 19.0992C544.765 20.4401 543.853 21.4742 542.694 22.2014C541.535 22.9287 540.211 23.2923 538.722 23.2923C537.234 23.2923 535.91 22.9287 534.751 22.2014C533.592 21.4742 532.68 20.4401 532.015 19.0992C531.35 17.7583 531.018 16.1673 531.018 14.3264C531.018 12.4855 531.35 10.8946 532.015 9.55371C532.68 8.2128 533.592 7.17871 534.751 6.45144C535.91 5.72416 537.234 5.36053 538.722 5.36053C540.211 5.36053 541.535 5.72416 542.694 6.45144C543.853 7.17871 544.765 8.2128 545.43 9.55371C546.094 10.8946 546.427 12.4855 546.427 14.3264ZM544.381 14.3264C544.381 12.8151 544.129 11.5395 543.623 10.4997C543.123 9.45996 542.444 8.67303 541.586 8.13894C540.734 7.60485 539.779 7.3378 538.722 7.3378C537.665 7.3378 536.708 7.60485 535.85 8.13894C534.998 8.67303 534.319 9.45996 533.813 10.4997C533.313 11.5395 533.063 12.8151 533.063 14.3264C533.063 15.8378 533.313 17.1134 533.813 18.1531C534.319 19.1929 534.998 19.9798 535.85 20.5139C536.708 21.048 537.665 21.3151 538.722 21.3151C539.779 21.3151 540.734 21.048 541.586 20.5139C542.444 19.9798 543.123 19.1929 543.623 18.1531C544.129 17.1134 544.381 15.8378 544.381 14.3264ZM571.458 14.3264C571.458 16.1673 571.126 17.7583 570.461 19.0992C569.796 20.4401 568.884 21.4742 567.725 22.2014C566.566 22.9287 565.242 23.2923 563.754 23.2923C562.265 23.2923 560.941 22.9287 559.782 22.2014C558.623 21.4742 557.711 20.4401 557.046 19.0992C556.381 17.7583 556.049 16.1673 556.049 14.3264C556.049 12.4855 556.381 10.8946 557.046 9.55371C557.711 8.2128 558.623 7.17871 559.782 6.45144C560.941 5.72416 562.265 5.36053 563.754 5.36053C565.242 5.36053 566.566 5.72416 567.725 6.45144C568.884 7.17871 569.796 8.2128 570.461 9.55371C571.126 10.8946 571.458 12.4855 571.458 14.3264ZM569.413 14.3264C569.413 12.8151 569.16 11.5395 568.654 10.4997C568.154 9.45996 567.475 8.67303 566.617 8.13894C565.765 7.60485 564.81 7.3378 563.754 7.3378C562.697 7.3378 561.739 7.60485 560.881 8.13894C560.029 8.67303 559.35 9.45996 558.844 10.4997C558.344 11.5395 558.094 12.8151 558.094 14.3264C558.094 15.8378 558.344 17.1134 558.844 18.1531C559.35 19.1929 560.029 19.9798 560.881 20.5139C561.739 21.048 562.697 21.3151 563.754 21.3151C564.81 21.3151 565.765 21.048 566.617 20.5139C567.475 19.9798 568.154 19.1929 568.654 18.1531C569.16 17.1134 569.413 15.8378 569.413 14.3264ZM581.762 23.0537V5.59916H587.66C589.023 5.59916 590.143 5.83212 591.018 6.29803C591.893 6.75826 592.54 7.39178 592.961 8.1986C593.381 9.00542 593.592 9.92303 593.592 10.9514C593.592 11.9798 593.381 12.8918 592.961 13.6872C592.54 14.4827 591.896 15.1077 591.026 15.5622C590.157 16.0111 589.046 16.2355 587.694 16.2355H582.921V14.3264H587.626C588.558 14.3264 589.308 14.1901 589.876 13.9173C590.45 13.6446 590.864 13.2583 591.12 12.7583C591.381 12.2526 591.512 11.6503 591.512 10.9514C591.512 10.2526 591.381 9.64178 591.12 9.11905C590.859 8.59632 590.441 8.19292 589.867 7.90882C589.293 7.61905 588.535 7.47416 587.592 7.47416H583.876V23.0537H581.762ZM589.978 15.2128L594.273 23.0537H591.819L587.592 15.2128H589.978Z" /></svg>