
<svg width="595" height="1889" viewbox="0 0 595 1889" fill="none" xmlns="http://www.w3.org/2000/svg"><path id="FifthFloorRestrooms1Label" d="M513.026 188.889L510.746 175.889H514.266L514.986 181.569C515.053 182.249 515.126 182.929 515.206 183.609C515.286 184.289 515.359 184.969 515.426 185.649H515.506C515.626 184.969 515.746 184.289 515.866 183.609C515.986 182.915 516.106 182.235 516.226 181.569L517.466 175.889H520.346L521.586 181.569C521.706 182.222 521.826 182.895 521.946 183.589C522.066 184.269 522.186 184.955 522.306 185.649H522.386C522.453 184.955 522.526 184.269 522.606 183.589C522.686 182.895 522.759 182.222 522.826 181.569L523.546 175.889H526.826L524.666 188.889H520.306L519.306 183.729C519.213 183.222 519.126 182.709 519.046 182.189C518.966 181.669 518.893 181.169 518.826 180.689H518.746C518.679 181.169 518.606 181.669 518.526 182.189C518.459 182.709 518.373 183.222 518.266 183.729L517.306 188.889H513.026ZM534.11 189.129C533.004 189.129 531.977 188.889 531.03 188.409C530.097 187.915 529.344 187.175 528.77 186.189C528.197 185.202 527.91 183.969 527.91 182.489C527.91 181.395 528.077 180.429 528.41 179.589C528.757 178.735 529.224 178.015 529.81 177.429C530.41 176.842 531.084 176.402 531.83 176.109C532.59 175.802 533.377 175.649 534.19 175.649C535.057 175.649 535.83 175.822 536.51 176.169C537.204 176.502 537.777 176.902 538.23 177.369L536.43 179.569C536.11 179.289 535.777 179.062 535.43 178.889C535.097 178.702 534.71 178.609 534.27 178.609C533.764 178.609 533.29 178.762 532.85 179.069C532.424 179.362 532.077 179.789 531.81 180.349C531.557 180.909 531.43 181.582 531.43 182.369C531.43 183.582 531.684 184.522 532.19 185.189C532.71 185.842 533.39 186.169 534.23 186.169C534.737 186.169 535.184 186.055 535.57 185.829C535.97 185.602 536.31 185.342 536.59 185.049L538.39 187.209C537.844 187.849 537.204 188.329 536.47 188.649C535.737 188.969 534.95 189.129 534.11 189.129Z" /></svg>