
<svg width="595" height="1889" viewbox="0 0 595 1889" fill="none" xmlns="http://www.w3.org/2000/svg"><path id="FourthFloorLabel" d="M336.942 23.0537V5.59916H347.408V7.47416H339.055V13.3719H346.624V15.2469H339.055V23.0537H336.942ZM372.505 14.3264C372.505 16.1673 372.173 17.7583 371.508 19.0992C370.843 20.4401 369.931 21.4742 368.772 22.2014C367.613 22.9287 366.289 23.2923 364.8 23.2923C363.312 23.2923 361.988 22.9287 360.829 22.2014C359.67 21.4742 358.758 20.4401 358.093 19.0992C357.428 17.7583 357.096 16.1673 357.096 14.3264C357.096 12.4855 357.428 10.8946 358.093 9.55371C358.758 8.2128 359.67 7.17871 360.829 6.45144C361.988 5.72416 363.312 5.36053 364.8 5.36053C366.289 5.36053 367.613 5.72416 368.772 6.45144C369.931 7.17871 370.843 8.2128 371.508 9.55371C372.173 10.8946 372.505 12.4855 372.505 14.3264ZM370.46 14.3264C370.46 12.8151 370.207 11.5395 369.701 10.4997C369.201 9.45996 368.522 8.67303 367.664 8.13894C366.812 7.60485 365.857 7.3378 364.8 7.3378C363.744 7.3378 362.786 7.60485 361.928 8.13894C361.076 8.67303 360.397 9.45996 359.891 10.4997C359.391 11.5395 359.141 12.8151 359.141 14.3264C359.141 15.8378 359.391 17.1134 359.891 18.1531C360.397 19.1929 361.076 19.9798 361.928 20.5139C362.786 21.048 363.744 21.3151 364.8 21.3151C365.857 21.3151 366.812 21.048 367.664 20.5139C368.522 19.9798 369.201 19.1929 369.701 18.1531C370.207 17.1134 370.46 15.8378 370.46 14.3264ZM394.263 5.59916H396.377V17.156C396.377 18.3492 396.096 19.4145 395.533 20.352C394.977 21.2838 394.19 22.0196 393.173 22.5594C392.156 23.0935 390.962 23.3605 389.593 23.3605C388.224 23.3605 387.031 23.0935 386.013 22.5594C384.996 22.0196 384.207 21.2838 383.644 20.352C383.087 19.4145 382.809 18.3492 382.809 17.156V5.59916H384.923V16.9855C384.923 17.8378 385.11 18.5963 385.485 19.2611C385.86 19.9202 386.394 20.4401 387.087 20.8208C387.786 21.1958 388.621 21.3833 389.593 21.3833C390.565 21.3833 391.4 21.1958 392.099 20.8208C392.798 20.4401 393.332 19.9202 393.701 19.2611C394.076 18.5963 394.263 17.8378 394.263 16.9855V5.59916ZM407.348 23.0537V5.59916H413.246C414.609 5.59916 415.729 5.83212 416.604 6.29803C417.479 6.75826 418.126 7.39178 418.547 8.1986C418.967 9.00542 419.178 9.92303 419.178 10.9514C419.178 11.9798 418.967 12.8918 418.547 13.6872C418.126 14.4827 417.482 15.1077 416.612 15.5622C415.743 16.0111 414.632 16.2355 413.28 16.2355H408.507V14.3264H413.212C414.143 14.3264 414.893 14.1901 415.462 13.9173C416.036 13.6446 416.45 13.2583 416.706 12.7583C416.967 12.2526 417.098 11.6503 417.098 10.9514C417.098 10.2526 416.967 9.64178 416.706 9.11905C416.445 8.59632 416.027 8.19292 415.453 7.90882C414.879 7.61905 414.121 7.47416 413.178 7.47416H409.462V23.0537H407.348ZM415.564 15.2128L419.859 23.0537H417.405L413.178 15.2128H415.564ZM428.495 7.47416V5.59916H441.586V7.47416H436.097V23.0537H433.984V7.47416H428.495ZM451.598 23.0537V5.59916H453.712V13.3719H463.018V5.59916H465.132V23.0537H463.018V15.2469H453.712V23.0537H451.598ZM489.614 23.0537V5.59916H500.08V7.47416H491.727V13.3719H499.295V15.2469H491.727V23.0537H489.614ZM510.45 23.0537V5.59916H512.563V21.1787H520.677V23.0537H510.45ZM545.427 14.3264C545.427 16.1673 545.094 17.7583 544.43 19.0992C543.765 20.4401 542.853 21.4742 541.694 22.2014C540.535 22.9287 539.211 23.2923 537.722 23.2923C536.234 23.2923 534.91 22.9287 533.751 22.2014C532.592 21.4742 531.68 20.4401 531.015 19.0992C530.35 17.7583 530.018 16.1673 530.018 14.3264C530.018 12.4855 530.35 10.8946 531.015 9.55371C531.68 8.2128 532.592 7.17871 533.751 6.45144C534.91 5.72416 536.234 5.36053 537.722 5.36053C539.211 5.36053 540.535 5.72416 541.694 6.45144C542.853 7.17871 543.765 8.2128 544.43 9.55371C545.094 10.8946 545.427 12.4855 545.427 14.3264ZM543.381 14.3264C543.381 12.8151 543.129 11.5395 542.623 10.4997C542.123 9.45996 541.444 8.67303 540.586 8.13894C539.734 7.60485 538.779 7.3378 537.722 7.3378C536.665 7.3378 535.708 7.60485 534.85 8.13894C533.998 8.67303 533.319 9.45996 532.813 10.4997C532.313 11.5395 532.063 12.8151 532.063 14.3264C532.063 15.8378 532.313 17.1134 532.813 18.1531C533.319 19.1929 533.998 19.9798 534.85 20.5139C535.708 21.048 536.665 21.3151 537.722 21.3151C538.779 21.3151 539.734 21.048 540.586 20.5139C541.444 19.9798 542.123 19.1929 542.623 18.1531C543.129 17.1134 543.381 15.8378 543.381 14.3264ZM570.458 14.3264C570.458 16.1673 570.126 17.7583 569.461 19.0992C568.796 20.4401 567.884 21.4742 566.725 22.2014C565.566 22.9287 564.242 23.2923 562.754 23.2923C561.265 23.2923 559.941 22.9287 558.782 22.2014C557.623 21.4742 556.711 20.4401 556.046 19.0992C555.381 17.7583 555.049 16.1673 555.049 14.3264C555.049 12.4855 555.381 10.8946 556.046 9.55371C556.711 8.2128 557.623 7.17871 558.782 6.45144C559.941 5.72416 561.265 5.36053 562.754 5.36053C564.242 5.36053 565.566 5.72416 566.725 6.45144C567.884 7.17871 568.796 8.2128 569.461 9.55371C570.126 10.8946 570.458 12.4855 570.458 14.3264ZM568.413 14.3264C568.413 12.8151 568.16 11.5395 567.654 10.4997C567.154 9.45996 566.475 8.67303 565.617 8.13894C564.765 7.60485 563.81 7.3378 562.754 7.3378C561.697 7.3378 560.739 7.60485 559.881 8.13894C559.029 8.67303 558.35 9.45996 557.844 10.4997C557.344 11.5395 557.094 12.8151 557.094 14.3264C557.094 15.8378 557.344 17.1134 557.844 18.1531C558.35 19.1929 559.029 19.9798 559.881 20.5139C560.739 21.048 561.697 21.3151 562.754 21.3151C563.81 21.3151 564.765 21.048 565.617 20.5139C566.475 19.9798 567.154 19.1929 567.654 18.1531C568.16 17.1134 568.413 15.8378 568.413 14.3264ZM580.762 23.0537V5.59916H586.66C588.023 5.59916 589.143 5.83212 590.018 6.29803C590.893 6.75826 591.54 7.39178 591.961 8.1986C592.381 9.00542 592.592 9.92303 592.592 10.9514C592.592 11.9798 592.381 12.8918 591.961 13.6872C591.54 14.4827 590.896 15.1077 590.026 15.5622C589.157 16.0111 588.046 16.2355 586.694 16.2355H581.921V14.3264H586.626C587.558 14.3264 588.308 14.1901 588.876 13.9173C589.45 13.6446 589.864 13.2583 590.12 12.7583C590.381 12.2526 590.512 11.6503 590.512 10.9514C590.512 10.2526 590.381 9.64178 590.12 9.11905C589.859 8.59632 589.441 8.19292 588.867 7.90882C588.293 7.61905 587.535 7.47416 586.592 7.47416H582.876V23.0537H580.762ZM588.978 15.2128L593.273 23.0537H590.819L586.592 15.2128H588.978Z" /></svg>