
<svg width="595" height="1889" viewbox="0 0 595 1889" fill="none" xmlns="http://www.w3.org/2000/svg"><g id="FourthFloorEntrance">
<path d="M434.082 172.751H382.821C382.066 172.752 381.343 173.052 380.809 173.586C380.275 174.12 379.975 174.844 379.974 175.599V194.584H383.771V176.548H433.133V225.91H383.771V206.925H379.974V226.86C379.975 227.615 380.275 228.338 380.809 228.872C381.343 229.406 382.066 229.706 382.821 229.707H434.082C434.837 229.706 435.561 229.406 436.095 228.872C436.629 228.338 436.929 227.615 436.93 226.86V175.599C436.929 174.844 436.629 174.12 436.095 173.586C435.561 173.052 434.837 172.752 434.082 172.751Z" />
<path d="M402.92 213.961L405.604 216.646L421.579 200.672L405.604 184.698L402.92 187.383L414.31 198.774H379.974V202.571H414.31L402.92 213.961Z" />
</g></svg>