
<svg width="595" height="1889" viewbox="0 0 595 1889" fill="none" xmlns="http://www.w3.org/2000/svg"><path id="FourthFloorRestrooms2Label" d="M529.726 1146.11L527.446 1133.11H530.966L531.686 1138.79C531.753 1139.47 531.826 1140.15 531.906 1140.83C531.986 1141.51 532.059 1142.19 532.126 1142.87H532.206C532.326 1142.19 532.446 1141.51 532.566 1140.83C532.686 1140.14 532.806 1139.46 532.926 1138.79L534.166 1133.11H537.046L538.286 1138.79C538.406 1139.44 538.526 1140.12 538.646 1140.81C538.766 1141.49 538.886 1142.18 539.006 1142.87H539.086C539.153 1142.18 539.226 1141.49 539.306 1140.81C539.386 1140.12 539.459 1139.44 539.526 1138.79L540.246 1133.11H543.526L541.366 1146.11H537.006L536.006 1140.95C535.913 1140.44 535.826 1139.93 535.746 1139.41C535.666 1138.89 535.593 1138.39 535.526 1137.91H535.446C535.379 1138.39 535.306 1138.89 535.226 1139.41C535.159 1139.93 535.073 1140.44 534.966 1140.95L534.006 1146.11H529.726ZM550.81 1146.35C549.704 1146.35 548.677 1146.11 547.73 1145.63C546.797 1145.14 546.044 1144.4 545.47 1143.41C544.897 1142.42 544.61 1141.19 544.61 1139.71C544.61 1138.62 544.777 1137.65 545.11 1136.81C545.457 1135.96 545.924 1135.24 546.51 1134.65C547.11 1134.06 547.784 1133.62 548.53 1133.33C549.29 1133.02 550.077 1132.87 550.89 1132.87C551.757 1132.87 552.53 1133.04 553.21 1133.39C553.904 1133.72 554.477 1134.12 554.93 1134.59L553.13 1136.79C552.81 1136.51 552.477 1136.28 552.13 1136.11C551.797 1135.92 551.41 1135.83 550.97 1135.83C550.464 1135.83 549.99 1135.98 549.55 1136.29C549.124 1136.58 548.777 1137.01 548.51 1137.57C548.257 1138.13 548.13 1138.8 548.13 1139.59C548.13 1140.8 548.384 1141.74 548.89 1142.41C549.41 1143.06 550.09 1143.39 550.93 1143.39C551.437 1143.39 551.884 1143.28 552.27 1143.05C552.67 1142.82 553.01 1142.56 553.29 1142.27L555.09 1144.43C554.544 1145.07 553.904 1145.55 553.17 1145.87C552.437 1146.19 551.65 1146.35 550.81 1146.35Z" /></svg>