
<svg width="595" height="1889" viewbox="0 0 595 1889" fill="none" xmlns="http://www.w3.org/2000/svg"><path id="FourthFloor" fill-rule="evenodd" clip-rule="evenodd" d="M593.744 1932.28H496.952L363.942 1550.42L418.582 1535.74L418.582 1535.74H461.008V1530.74H416.947L375.806 1404.92L419.519 1388.99V1203.11H469.499V1198.11H419.519V1040.54H460.991V1035.54H391.102V1035.55H196.902L146.249 871.471H419.519V871.47H461.001V866.47H419.519V697.611H460.991V692.611H391.102V692.62H114.981L79.3358 520.648H391.102V520.678H460.991V515.678H401.392V454.381H459.43V449.381H419.519V273.003H459.43V268.003H389.541V268.006H347.612V234.237L35.6369 290.9L0.203613 109.797L262.67 56.2434H336.267V44.1166H585.461V232.954H564.263V454.361H476.444V519.88H593.788L593.744 1932.28Z" /></svg>