
<svg width="595" height="1889" viewbox="0 0 595 1889" fill="none" xmlns="http://www.w3.org/2000/svg"><path id="FourthFloorRestrooms1Label" d="M528.726 613.608L526.446 600.608H529.966L530.686 606.288C530.753 606.968 530.826 607.648 530.906 608.328C530.986 609.008 531.059 609.688 531.126 610.368H531.206C531.326 609.688 531.446 609.008 531.566 608.328C531.686 607.635 531.806 606.955 531.926 606.288L533.166 600.608H536.046L537.286 606.288C537.406 606.942 537.526 607.615 537.646 608.308C537.766 608.988 537.886 609.675 538.006 610.368H538.086C538.153 609.675 538.226 608.988 538.306 608.308C538.386 607.615 538.459 606.942 538.526 606.288L539.246 600.608H542.526L540.366 613.608H536.006L535.006 608.448C534.913 607.942 534.826 607.428 534.746 606.908C534.666 606.388 534.593 605.888 534.526 605.408H534.446C534.379 605.888 534.306 606.388 534.226 606.908C534.159 607.428 534.073 607.942 533.966 608.448L533.006 613.608H528.726ZM549.81 613.848C548.704 613.848 547.677 613.608 546.73 613.128C545.797 612.635 545.044 611.895 544.47 610.908C543.897 609.922 543.61 608.688 543.61 607.208C543.61 606.115 543.777 605.148 544.11 604.308C544.457 603.455 544.924 602.735 545.51 602.148C546.11 601.562 546.784 601.122 547.53 600.828C548.29 600.522 549.077 600.368 549.89 600.368C550.757 600.368 551.53 600.542 552.21 600.888C552.904 601.222 553.477 601.622 553.93 602.088L552.13 604.288C551.81 604.008 551.477 603.782 551.13 603.608C550.797 603.422 550.41 603.328 549.97 603.328C549.464 603.328 548.99 603.482 548.55 603.788C548.124 604.082 547.777 604.508 547.51 605.068C547.257 605.628 547.13 606.302 547.13 607.088C547.13 608.302 547.384 609.242 547.89 609.908C548.41 610.562 549.09 610.888 549.93 610.888C550.437 610.888 550.884 610.775 551.27 610.548C551.67 610.322 552.01 610.062 552.29 609.768L554.09 611.928C553.544 612.568 552.904 613.048 552.17 613.368C551.437 613.688 550.65 613.848 549.81 613.848Z" /></svg>