
<svg width="595" height="1889" viewbox="0 0 595 1889" fill="none" xmlns="http://www.w3.org/2000/svg"><path id="GalaxyLabel" d="M466.762 1367.31C466.283 1367.46 465.855 1367.67 465.476 1367.92C465.093 1368.18 464.766 1368.48 464.496 1368.83C464.226 1369.17 464.02 1369.56 463.878 1370.01C463.736 1370.45 463.665 1370.93 463.665 1371.45C463.665 1372.32 463.888 1373.1 464.333 1373.8C464.778 1374.51 465.434 1375.07 466.3 1375.49C467.167 1375.9 468.23 1376.11 469.489 1376.11C470.748 1376.11 471.811 1375.9 472.678 1375.48C473.544 1375.06 474.2 1374.49 474.645 1373.77C475.09 1373.05 475.313 1372.24 475.313 1371.34C475.313 1370.51 475.135 1369.77 474.78 1369.14C474.42 1368.5 473.914 1368 473.26 1367.65C472.602 1367.29 471.828 1367.11 470.938 1367.11L471.051 1366.57V1370.94H469.489V1365.4H471.051C472.249 1365.4 473.291 1365.66 474.176 1366.17C475.062 1366.68 475.748 1367.38 476.236 1368.27C476.719 1369.16 476.961 1370.18 476.961 1371.34C476.961 1372.63 476.658 1373.76 476.051 1374.74C475.445 1375.71 474.584 1376.46 473.466 1377.01C472.349 1377.55 471.023 1377.82 469.489 1377.82C468.338 1377.82 467.304 1377.66 466.385 1377.36C465.462 1377.04 464.676 1376.6 464.027 1376.03C463.379 1375.47 462.882 1374.79 462.536 1374.02C462.19 1373.24 462.017 1372.39 462.017 1371.45C462.017 1370.69 462.133 1369.97 462.365 1369.31C462.593 1368.64 462.917 1368.05 463.338 1367.53C463.755 1367 464.255 1366.56 464.837 1366.21C465.415 1365.86 466.056 1365.62 466.762 1365.49V1367.31ZM476.762 1356.16V1358.01L462.216 1352.67V1350.85L476.762 1345.51V1347.36L464.517 1351.7V1351.82L476.762 1356.16ZM471.08 1355.48V1348.04H472.642V1355.48H471.08ZM476.762 1337.62H462.216V1335.86H475.199V1329.1H476.762V1337.62ZM476.762 1320.15V1322L462.216 1316.65V1314.84L476.762 1309.5V1311.34L464.517 1315.69V1315.8L476.762 1320.15ZM471.08 1319.47V1312.02H472.642V1319.47H471.08ZM462.216 1300.75L468.267 1297V1296.89L462.216 1293.14V1291.07L469.489 1295.64L476.762 1291.07V1293.14L470.824 1296.89V1297L476.762 1300.75V1302.83L469.489 1298.14L462.216 1302.83V1300.75ZM462.216 1284.4V1282.38L469.006 1278.35V1278.18L462.216 1274.14V1272.13L470.767 1277.38H476.762V1279.14H470.767L462.216 1284.4Z" /></svg>