
<svg width="595" height="1889" viewbox="0 0 595 1889" fill="none" xmlns="http://www.w3.org/2000/svg"><path id="HatLabel" d="M62.3702 217.71L60.9825 210.571L61.847 210.403L62.465 213.582L66.2716 212.842L65.6536 209.663L66.5181 209.495L67.9058 216.634L67.0413 216.802L66.4207 213.609L62.6141 214.349L63.2347 217.542L62.3702 217.71ZM69.9294 216.24L69.0231 216.417L70.2568 208.768L71.1491 208.594L75.1582 215.224L74.2519 215.4L70.9504 209.805L70.8946 209.816L69.9294 216.24ZM69.722 213.387L73.3752 212.677L73.5243 213.443L69.871 214.154L69.722 213.387ZM73.8072 208.874L73.6581 208.107L79.0125 207.066L79.1615 207.833L76.9166 208.269L78.1552 214.641L77.2907 214.81L76.0521 208.437L73.8072 208.874Z" /></svg>