
<svg width="595" height="1889" viewbox="0 0 595 1889" fill="none" xmlns="http://www.w3.org/2000/svg"><path id="HeavenLabel" d="M450.16 1309.35V1294.81H451.921V1301.28H459.677V1294.81H461.438V1309.35H459.677V1302.85H451.921V1309.35H450.16ZM470.589 1309.35V1294.81H479.368V1296.37H472.351V1301.28H478.913V1302.85H472.351V1307.79H479.482V1309.35H470.589ZM488.764 1309.35H486.918L492.259 1294.81H494.077L499.418 1309.35H497.571L493.224 1297.11H493.111L488.764 1309.35ZM489.446 1303.67H496.889V1305.23H489.446V1303.67ZM507.905 1294.81L512.223 1307.05H512.393L516.712 1294.81H518.558L513.217 1309.35H511.399L506.058 1294.81H507.905ZM526.449 1309.35V1294.81H535.227V1296.37H528.21V1301.28H534.773V1302.85H528.21V1307.79H535.341V1309.35H526.449ZM555.561 1294.81V1309.35H553.857L545.93 1297.93H545.788V1309.35H544.027V1294.81H545.732L553.686 1306.25H553.828V1294.81H555.561Z" /></svg>