
<svg width="595" height="1889" viewbox="0 0 595 1889" fill="none" xmlns="http://www.w3.org/2000/svg"><path id="JungleLabel" d="M521.201 839.587V837.826H531.598C532.526 837.826 533.315 837.997 533.963 838.337C534.612 838.678 535.105 839.159 535.441 839.779C535.777 840.399 535.945 841.131 535.945 841.974C535.945 842.769 535.801 843.477 535.512 844.097C535.218 844.718 534.801 845.205 534.262 845.56C533.722 845.916 533.08 846.093 532.337 846.093V844.36C532.749 844.36 533.109 844.258 533.417 844.055C533.72 843.846 533.956 843.562 534.127 843.203C534.297 842.843 534.382 842.433 534.382 841.974C534.382 841.467 534.276 841.036 534.063 840.681C533.85 840.326 533.537 840.056 533.125 839.872C532.709 839.682 532.2 839.587 531.598 839.587H521.201ZM521.201 824.751V822.989H530.831C531.826 822.989 532.713 823.224 533.495 823.693C534.271 824.157 534.884 824.812 535.334 825.66C535.779 826.507 536.002 827.502 536.002 828.643C536.002 829.784 535.779 830.778 535.334 831.626C534.884 832.473 534.271 833.131 533.495 833.6C532.713 834.064 531.826 834.296 530.831 834.296H521.201V832.535H530.689C531.4 832.535 532.032 832.379 532.586 832.066C533.135 831.754 533.568 831.309 533.885 830.731C534.198 830.149 534.354 829.453 534.354 828.643C534.354 827.833 534.198 827.137 533.885 826.555C533.568 825.972 533.135 825.527 532.586 825.22C532.032 824.907 531.4 824.751 530.689 824.751H521.201ZM521.201 807.938H535.746V809.642L524.326 817.569V817.711H535.746V819.472H521.201V817.767L532.65 809.813V809.671H521.201V807.938ZM525.746 794.47C525.268 794.627 524.839 794.832 524.461 795.088C524.077 795.339 523.75 795.64 523.48 795.99C523.211 796.336 523.005 796.729 522.863 797.169C522.721 797.609 522.65 798.092 522.65 798.618C522.65 799.48 522.872 800.263 523.317 800.969C523.762 801.674 524.418 802.235 525.284 802.652C526.151 803.069 527.214 803.277 528.473 803.277C529.733 803.277 530.796 803.066 531.662 802.645C532.529 802.224 533.185 801.653 533.63 800.933C534.075 800.214 534.297 799.404 534.297 798.504C534.297 797.671 534.12 796.937 533.765 796.303C533.405 795.663 532.898 795.166 532.245 794.811C531.587 794.451 530.812 794.271 529.922 794.271L530.036 793.732V798.107H528.473V792.567H530.036C531.234 792.567 532.275 792.823 533.161 793.334C534.046 793.841 534.733 794.541 535.221 795.436C535.703 796.326 535.945 797.349 535.945 798.504C535.945 799.792 535.642 800.924 535.036 801.899C534.43 802.87 533.568 803.627 532.451 804.172C531.333 804.712 530.007 804.982 528.473 804.982C527.323 804.982 526.288 804.828 525.37 804.52C524.446 804.207 523.66 803.767 523.012 803.199C522.363 802.631 521.866 801.958 521.52 801.182C521.175 800.405 521.002 799.551 521.002 798.618C521.002 797.851 521.118 797.136 521.35 796.473C521.577 795.805 521.901 795.211 522.323 794.69C522.739 794.165 523.239 793.727 523.821 793.377C524.399 793.026 525.041 792.785 525.746 792.652V794.47ZM535.746 789.55H521.201V787.789H534.184V781.027H535.746V789.55ZM535.746 778.3H521.201V769.522H522.763V776.539H527.678V769.976H529.24V776.539H534.184V769.408H535.746V778.3Z" /></svg>