
<svg width="595" height="1889" viewbox="0 0 595 1889" fill="none" xmlns="http://www.w3.org/2000/svg"><path id="KickLabel" d="M68.5866 249.247L67.1989 242.108L68.0634 241.94L68.7518 245.481L68.8354 245.465L71.354 241.3L72.4835 241.081L70.1117 244.884L73.8712 248.22L72.8254 248.423L69.6984 245.587L69.0011 246.764L69.4511 249.079L68.5866 249.247ZM74.4669 240.695L75.8546 247.834L74.9901 248.002L73.6024 240.863L74.4669 240.695ZM82.3787 241.472L81.5142 241.64C81.4147 241.402 81.2828 241.201 81.1184 241.037C80.9563 240.873 80.7722 240.745 80.5661 240.653C80.3619 240.557 80.1442 240.498 79.9131 240.476C79.682 240.453 79.4479 240.465 79.2109 240.511C78.7787 240.595 78.4083 240.78 78.0998 241.067C77.7937 241.353 77.5786 241.729 77.4544 242.194C77.3326 242.659 77.3317 243.201 77.4519 243.819C77.5721 244.437 77.7757 244.939 78.0629 245.325C78.3524 245.71 78.6927 245.978 79.0837 246.128C79.4771 246.279 79.8899 246.312 80.3221 246.228C80.5592 246.182 80.7806 246.105 80.9864 245.997C81.1922 245.89 81.3722 245.755 81.5263 245.592C81.6822 245.427 81.8047 245.238 81.8936 245.025C81.9843 244.81 82.0313 244.574 82.0346 244.318L82.8991 244.15C82.9049 244.527 82.8499 244.877 82.7339 245.198C82.618 245.52 82.4518 245.806 82.2355 246.058C82.0187 246.308 81.7613 246.516 81.4633 246.682C81.1675 246.848 80.8396 246.966 80.4793 247.036C79.8705 247.155 79.3001 247.111 78.7682 246.906C78.2363 246.701 77.7811 246.35 77.4026 245.855C77.0241 245.359 76.7616 244.735 76.6153 243.982C76.4689 243.229 76.4784 242.552 76.6437 241.95C76.809 241.349 77.0997 240.854 77.516 240.464C77.9323 240.074 78.4448 239.82 79.0537 239.702C79.4139 239.632 79.7622 239.619 80.0986 239.662C80.4373 239.704 80.7541 239.802 81.049 239.955C81.3435 240.105 81.6048 240.307 81.8327 240.562C82.0603 240.814 82.2423 241.118 82.3787 241.472ZM84.7297 246.109L83.342 238.97L84.2065 238.802L84.895 242.343L84.9786 242.327L87.4972 238.162L88.6266 237.943L86.2549 241.746L90.0143 245.082L88.9686 245.285L85.8415 242.449L85.1443 243.626L85.5942 245.941L84.7297 246.109Z" /></svg>