
<svg width="595" height="1889" viewbox="0 0 595 1889" fill="none" xmlns="http://www.w3.org/2000/svg"><path id="KitchenLabel" d="M458.593 927.689V913.144H460.354V920.36H460.525L467.059 913.144H469.36L463.252 919.706L469.36 927.689H467.229L462.172 920.928L460.354 922.974V927.689H458.593ZM479.026 913.144V927.689H477.265V913.144H479.026ZM487.387 914.706V913.144H498.296V914.706H493.723V927.689H491.961V914.706H487.387ZM518.344 917.689H516.583C516.479 917.183 516.297 916.738 516.036 916.354C515.78 915.971 515.468 915.649 515.099 915.388C514.734 915.123 514.329 914.924 513.884 914.792C513.439 914.659 512.975 914.593 512.492 914.593C511.611 914.593 510.814 914.815 510.099 915.26C509.388 915.706 508.823 916.361 508.401 917.228C507.984 918.094 507.776 919.157 507.776 920.417C507.776 921.676 507.984 922.739 508.401 923.606C508.823 924.472 509.388 925.128 510.099 925.573C510.814 926.018 511.611 926.241 512.492 926.241C512.975 926.241 513.439 926.174 513.884 926.042C514.329 925.909 514.734 925.713 515.099 925.452C515.468 925.187 515.78 924.863 516.036 924.479C516.297 924.091 516.479 923.646 516.583 923.144H518.344C518.212 923.887 517.97 924.553 517.62 925.14C517.27 925.727 516.834 926.226 516.313 926.638C515.792 927.046 515.207 927.356 514.559 927.569C513.915 927.782 513.226 927.888 512.492 927.888C511.252 927.888 510.148 927.585 509.182 926.979C508.216 926.373 507.457 925.511 506.903 924.394C506.349 923.277 506.072 921.951 506.072 920.417C506.072 918.883 506.349 917.557 506.903 916.439C507.457 915.322 508.216 914.46 509.182 913.854C510.148 913.248 511.252 912.945 512.492 912.945C513.226 912.945 513.915 913.052 514.559 913.265C515.207 913.478 515.792 913.79 516.313 914.202C516.834 914.609 517.27 915.107 517.62 915.694C517.97 916.276 518.212 916.941 518.344 917.689ZM526.816 927.689V913.144H528.577V919.621H536.333V913.144H538.094V927.689H536.333V921.184H528.577V927.689H526.816ZM547.245 927.689V913.144H556.024V914.706H549.007V919.621H555.569V921.184H549.007V926.127H556.137V927.689H547.245ZM576.357 913.144V927.689H574.653L566.727 916.269H566.585V927.689H564.823V913.144H566.528L574.482 924.593H574.625V913.144H576.357Z" /></svg>