
<svg width="595" height="1889" viewbox="0 0 595 1889" fill="none" xmlns="http://www.w3.org/2000/svg"><path id="LizardLabel" d="M554.746 1365.32H540.201V1363.56H553.184V1356.8H554.746V1365.32ZM540.201 1352.31H554.746V1354.07H540.201V1352.31ZM554.746 1349.26H553.468L541.763 1341.42V1349.35H540.201V1339.32H541.479L553.184 1347.16V1339.24H554.746V1349.26ZM554.746 1335.68V1337.53L540.201 1332.19V1330.37L554.746 1325.03V1326.88L542.502 1331.22V1331.34L554.746 1335.68ZM549.064 1335V1327.56H550.627V1335H549.064ZM554.746 1322.77H540.201V1317.85C540.201 1316.71 540.395 1315.78 540.783 1315.05C541.167 1314.32 541.694 1313.78 542.367 1313.43C543.039 1313.08 543.804 1312.91 544.661 1312.91C545.518 1312.91 546.278 1313.08 546.941 1313.43C547.604 1313.78 548.124 1314.32 548.503 1315.04C548.877 1315.77 549.064 1316.69 549.064 1317.82V1321.8H547.473V1317.88C547.473 1317.1 547.36 1316.48 547.132 1316C546.905 1315.53 546.583 1315.18 546.167 1314.97C545.745 1314.75 545.243 1314.64 544.661 1314.64C544.078 1314.64 543.569 1314.75 543.134 1314.97C542.698 1315.18 542.362 1315.53 542.125 1316.01C541.884 1316.49 541.763 1317.12 541.763 1317.91V1321H554.746V1322.77ZM548.212 1315.92L554.746 1312.34V1314.38L548.212 1317.91V1315.92ZM554.746 1305.48V1309.97H540.201V1305.28C540.201 1303.87 540.492 1302.67 541.074 1301.66C541.652 1300.66 542.483 1299.89 543.567 1299.35C544.647 1298.82 545.939 1298.55 547.445 1298.55C548.96 1298.55 550.265 1298.82 551.358 1299.36C552.447 1299.9 553.285 1300.69 553.873 1301.72C554.455 1302.75 554.746 1304.01 554.746 1305.48ZM553.184 1308.21V1305.6C553.184 1304.39 552.952 1303.4 552.488 1302.61C552.024 1301.82 551.363 1301.23 550.506 1300.84C549.649 1300.45 548.629 1300.26 547.445 1300.26C546.271 1300.26 545.26 1300.45 544.412 1300.83C543.56 1301.21 542.907 1301.79 542.452 1302.55C541.993 1303.31 541.763 1304.26 541.763 1305.4V1308.21H553.184Z" /></svg>