
<svg width="595" height="1889" viewbox="0 0 595 1889" fill="none" xmlns="http://www.w3.org/2000/svg"><path id="MortyLabel" d="M342.723 1008.95V1007.9L348.76 1005.43V1005.35L342.723 1002.87V1001.82H349.996V1002.65H344.471V1002.72L349.996 1004.99V1005.79L344.471 1008.06V1008.13H349.996V1008.95H342.723ZM346.36 993.921C347.127 993.921 347.79 994.06 348.348 994.337C348.907 994.614 349.338 994.994 349.641 995.477C349.944 995.96 350.096 996.511 350.096 997.132C350.096 997.752 349.944 998.304 349.641 998.786C349.338 999.269 348.907 999.649 348.348 999.926C347.79 1000.2 347.127 1000.34 346.36 1000.34C345.593 1000.34 344.93 1000.2 344.371 999.926C343.812 999.649 343.382 999.269 343.078 998.786C342.775 998.304 342.624 997.752 342.624 997.132C342.624 996.511 342.775 995.96 343.078 995.477C343.382 994.994 343.812 994.614 344.371 994.337C344.93 994.06 345.593 993.921 346.36 993.921ZM346.36 994.774C345.73 994.774 345.199 994.879 344.765 995.09C344.332 995.298 344.004 995.581 343.782 995.938C343.559 996.294 343.448 996.691 343.448 997.132C343.448 997.572 343.559 997.971 343.782 998.328C344.004 998.684 344.332 998.966 344.765 999.177C345.199 999.385 345.73 999.49 346.36 999.49C346.989 999.49 347.521 999.385 347.954 999.177C348.387 998.966 348.715 998.684 348.938 998.328C349.16 997.971 349.272 997.572 349.272 997.132C349.272 996.691 349.16 996.294 348.938 995.938C348.715 995.581 348.387 995.298 347.954 995.09C347.521 994.879 346.989 994.774 346.36 994.774ZM349.996 992.441H342.723V989.983C342.723 989.415 342.82 988.949 343.015 988.584C343.206 988.219 343.47 987.95 343.806 987.774C344.143 987.599 344.525 987.512 344.953 987.512C345.382 987.512 345.762 987.599 346.093 987.774C346.425 987.95 346.685 988.218 346.875 988.581C347.062 988.943 347.155 989.406 347.155 989.969V991.958H346.36V989.997C346.36 989.609 346.303 989.297 346.189 989.06C346.076 988.821 345.915 988.648 345.706 988.541C345.496 988.433 345.245 988.378 344.953 988.378C344.662 988.378 344.408 988.433 344.19 988.541C343.972 988.65 343.804 988.824 343.686 989.063C343.565 989.303 343.505 989.619 343.505 990.012V991.56H349.996V992.441ZM346.729 989.017L349.996 987.228V988.25L346.729 990.012V989.017ZM343.505 986.442H342.723V980.987H343.505V983.274H349.996V984.155H343.505V986.442ZM342.723 980.253V979.245L346.118 977.228V977.142L342.723 975.125V974.117L346.999 976.745H349.996V977.625H346.999L342.723 980.253Z" /></svg>