
<svg width="595" height="1889" viewbox="0 0 595 1889" fill="none" xmlns="http://www.w3.org/2000/svg"><path id="MrKrabsLabel" d="M199.185 160.281L198.945 159.042L205.49 154.749L205.47 154.648L197.793 153.119L197.553 151.881L206.119 150.216L206.308 151.186L199.799 152.451L199.816 152.535L206.845 153.947L207.027 154.884L201.038 158.826L201.055 158.91L207.564 157.645L207.752 158.615L199.185 160.281ZM205.715 148.136L197.148 149.801L196.586 146.906C196.455 146.237 196.463 145.665 196.608 145.191C196.751 144.718 197 144.34 197.356 144.056C197.712 143.773 198.142 143.582 198.647 143.484C199.151 143.386 199.619 143.402 200.05 143.533C200.48 143.663 200.848 143.92 201.154 144.303C201.458 144.687 201.674 145.211 201.803 145.875L202.258 148.217L201.321 148.399L200.872 146.09C200.783 145.633 200.645 145.278 200.457 145.025C200.268 144.769 200.039 144.603 199.769 144.525C199.496 144.445 199.188 144.438 198.845 144.505C198.502 144.571 198.215 144.694 197.983 144.872C197.751 145.05 197.593 145.294 197.509 145.602C197.421 145.912 197.422 146.298 197.512 146.761L197.867 148.585L205.514 147.098L205.715 148.136ZM201.083 144.851L204.522 141.995L204.756 143.2L201.311 146.022L201.083 144.851ZM204.204 140.002C204.244 140.209 204.204 140.4 204.085 140.577C203.966 140.753 203.803 140.861 203.597 140.902C203.391 140.942 203.199 140.902 203.023 140.783C202.846 140.664 202.738 140.501 202.698 140.295C202.658 140.089 202.697 139.897 202.816 139.721C202.935 139.544 203.098 139.436 203.304 139.396C203.441 139.369 203.573 139.38 203.701 139.427C203.828 139.472 203.938 139.544 204.03 139.645C204.119 139.744 204.177 139.863 204.204 140.002ZM202.976 134.044L194.409 135.709L194.207 134.672L198.457 133.846L198.438 133.745L193.44 130.723L193.176 129.368L197.741 132.214L201.743 127.702L201.987 128.957L198.584 132.71L199.997 133.546L202.774 133.007L202.976 134.044ZM201.482 126.36L192.915 128.025L192.353 125.13C192.223 124.461 192.23 123.889 192.375 123.415C192.518 122.942 192.767 122.564 193.123 122.28C193.479 121.997 193.909 121.806 194.414 121.708C194.919 121.61 195.386 121.626 195.817 121.757C196.247 121.887 196.616 122.144 196.922 122.527C197.225 122.911 197.441 123.435 197.57 124.099L198.025 126.441L197.088 126.623L196.639 124.314C196.551 123.857 196.412 123.502 196.224 123.249C196.035 122.993 195.806 122.827 195.536 122.749C195.263 122.669 194.955 122.662 194.612 122.729C194.269 122.795 193.982 122.918 193.75 123.096C193.519 123.274 193.36 123.518 193.276 123.826C193.188 124.136 193.19 124.522 193.28 124.985L193.634 126.809L201.281 125.322L201.482 126.36ZM196.85 123.075L200.289 120.219L200.523 121.424L197.078 124.246L196.85 123.075ZM199.949 118.473L200.161 119.561L190.982 118.081L190.774 117.01L198.73 112.199L198.941 113.286L192.227 117.248L192.24 117.315L199.949 118.473ZM196.525 118.722L195.673 114.339L196.593 114.16L197.445 118.544L196.525 118.722ZM198.47 110.864L189.903 112.53L189.321 109.535C189.205 108.938 189.213 108.426 189.344 107.998C189.472 107.571 189.691 107.229 190 106.972C190.306 106.715 190.668 106.547 191.086 106.465C191.454 106.394 191.771 106.4 192.036 106.485C192.301 106.566 192.524 106.7 192.704 106.884C192.885 107.066 193.032 107.274 193.147 107.506L193.23 107.49C193.196 107.224 193.237 106.943 193.353 106.646C193.468 106.348 193.665 106.08 193.943 105.841C194.22 105.601 194.585 105.438 195.037 105.35C195.466 105.267 195.872 105.289 196.253 105.418C196.634 105.546 196.965 105.802 197.248 106.184C197.531 106.566 197.737 107.094 197.869 107.769L198.47 110.864ZM197.348 110.006L196.948 107.948C196.817 107.27 196.592 106.815 196.275 106.581C195.954 106.345 195.605 106.264 195.229 106.337C194.939 106.394 194.685 106.52 194.469 106.715C194.249 106.911 194.092 107.16 193.998 107.462C193.9 107.765 193.888 108.103 193.96 108.477L194.37 110.585L197.348 110.006ZM193.467 110.761L193.093 108.836C193.032 108.524 192.916 108.254 192.744 108.027C192.572 107.797 192.36 107.63 192.108 107.526C191.856 107.418 191.579 107.394 191.278 107.453C190.902 107.526 190.608 107.719 190.397 108.032C190.183 108.346 190.131 108.787 190.242 109.356L190.622 111.313L193.467 110.761ZM189.645 99.7671C189.231 99.8997 188.942 100.167 188.777 100.57C188.612 100.972 188.58 101.433 188.681 101.951C188.754 102.331 188.88 102.651 189.058 102.911C189.236 103.169 189.447 103.357 189.693 103.474C189.938 103.588 190.197 103.619 190.471 103.566C190.699 103.521 190.885 103.429 191.029 103.288C191.169 103.145 191.276 102.976 191.351 102.782C191.424 102.589 191.476 102.391 191.509 102.187C191.539 101.985 191.56 101.8 191.571 101.633L191.636 100.717C191.651 100.483 191.684 100.219 191.734 99.9255C191.783 99.6293 191.873 99.3384 192.003 99.0527C192.129 98.7648 192.314 98.5118 192.558 98.2936C192.802 98.0754 193.125 97.9272 193.527 97.8492C193.99 97.7592 194.432 97.7992 194.852 97.9692C195.273 98.1364 195.638 98.43 195.948 98.8501C196.258 99.2674 196.477 99.8051 196.605 100.463C196.724 101.077 196.728 101.627 196.618 102.115C196.506 102.599 196.299 103.004 195.994 103.33C195.689 103.653 195.306 103.876 194.844 104.001L194.636 102.93C194.954 102.839 195.201 102.678 195.376 102.447C195.547 102.214 195.656 101.941 195.703 101.628C195.746 101.313 195.734 100.986 195.668 100.645C195.591 100.249 195.458 99.9063 195.268 99.6161C195.076 99.3265 194.846 99.1121 194.579 98.9731C194.309 98.8346 194.018 98.7956 193.705 98.8564C193.421 98.9117 193.205 99.0361 193.057 99.2298C192.91 99.4234 192.805 99.6608 192.744 99.9418C192.683 100.223 192.64 100.522 192.615 100.84L192.518 101.952C192.456 102.659 192.284 103.242 192.003 103.702C191.722 104.162 191.293 104.448 190.716 104.56C190.236 104.653 189.793 104.605 189.385 104.415C188.975 104.223 188.627 103.925 188.344 103.523C188.057 103.119 187.86 102.643 187.754 102.097C187.647 101.545 187.65 101.035 187.765 100.567C187.876 100.099 188.078 99.7071 188.37 99.3899C188.66 99.07 189.021 98.8611 189.45 98.7631L189.645 99.7671Z" /></svg>