
<svg width="595" height="1889" viewbox="0 0 595 1889" fill="none" xmlns="http://www.w3.org/2000/svg"><path id="NymeriaLabel" d="M238.473 662.314H245.746V663.166L240.036 667.13V667.201H245.746V668.081H238.473V667.229L244.198 663.252V663.181H238.473V662.314ZM238.473 661.177V660.168L241.868 658.151V658.066L238.473 656.049V655.041L242.749 657.668H245.746V658.549H242.749L238.473 661.177ZM238.473 653.902V652.85L244.51 650.379V650.294L238.473 647.822V646.771H245.746V647.595H240.221V647.666L245.746 649.938V650.734L240.221 653.007V653.078H245.746V653.902H238.473ZM245.746 645.005H238.473V640.616H239.255V644.124H241.712V640.843H242.493V644.124H244.965V640.559H245.746V645.005ZM245.746 639.028H238.473V636.571C238.473 636.003 238.57 635.537 238.765 635.172C238.956 634.807 239.22 634.537 239.556 634.362C239.893 634.187 240.275 634.1 240.703 634.1C241.132 634.1 241.512 634.187 241.843 634.362C242.175 634.537 242.435 634.806 242.625 635.168C242.812 635.531 242.905 635.993 242.905 636.557V638.546H242.11V636.585C242.11 636.197 242.053 635.885 241.939 635.648C241.826 635.409 241.665 635.236 241.456 635.129C241.246 635.02 240.995 634.966 240.703 634.966C240.412 634.966 240.158 635.02 239.94 635.129C239.722 635.238 239.554 635.412 239.436 635.651C239.315 635.89 239.255 636.207 239.255 636.6V638.148H245.746V639.028ZM242.479 635.605L245.746 633.815V634.838L242.479 636.6V635.605ZM238.473 631.751H245.746V632.632H238.473V631.751ZM245.746 629.687V630.611L238.473 627.94V627.031L245.746 624.361V625.284L239.624 627.457V627.514L245.746 629.687ZM242.905 629.346V625.625H243.686V629.346H242.905Z" /></svg>