
<svg width="595" height="1889" viewbox="0 0 595 1889" fill="none" xmlns="http://www.w3.org/2000/svg"><path id="OuterspaceLabel" d="M127.11 593.81C127.877 593.81 128.54 593.949 129.098 594.226C129.657 594.503 130.088 594.883 130.391 595.366C130.694 595.848 130.846 596.4 130.846 597.02C130.846 597.641 130.694 598.192 130.391 598.675C130.088 599.158 129.657 599.538 129.098 599.815C128.54 600.092 127.877 600.231 127.11 600.231C126.343 600.231 125.68 600.092 125.121 599.815C124.562 599.538 124.132 599.158 123.828 598.675C123.525 598.192 123.374 597.641 123.374 597.02C123.374 596.4 123.525 595.848 123.828 595.366C124.132 594.883 124.562 594.503 125.121 594.226C125.68 593.949 126.343 593.81 127.11 593.81ZM127.11 594.662C126.48 594.662 125.949 594.768 125.515 594.978C125.082 595.187 124.754 595.47 124.532 595.827C124.309 596.182 124.198 596.58 124.198 597.02C124.198 597.461 124.309 597.86 124.532 598.217C124.754 598.572 125.082 598.855 125.515 599.066C125.949 599.274 126.48 599.378 127.11 599.378C127.739 599.378 128.271 599.274 128.704 599.066C129.137 598.855 129.465 598.572 129.688 598.217C129.91 597.86 130.022 597.461 130.022 597.02C130.022 596.58 129.91 596.182 129.688 595.827C129.465 595.47 129.137 595.187 128.704 594.978C128.271 594.768 127.739 594.662 127.11 594.662ZM123.473 587.557V586.676H128.289C128.786 586.676 129.23 586.793 129.62 587.027C130.009 587.259 130.315 587.587 130.54 588.011C130.763 588.435 130.874 588.932 130.874 589.503C130.874 590.073 130.763 590.57 130.54 590.994C130.315 591.418 130.009 591.747 129.62 591.981C129.23 592.213 128.786 592.329 128.289 592.329H123.473V591.449H128.218C128.573 591.449 128.889 591.37 129.166 591.214C129.44 591.058 129.657 590.835 129.816 590.547C129.972 590.255 130.05 589.907 130.05 589.503C130.05 589.098 129.972 588.75 129.816 588.459C129.657 588.167 129.44 587.945 129.166 587.791C128.889 587.635 128.573 587.557 128.218 587.557H123.473ZM124.255 585.315H123.473V579.86H124.255V582.147H130.746V583.028H124.255V585.315ZM130.746 578.501H123.473V574.112H124.255V577.62H126.712V574.339H127.493V577.62H129.965V574.055H130.746V578.501ZM130.746 572.525H123.473V570.067C123.473 569.499 123.57 569.033 123.765 568.668C123.956 568.303 124.22 568.034 124.556 567.858C124.893 567.683 125.275 567.596 125.703 567.596C126.132 567.596 126.512 567.683 126.843 567.858C127.175 568.034 127.435 568.302 127.625 568.665C127.812 569.027 127.905 569.49 127.905 570.053V572.042H127.11V570.081C127.11 569.693 127.053 569.381 126.939 569.144C126.826 568.905 126.665 568.732 126.456 568.625C126.246 568.517 125.995 568.462 125.703 568.462C125.412 568.462 125.158 568.517 124.94 568.625C124.722 568.734 124.554 568.908 124.436 569.147C124.315 569.387 124.255 569.703 124.255 570.096V571.644H130.746V572.525ZM127.479 569.101L130.746 567.312V568.334L127.479 570.096V569.101ZM125.292 562.151C124.932 562.193 124.652 562.366 124.453 562.669C124.255 562.972 124.155 563.344 124.155 563.784C124.155 564.106 124.207 564.388 124.311 564.63C124.416 564.869 124.559 565.056 124.741 565.191C124.923 565.323 125.131 565.389 125.363 565.389C125.557 565.389 125.724 565.343 125.863 565.251C126.001 565.156 126.115 565.036 126.208 564.889C126.298 564.742 126.372 564.588 126.431 564.427C126.488 564.266 126.534 564.118 126.57 563.983L126.769 563.245C126.819 563.055 126.887 562.844 126.975 562.612C127.062 562.378 127.182 562.154 127.333 561.941C127.483 561.726 127.674 561.548 127.909 561.409C128.143 561.269 128.431 561.199 128.772 561.199C129.165 561.199 129.52 561.302 129.837 561.508C130.154 561.712 130.406 562.01 130.593 562.403C130.78 562.794 130.874 563.268 130.874 563.827C130.874 564.348 130.79 564.799 130.622 565.18C130.454 565.559 130.219 565.857 129.919 566.075C129.618 566.29 129.269 566.412 128.871 566.441V565.532C129.146 565.508 129.373 565.416 129.553 565.255C129.73 565.091 129.863 564.885 129.951 564.637C130.036 564.386 130.078 564.116 130.078 563.827C130.078 563.491 130.024 563.189 129.915 562.921C129.804 562.654 129.65 562.442 129.453 562.286C129.255 562.13 129.023 562.051 128.757 562.051C128.516 562.051 128.319 562.119 128.168 562.254C128.016 562.389 127.893 562.566 127.799 562.786C127.704 563.007 127.621 563.245 127.55 563.5L127.294 564.395C127.131 564.963 126.898 565.413 126.595 565.745C126.292 566.076 125.895 566.242 125.405 566.242C124.998 566.242 124.643 566.132 124.34 565.911C124.034 565.689 123.798 565.391 123.63 565.017C123.459 564.64 123.374 564.22 123.374 563.756C123.374 563.287 123.458 562.871 123.626 562.506C123.792 562.141 124.019 561.853 124.308 561.639C124.597 561.424 124.925 561.31 125.292 561.299V562.151ZM130.746 559.751H123.473V557.294C123.473 556.723 123.576 556.257 123.782 555.895C123.986 555.53 124.262 555.26 124.61 555.085C124.958 554.91 125.346 554.822 125.775 554.822C126.203 554.822 126.592 554.91 126.943 555.085C127.293 555.258 127.573 555.525 127.781 555.888C127.987 556.25 128.09 556.714 128.09 557.28V559.041H127.309V557.308C127.309 556.917 127.241 556.604 127.106 556.367C126.971 556.13 126.789 555.959 126.559 555.852C126.327 555.743 126.066 555.689 125.775 555.689C125.483 555.689 125.223 555.743 124.993 555.852C124.764 555.959 124.584 556.131 124.453 556.37C124.321 556.61 124.255 556.927 124.255 557.322V558.87H130.746V559.751ZM130.746 553.847V554.771L123.473 552.1V551.191L130.746 548.521V549.444L124.624 551.617V551.674L130.746 553.847ZM127.905 553.506V549.785H128.686V553.506H127.905ZM125.746 541.877V542.758C125.493 542.81 125.27 542.901 125.078 543.032C124.887 543.159 124.726 543.316 124.596 543.5C124.463 543.683 124.364 543.885 124.297 544.108C124.231 544.33 124.198 544.562 124.198 544.804C124.198 545.244 124.309 545.643 124.532 546C124.754 546.355 125.082 546.638 125.515 546.849C125.949 547.057 126.48 547.161 127.11 547.161C127.739 547.161 128.271 547.057 128.704 546.849C129.137 546.638 129.465 546.355 129.688 546C129.91 545.643 130.022 545.244 130.022 544.804C130.022 544.562 129.989 544.33 129.922 544.108C129.856 543.885 129.758 543.683 129.627 543.5C129.495 543.316 129.333 543.159 129.141 543.032C128.947 542.901 128.724 542.81 128.473 542.758V541.877C128.845 541.944 129.178 542.064 129.471 542.24C129.765 542.415 130.015 542.633 130.221 542.893C130.424 543.153 130.579 543.446 130.686 543.77C130.792 544.092 130.846 544.437 130.846 544.804C130.846 545.424 130.694 545.975 130.391 546.458C130.088 546.941 129.657 547.321 129.098 547.598C128.54 547.875 127.877 548.014 127.11 548.014C126.343 548.014 125.68 547.875 125.121 547.598C124.562 547.321 124.132 546.941 123.828 546.458C123.525 545.975 123.374 545.424 123.374 544.804C123.374 544.437 123.427 544.092 123.534 543.77C123.64 543.446 123.797 543.153 124.002 542.893C124.206 542.633 124.455 542.415 124.748 542.24C125.039 542.064 125.372 541.944 125.746 541.877ZM130.746 540.454H123.473V536.065H124.255V539.574H126.712V536.292H127.493V539.574H129.965V536.008H130.746V540.454Z" /></svg>