
<svg width="595" height="1889" viewbox="0 0 595 1889" fill="none" xmlns="http://www.w3.org/2000/svg"><path id="PaperLabel" d="M554.746 1646.77H540.201V1641.85C540.201 1640.71 540.407 1639.78 540.819 1639.05C541.226 1638.32 541.777 1637.78 542.473 1637.43C543.169 1637.08 543.946 1636.91 544.803 1636.91C545.66 1636.91 546.439 1637.08 547.14 1637.43C547.84 1637.78 548.399 1638.31 548.816 1639.04C549.228 1639.76 549.434 1640.69 549.434 1641.82V1645.34H547.871V1641.88C547.871 1641.1 547.736 1640.47 547.466 1640C547.196 1639.52 546.832 1639.18 546.373 1638.97C545.908 1638.75 545.385 1638.64 544.803 1638.64C544.221 1638.64 543.7 1638.75 543.24 1638.97C542.781 1639.18 542.421 1639.53 542.161 1640C541.896 1640.48 541.763 1641.12 541.763 1641.91V1645H554.746V1646.77ZM554.746 1634.96V1636.8L540.201 1631.46V1629.64L554.746 1624.3V1626.15L542.502 1630.5V1630.61L554.746 1634.96ZM549.064 1634.28V1626.83H550.627V1634.28H549.064ZM554.746 1622.04H540.201V1617.12C540.201 1615.98 540.407 1615.05 540.819 1614.33C541.226 1613.6 541.777 1613.06 542.473 1612.71C543.169 1612.36 543.946 1612.18 544.803 1612.18C545.66 1612.18 546.439 1612.36 547.14 1612.71C547.84 1613.05 548.399 1613.59 548.816 1614.31C549.228 1615.04 549.434 1615.96 549.434 1617.1V1620.62H547.871V1617.15C547.871 1616.37 547.736 1615.74 547.466 1615.27C547.196 1614.8 546.832 1614.45 546.373 1614.24C545.908 1614.02 545.385 1613.91 544.803 1613.91C544.221 1613.91 543.7 1614.02 543.24 1614.24C542.781 1614.45 542.421 1614.8 542.161 1615.28C541.896 1615.76 541.763 1616.39 541.763 1617.18V1620.28H554.746V1622.04ZM554.746 1609.34H540.201V1600.56H541.763V1607.58H546.678V1601.02H548.24V1607.58H553.184V1600.45H554.746V1609.34ZM554.746 1597.39H540.201V1592.48C540.201 1591.34 540.395 1590.41 540.783 1589.68C541.167 1588.95 541.694 1588.41 542.367 1588.06C543.039 1587.71 543.804 1587.53 544.661 1587.53C545.518 1587.53 546.278 1587.71 546.941 1588.06C547.604 1588.41 548.124 1588.95 548.503 1589.67C548.877 1590.39 549.064 1591.32 549.064 1592.45V1596.42H547.473V1592.5C547.473 1591.73 547.36 1591.1 547.132 1590.63C546.905 1590.15 546.583 1589.8 546.167 1589.59C545.745 1589.37 545.243 1589.27 544.661 1589.27C544.078 1589.27 543.569 1589.37 543.134 1589.59C542.698 1589.81 542.362 1590.16 542.125 1590.64C541.884 1591.11 541.763 1591.75 541.763 1592.53V1595.63H554.746V1597.39ZM548.212 1590.54L554.746 1586.96V1589.01L548.212 1592.53V1590.54Z" /></svg>