
<svg width="595" height="1889" viewbox="0 0 595 1889" fill="none" xmlns="http://www.w3.org/2000/svg"><path id="PatrickLabel" d="M104.386 170.763L95.8195 172.428L95.2569 169.533C95.1262 168.861 95.1408 168.288 95.3004 167.814C95.4568 167.338 95.7199 166.957 96.0897 166.671C96.4595 166.385 96.8968 166.193 97.4016 166.095C97.9063 165.997 98.3851 166.011 98.838 166.137C99.2903 166.26 99.6806 166.512 100.009 166.89C100.335 167.27 100.562 167.793 100.692 168.46L101.095 170.534L100.175 170.713L99.7778 168.672C99.6884 168.212 99.5371 167.858 99.3239 167.61C99.1108 167.362 98.8567 167.201 98.5618 167.128C98.2636 167.053 97.943 167.049 97.6 167.116C97.257 167.182 96.9627 167.306 96.7171 167.487C96.471 167.665 96.2986 167.91 96.2 168.221C96.0986 168.533 96.0931 168.922 96.1837 169.388L96.5382 171.212L104.185 169.725L104.386 170.763ZM103.035 163.808L103.246 164.896L94.0677 163.416L93.8595 162.345L101.815 157.534L102.026 158.621L95.3124 162.583L95.3254 162.65L103.035 163.808ZM99.6102 164.057L98.758 159.673L99.6783 159.495L100.53 163.878L99.6102 164.057ZM94.1946 159.155L93.2743 159.334L92.0254 152.909L92.9457 152.73L93.4693 155.424L101.116 153.937L101.318 154.975L93.6709 156.461L94.1946 159.155ZM100.281 149.642L91.7142 151.308L91.1515 148.413C91.0214 147.744 91.0289 147.172 91.1741 146.698C91.3166 146.225 91.5657 145.846 91.9216 145.563C92.2775 145.28 92.7078 145.089 93.2125 144.991C93.7173 144.893 94.1849 144.909 94.6155 145.039C95.046 145.17 95.4143 145.427 95.7203 145.81C96.0236 146.194 96.2397 146.718 96.3687 147.381L96.8241 149.724L95.887 149.906L95.4382 147.597C95.3493 147.14 95.2108 146.785 95.0228 146.532C94.8342 146.276 94.605 146.109 94.3352 146.032C94.062 145.952 93.754 145.945 93.4109 146.012C93.0679 146.078 92.7806 146.201 92.549 146.379C92.3174 146.557 92.1592 146.8 92.0745 147.109C91.987 147.419 91.9883 147.805 92.0783 148.268L92.4328 150.091L100.079 148.605L100.281 149.642ZM95.6488 146.358L99.0875 143.502L99.3216 144.706L95.8765 147.529L95.6488 146.358ZM90.0479 142.735L98.6148 141.07L98.8165 142.108L90.2496 143.773L90.0479 142.735ZM90.9808 133.241L91.1824 134.279C90.8959 134.398 90.6547 134.556 90.4586 134.754C90.262 134.948 90.1081 135.169 89.997 135.416C89.8826 135.662 89.8118 135.923 89.7847 136.2C89.7576 136.477 89.7716 136.758 89.8269 137.043C89.9278 137.561 90.1502 138.006 90.4942 138.376C90.8376 138.743 91.2886 139.002 91.8472 139.151C92.4052 139.297 93.0552 139.298 93.797 139.154C94.5388 139.009 95.141 138.765 95.6036 138.42C96.0657 138.073 96.3872 137.665 96.568 137.195C96.7483 136.723 96.788 136.228 96.6872 135.709C96.6319 135.425 96.5397 135.159 96.4107 134.912C96.2816 134.665 96.1196 134.449 95.9244 134.264C95.726 134.077 95.4992 133.93 95.244 133.824C94.9855 133.715 94.7025 133.658 94.395 133.654L94.1934 132.617C94.6464 132.61 95.0658 132.676 95.4517 132.815C95.8376 132.954 96.1817 133.154 96.484 133.413C96.7834 133.673 97.033 133.982 97.2328 134.34C97.432 134.695 97.5736 135.088 97.6576 135.521C97.7997 136.251 97.7475 136.936 97.5011 137.574C97.2547 138.212 96.8342 138.759 96.2395 139.213C95.6448 139.667 94.8956 139.982 93.9921 140.157C93.0886 140.333 92.276 140.322 91.5545 140.123C90.8329 139.925 90.2383 139.576 89.7708 139.077C89.3033 138.577 88.9985 137.962 88.8565 137.231C88.7724 136.799 88.7563 136.381 88.8081 135.978C88.8593 135.571 88.9764 135.191 89.1594 134.837C89.3396 134.484 89.5826 134.17 89.8883 133.897C90.1911 133.623 90.5553 133.405 90.9808 133.241ZM96.5447 130.42L87.9777 132.085L87.7761 131.048L92.0261 130.222L92.0066 130.121L87.0085 127.099L86.7451 125.744L91.3095 128.59L95.312 124.079L95.5559 125.334L92.1526 129.086L93.5655 129.923L96.343 129.383L96.5447 130.42Z" /></svg>