
<svg width="595" height="1889" viewbox="0 0 595 1889" fill="none" xmlns="http://www.w3.org/2000/svg"><path id="PeaceLabel" d="M192.746 929.413H185.473V926.955C185.473 926.385 185.576 925.918 185.782 925.556C185.986 925.192 186.262 924.922 186.61 924.747C186.958 924.571 187.346 924.484 187.775 924.484C188.203 924.484 188.592 924.571 188.943 924.747C189.293 924.919 189.573 925.187 189.781 925.549C189.987 925.911 190.09 926.375 190.09 926.941V928.703H189.309V926.97C189.309 926.579 189.241 926.265 189.106 926.029C188.971 925.792 188.789 925.62 188.559 925.514C188.327 925.405 188.066 925.35 187.775 925.35C187.483 925.35 187.223 925.405 186.993 925.514C186.764 925.62 186.584 925.793 186.453 926.032C186.321 926.271 186.255 926.588 186.255 926.984V928.532H192.746V929.413ZM192.746 923.065H185.473V918.676H186.255V922.184H188.712V918.903H189.493V922.184H191.965V918.619H192.746V923.065ZM192.746 916.79V917.714L185.473 915.043V914.134L192.746 911.464V912.387L186.624 914.56V914.617L192.746 916.79ZM189.905 916.449V912.728H190.686V916.449H189.905ZM187.746 904.82V905.701C187.493 905.753 187.27 905.844 187.078 905.974C186.887 906.102 186.726 906.258 186.596 906.443C186.463 906.625 186.364 906.828 186.297 907.05C186.231 907.273 186.198 907.505 186.198 907.746C186.198 908.187 186.309 908.586 186.532 908.943C186.754 909.298 187.082 909.581 187.515 909.792C187.949 910 188.48 910.104 189.11 910.104C189.739 910.104 190.271 910 190.704 909.792C191.137 909.581 191.465 909.298 191.688 908.943C191.91 908.586 192.022 908.187 192.022 907.746C192.022 907.505 191.989 907.273 191.922 907.05C191.856 906.828 191.758 906.625 191.627 906.443C191.495 906.258 191.333 906.102 191.141 905.974C190.947 905.844 190.724 905.753 190.473 905.701V904.82C190.845 904.887 191.178 905.007 191.471 905.182C191.765 905.358 192.015 905.575 192.221 905.836C192.424 906.096 192.579 906.389 192.686 906.713C192.792 907.035 192.846 907.379 192.846 907.746C192.846 908.367 192.694 908.918 192.391 909.401C192.088 909.884 191.657 910.264 191.098 910.541C190.54 910.818 189.877 910.957 189.11 910.957C188.343 910.957 187.68 910.818 187.121 910.541C186.562 910.264 186.132 909.884 185.828 909.401C185.525 908.918 185.374 908.367 185.374 907.746C185.374 907.379 185.427 907.035 185.534 906.713C185.64 906.389 185.797 906.096 186.002 905.836C186.206 905.575 186.455 905.358 186.748 905.182C187.039 905.007 187.372 904.887 187.746 904.82ZM192.746 903.397H185.473V899.008H186.255V902.516H188.712V899.235H189.493V902.516H191.965V898.951H192.746V903.397Z" /></svg>