
<svg width="595" height="1889" viewbox="0 0 595 1889" fill="none" xmlns="http://www.w3.org/2000/svg"><path id="PlanktonLabel" d="M259.443 149.106L250.876 150.772L250.314 147.877C250.183 147.205 250.197 146.632 250.357 146.158C250.513 145.682 250.777 145.301 251.146 145.015C251.516 144.729 251.953 144.537 252.458 144.439C252.963 144.341 253.442 144.355 253.895 144.481C254.347 144.604 254.737 144.855 255.066 145.234C255.391 145.614 255.619 146.137 255.748 146.803L256.152 148.878L255.231 149.057L254.834 147.016C254.745 146.555 254.594 146.201 254.381 145.953C254.167 145.705 253.913 145.545 253.618 145.472C253.32 145.397 253 145.393 252.657 145.459C252.314 145.526 252.019 145.65 251.774 145.831C251.528 146.009 251.355 146.254 251.257 146.565C251.155 146.877 251.15 147.266 251.24 147.732L251.595 149.555L259.241 148.069L259.443 149.106ZM257.99 141.629L249.423 143.294L249.221 142.257L256.868 140.771L256.094 136.788L257.014 136.61L257.99 141.629ZM256.528 134.111L256.74 135.199L247.561 133.718L247.353 132.648L255.309 127.837L255.52 128.924L248.806 132.886L248.819 132.953L256.528 134.111ZM253.104 134.36L252.252 129.976L253.172 129.797L254.024 134.181L253.104 134.36ZM245.162 121.374L253.729 119.709L253.924 120.713L248.105 126.689L248.121 126.772L254.848 125.465L255.049 126.502L246.482 128.167L246.287 127.164L252.12 121.168L252.103 121.084L245.36 122.395L245.162 121.374ZM253.325 117.633L244.758 119.298L244.557 118.261L248.807 117.435L248.787 117.334L243.789 114.312L243.526 112.957L248.09 115.803L252.093 111.292L252.337 112.546L248.933 116.299L250.346 117.136L253.124 116.596L253.325 117.633ZM244.276 111.904L243.356 112.083L242.107 105.657L243.027 105.478L243.551 108.172L251.197 106.686L251.399 107.723L243.752 109.21L244.276 111.904ZM244.743 96.3519C245.647 96.1763 246.459 96.1876 247.181 96.386C247.903 96.5843 248.497 96.9332 248.965 97.4328C249.432 97.9323 249.737 98.5473 249.879 99.278C250.021 100.009 249.969 100.693 249.722 101.331C249.476 101.97 249.056 102.516 248.461 102.97C247.866 103.424 247.117 103.739 246.213 103.915C245.31 104.091 244.497 104.079 243.776 103.881C243.054 103.682 242.46 103.334 241.992 102.834C241.525 102.334 241.22 101.719 241.078 100.989C240.936 100.258 240.988 99.5737 241.234 98.9354C241.481 98.2971 241.901 97.7509 242.496 97.2966C243.091 96.8424 243.84 96.5275 244.743 96.3519ZM244.938 97.3558C244.197 97.5 243.595 97.7458 243.133 98.0932C242.67 98.4378 242.349 98.8461 242.168 99.3182C241.987 99.7874 241.947 100.281 242.048 100.8C242.149 101.319 242.372 101.763 242.716 102.133C243.059 102.501 243.51 102.759 244.069 102.908C244.627 103.054 245.276 103.055 246.018 102.911C246.76 102.767 247.362 102.522 247.825 102.178C248.287 101.83 248.608 101.422 248.789 100.953C248.97 100.481 249.009 99.9853 248.909 99.4666C248.808 98.9479 248.586 98.5049 248.242 98.1376C247.898 97.7674 247.447 97.5092 246.889 97.363C246.33 97.214 245.68 97.2116 244.938 97.3558ZM238.8 88.6469L247.367 86.9816L247.562 87.9856L241.743 93.9613L241.76 94.045L248.486 92.7375L248.688 93.7749L240.121 95.4402L239.926 94.4362L245.758 88.4405L245.742 88.3568L238.999 89.6675L238.8 88.6469Z" /></svg>