
<svg width="595" height="1889" viewbox="0 0 595 1889" fill="none" xmlns="http://www.w3.org/2000/svg"><path id="R2Label" d="M504.105 289.858V275.313H509.02C510.156 275.313 511.089 275.507 511.818 275.895C512.547 276.279 513.087 276.807 513.438 277.479C513.788 278.151 513.963 278.916 513.963 279.773C513.963 280.63 513.788 281.39 513.438 282.053C513.087 282.716 512.55 283.237 511.825 283.616C511.101 283.99 510.175 284.177 509.048 284.177H505.071V282.586H508.991C509.768 282.586 510.393 282.472 510.866 282.245C511.345 282.017 511.69 281.696 511.903 281.279C512.121 280.857 512.23 280.356 512.23 279.773C512.23 279.191 512.121 278.682 511.903 278.246C511.686 277.811 511.338 277.474 510.859 277.238C510.381 276.996 509.749 276.875 508.963 276.875H505.866V289.858H504.105ZM510.952 283.324L514.531 289.858H512.486L508.963 283.324H510.952ZM516.642 289.858V288.58L521.444 283.324C522.007 282.709 522.471 282.174 522.836 281.719C523.2 281.26 523.47 280.829 523.645 280.427C523.825 280.019 523.915 279.593 523.915 279.148C523.915 278.637 523.792 278.194 523.546 277.82C523.304 277.446 522.973 277.157 522.551 276.954C522.13 276.75 521.657 276.648 521.131 276.648C520.572 276.648 520.085 276.764 519.668 276.996C519.256 277.223 518.936 277.543 518.709 277.955C518.487 278.367 518.375 278.85 518.375 279.404H516.699C516.699 278.552 516.896 277.803 517.289 277.16C517.682 276.516 518.217 276.014 518.894 275.654C519.576 275.294 520.34 275.114 521.188 275.114C522.04 275.114 522.795 275.294 523.453 275.654C524.112 276.014 524.628 276.499 525.002 277.11C525.376 277.721 525.563 278.4 525.563 279.148C525.563 279.683 525.466 280.206 525.272 280.718C525.082 281.224 524.751 281.79 524.277 282.415C523.809 283.035 523.158 283.793 522.324 284.688L519.057 288.182V288.296H525.819V289.858H516.642Z" /></svg>