
<svg width="595" height="1889" viewbox="0 0 595 1889" fill="none" xmlns="http://www.w3.org/2000/svg"><path id="RickLabel" d="M403.746 1002.32H396.473V999.862C396.473 999.294 396.57 998.828 396.765 998.463C396.956 998.098 397.22 997.829 397.556 997.653C397.893 997.478 398.275 997.391 398.703 997.391C399.132 997.391 399.512 997.478 399.843 997.653C400.175 997.829 400.435 998.097 400.625 998.459C400.812 998.822 400.905 999.284 400.905 999.848V1001.84H400.11V999.876C400.11 999.488 400.053 999.176 399.939 998.939C399.826 998.7 399.665 998.527 399.456 998.42C399.246 998.311 398.995 998.257 398.703 998.257C398.412 998.257 398.158 998.311 397.94 998.42C397.722 998.529 397.554 998.703 397.436 998.942C397.315 999.181 397.255 999.498 397.255 999.891V1001.44H403.746V1002.32ZM400.479 998.896L403.746 997.106V998.129L400.479 999.891V998.896ZM396.473 995.042H403.746V995.923H396.473V995.042ZM398.746 987.424V988.305C398.493 988.357 398.27 988.448 398.078 988.578C397.887 988.706 397.726 988.862 397.596 989.047C397.463 989.229 397.364 989.432 397.297 989.654C397.231 989.877 397.198 990.109 397.198 990.35C397.198 990.791 397.309 991.19 397.532 991.547C397.754 991.902 398.082 992.185 398.515 992.396C398.949 992.604 399.48 992.708 400.11 992.708C400.739 992.708 401.271 992.604 401.704 992.396C402.137 992.185 402.465 991.902 402.688 991.547C402.91 991.19 403.022 990.791 403.022 990.35C403.022 990.109 402.989 989.877 402.922 989.654C402.856 989.432 402.758 989.229 402.627 989.047C402.495 988.862 402.333 988.706 402.141 988.578C401.947 988.448 401.724 988.357 401.473 988.305V987.424C401.845 987.491 402.178 987.611 402.471 987.786C402.765 987.962 403.015 988.179 403.221 988.44C403.424 988.7 403.579 988.993 403.686 989.317C403.792 989.639 403.846 989.983 403.846 990.35C403.846 990.971 403.694 991.522 403.391 992.005C403.088 992.488 402.657 992.868 402.098 993.145C401.54 993.422 400.877 993.561 400.11 993.561C399.343 993.561 398.68 993.422 398.121 993.145C397.562 992.868 397.132 992.488 396.828 992.005C396.525 991.522 396.374 990.971 396.374 990.35C396.374 989.983 396.427 989.639 396.534 989.317C396.64 988.993 396.797 988.7 397.002 988.44C397.206 988.179 397.455 987.962 397.748 987.786C398.039 987.611 398.372 987.491 398.746 987.424ZM403.746 986.001H396.473V985.12H400.081V985.035L396.473 981.768V980.618L399.755 983.672L403.746 980.618V981.683L400.365 984.211L401.388 985.12H403.746V986.001Z" /></svg>