
<svg width="595" height="1889" viewbox="0 0 595 1889" fill="none" xmlns="http://www.w3.org/2000/svg"><path id="RockLabel" d="M554.746 1791.22H540.201V1786.31C540.201 1785.17 540.395 1784.24 540.783 1783.51C541.167 1782.78 541.694 1782.24 542.367 1781.89C543.039 1781.54 543.804 1781.36 544.661 1781.36C545.518 1781.36 546.278 1781.54 546.941 1781.89C547.604 1782.24 548.124 1782.78 548.503 1783.5C548.877 1784.23 549.064 1785.15 549.064 1786.28V1790.26H547.473V1786.34C547.473 1785.56 547.36 1784.93 547.132 1784.46C546.905 1783.98 546.583 1783.64 546.167 1783.42C545.745 1783.21 545.243 1783.1 544.661 1783.1C544.078 1783.1 543.569 1783.21 543.134 1783.42C542.698 1783.64 542.362 1783.99 542.125 1784.47C541.884 1784.95 541.763 1785.58 541.763 1786.36V1789.46H554.746V1791.22ZM548.212 1784.38L554.746 1780.8V1782.84L548.212 1786.36V1784.38ZM547.473 1766.16C549.007 1766.16 550.333 1766.43 551.451 1766.99C552.568 1767.54 553.43 1768.3 554.036 1769.27C554.642 1770.23 554.945 1771.34 554.945 1772.58C554.945 1773.82 554.642 1774.92 554.036 1775.89C553.43 1776.85 552.568 1777.61 551.451 1778.17C550.333 1778.72 549.007 1779 547.473 1779C545.939 1779 544.614 1778.72 543.496 1778.17C542.379 1777.61 541.517 1776.85 540.911 1775.89C540.305 1774.92 540.002 1773.82 540.002 1772.58C540.002 1771.34 540.305 1770.23 540.911 1769.27C541.517 1768.3 542.379 1767.54 543.496 1766.99C544.614 1766.43 545.939 1766.16 547.473 1766.16ZM547.473 1767.86C546.214 1767.86 545.151 1768.07 544.284 1768.49C543.418 1768.91 542.762 1769.48 542.317 1770.19C541.872 1770.9 541.65 1771.7 541.65 1772.58C541.65 1773.46 541.872 1774.26 542.317 1774.97C542.762 1775.68 543.418 1776.25 544.284 1776.67C545.151 1777.08 546.214 1777.29 547.473 1777.29C548.733 1777.29 549.796 1777.08 550.662 1776.67C551.529 1776.25 552.185 1775.68 552.63 1774.97C553.075 1774.26 553.297 1773.46 553.297 1772.58C553.297 1771.7 553.075 1770.9 552.63 1770.19C552.185 1769.48 551.529 1768.91 550.662 1768.49C549.796 1768.07 548.733 1767.86 547.473 1767.86ZM544.746 1751.49V1753.25C544.239 1753.36 543.794 1753.54 543.411 1753.8C543.027 1754.05 542.705 1754.37 542.445 1754.74C542.18 1755.1 541.981 1755.51 541.848 1755.95C541.716 1756.4 541.65 1756.86 541.65 1757.34C541.65 1758.22 541.872 1759.02 542.317 1759.74C542.762 1760.45 543.418 1761.01 544.284 1761.43C545.151 1761.85 546.214 1762.06 547.473 1762.06C548.733 1762.06 549.796 1761.85 550.662 1761.43C551.529 1761.01 552.185 1760.45 552.63 1759.74C553.075 1759.02 553.297 1758.22 553.297 1757.34C553.297 1756.86 553.231 1756.4 553.098 1755.95C552.966 1755.51 552.769 1755.1 552.509 1754.74C552.244 1754.37 551.919 1754.05 551.536 1753.8C551.148 1753.54 550.703 1753.36 550.201 1753.25V1751.49C550.944 1751.62 551.609 1751.86 552.196 1752.21C552.783 1752.56 553.283 1753 553.695 1753.52C554.102 1754.04 554.412 1754.63 554.625 1755.28C554.838 1755.92 554.945 1756.61 554.945 1757.34C554.945 1758.58 554.642 1759.69 554.036 1760.65C553.43 1761.62 552.568 1762.38 551.451 1762.93C550.333 1763.49 549.007 1763.76 547.473 1763.76C545.939 1763.76 544.614 1763.49 543.496 1762.93C542.379 1762.38 541.517 1761.62 540.911 1760.65C540.305 1759.69 540.002 1758.58 540.002 1757.34C540.002 1756.61 540.108 1755.92 540.321 1755.28C540.534 1754.63 540.847 1754.04 541.259 1753.52C541.666 1753 542.163 1752.56 542.75 1752.21C543.333 1751.86 543.998 1751.62 544.746 1751.49ZM554.746 1748.64H540.201V1746.88H547.417V1746.71L540.201 1740.18V1737.88L546.763 1743.98L554.746 1737.88V1740.01L547.985 1745.06L550.03 1746.88H554.746V1748.64Z" /></svg>