
<svg width="595" height="1889" viewbox="0 0 595 1889" fill="none" xmlns="http://www.w3.org/2000/svg"><path id="RoomyLabel" d="M226.716 997.858V989.131H229.665C230.347 989.131 230.906 989.248 231.344 989.481C231.781 989.711 232.105 990.027 232.315 990.431C232.526 990.834 232.631 991.293 232.631 991.807C232.631 992.321 232.526 992.777 232.315 993.175C232.105 993.573 231.783 993.885 231.348 994.113C230.913 994.337 230.358 994.449 229.682 994.449H227.296V993.495H229.648C230.114 993.495 230.489 993.427 230.773 993.29C231.06 993.154 231.267 992.961 231.395 992.711C231.526 992.458 231.591 992.157 231.591 991.807C231.591 991.458 231.526 991.152 231.395 990.891C231.264 990.63 231.055 990.428 230.769 990.286C230.482 990.141 230.102 990.069 229.631 990.069H227.773V997.858H226.716ZM230.824 993.938L232.972 997.858H231.744L229.631 993.938H230.824ZM245.13 993.495C245.13 994.415 244.964 995.211 244.632 995.881C244.299 996.552 243.843 997.069 243.264 997.432C242.684 997.796 242.022 997.978 241.278 997.978C240.534 997.978 239.872 997.796 239.292 997.432C238.713 997.069 238.257 996.552 237.924 995.881C237.592 995.211 237.426 994.415 237.426 993.495C237.426 992.574 237.592 991.779 237.924 991.108C238.257 990.438 238.713 989.921 239.292 989.557C239.872 989.194 240.534 989.012 241.278 989.012C242.022 989.012 242.684 989.194 243.264 989.557C243.843 989.921 244.299 990.438 244.632 991.108C244.964 991.779 245.13 992.574 245.13 993.495ZM244.108 993.495C244.108 992.739 243.981 992.101 243.728 991.581C243.478 991.062 243.139 990.668 242.71 990.401C242.284 990.134 241.807 990 241.278 990C240.75 990 240.271 990.134 239.842 990.401C239.416 990.668 239.076 991.062 238.824 991.581C238.574 992.101 238.449 992.739 238.449 993.495C238.449 994.25 238.574 994.888 238.824 995.408C239.076 995.928 239.416 996.321 239.842 996.589C240.271 996.856 240.75 996.989 241.278 996.989C241.807 996.989 242.284 996.856 242.71 996.589C243.139 996.321 243.478 995.928 243.728 995.408C243.981 994.888 244.108 994.25 244.108 993.495ZM257.646 993.495C257.646 994.415 257.48 995.211 257.147 995.881C256.815 996.552 256.359 997.069 255.78 997.432C255.2 997.796 254.538 997.978 253.794 997.978C253.049 997.978 252.388 997.796 251.808 997.432C251.228 997.069 250.772 996.552 250.44 995.881C250.108 995.211 249.941 994.415 249.941 993.495C249.941 992.574 250.108 991.779 250.44 991.108C250.772 990.438 251.228 989.921 251.808 989.557C252.388 989.194 253.049 989.012 253.794 989.012C254.538 989.012 255.2 989.194 255.78 989.557C256.359 989.921 256.815 990.438 257.147 991.108C257.48 991.779 257.646 992.574 257.646 993.495ZM256.623 993.495C256.623 992.739 256.497 992.101 256.244 991.581C255.994 991.062 255.655 990.668 255.226 990.401C254.799 990.134 254.322 990 253.794 990C253.265 990 252.787 990.134 252.358 990.401C251.932 990.668 251.592 991.062 251.339 991.581C251.089 992.101 250.964 992.739 250.964 993.495C250.964 994.25 251.089 994.888 251.339 995.408C251.592 995.928 251.932 996.321 252.358 996.589C252.787 996.856 253.265 996.989 253.794 996.989C254.322 996.989 254.799 996.856 255.226 996.589C255.655 996.321 255.994 995.928 256.244 995.408C256.497 994.888 256.623 994.25 256.623 993.495ZM262.798 989.131H264.059L267.025 996.375H267.128L270.093 989.131H271.355V997.858H270.366V991.228H270.281L267.554 997.858H266.599L263.872 991.228H263.787V997.858H262.798V989.131ZM276.099 989.131H277.309L279.729 993.205H279.832L282.252 989.131H283.462L280.309 994.262V997.858H279.252V994.262L276.099 989.131Z" /></svg>