
<svg width="595" height="1889" viewbox="0 0 595 1889" fill="none" xmlns="http://www.w3.org/2000/svg"><path id="ScissorsLabel" d="M543.837 1511.28C543.117 1511.36 542.559 1511.71 542.161 1512.32C541.763 1512.92 541.564 1513.67 541.564 1514.55C541.564 1515.19 541.668 1515.75 541.877 1516.24C542.085 1516.71 542.372 1517.09 542.736 1517.36C543.101 1517.62 543.515 1517.76 543.979 1517.76C544.367 1517.76 544.701 1517.66 544.98 1517.48C545.255 1517.29 545.485 1517.05 545.669 1516.76C545.849 1516.46 545.998 1516.15 546.117 1515.83C546.23 1515.51 546.323 1515.21 546.394 1514.94L546.792 1513.47C546.891 1513.09 547.028 1512.67 547.203 1512.2C547.379 1511.73 547.618 1511.29 547.921 1510.86C548.219 1510.43 548.603 1510.07 549.071 1509.79C549.54 1509.52 550.115 1509.38 550.797 1509.38C551.583 1509.38 552.293 1509.58 552.928 1509.99C553.562 1510.4 554.067 1511 554.441 1511.78C554.815 1512.56 555.002 1513.51 555.002 1514.63C555.002 1515.67 554.834 1516.58 554.498 1517.34C554.161 1518.1 553.693 1518.69 553.091 1519.13C552.49 1519.56 551.792 1519.8 550.996 1519.86V1518.04C551.545 1517.99 552 1517.81 552.36 1517.49C552.715 1517.16 552.98 1516.75 553.155 1516.25C553.326 1515.75 553.411 1515.21 553.411 1514.63C553.411 1513.96 553.302 1513.36 553.084 1512.82C552.862 1512.29 552.554 1511.86 552.161 1511.55C551.763 1511.24 551.299 1511.08 550.769 1511.08C550.286 1511.08 549.893 1511.22 549.59 1511.49C549.287 1511.76 549.041 1512.11 548.851 1512.55C548.662 1512.99 548.496 1513.47 548.354 1513.98L547.843 1515.77C547.516 1516.9 547.05 1517.8 546.444 1518.47C545.837 1519.13 545.044 1519.46 544.064 1519.46C543.25 1519.46 542.54 1519.24 541.934 1518.8C541.323 1518.36 540.849 1517.76 540.513 1517.01C540.172 1516.26 540.002 1515.42 540.002 1514.49C540.002 1513.55 540.17 1512.72 540.506 1511.99C540.837 1511.26 541.292 1510.68 541.87 1510.26C542.447 1509.83 543.103 1509.6 543.837 1509.57V1511.28ZM544.746 1494.78V1496.54C544.239 1496.64 543.794 1496.82 543.411 1497.08C543.027 1497.34 542.705 1497.65 542.445 1498.02C542.18 1498.39 541.981 1498.79 541.848 1499.24C541.716 1499.68 541.65 1500.14 541.65 1500.63C541.65 1501.51 541.872 1502.31 542.317 1503.02C542.762 1503.73 543.418 1504.3 544.284 1504.72C545.151 1505.14 546.214 1505.34 547.473 1505.34C548.733 1505.34 549.796 1505.14 550.662 1504.72C551.529 1504.3 552.185 1503.73 552.63 1503.02C553.075 1502.31 553.297 1501.51 553.297 1500.63C553.297 1500.14 553.231 1499.68 553.098 1499.24C552.966 1498.79 552.769 1498.39 552.509 1498.02C552.244 1497.65 551.919 1497.34 551.536 1497.08C551.148 1496.82 550.703 1496.64 550.201 1496.54V1494.78C550.944 1494.91 551.609 1495.15 552.196 1495.5C552.783 1495.85 553.283 1496.29 553.695 1496.81C554.102 1497.33 554.412 1497.91 554.625 1498.56C554.838 1499.2 554.945 1499.89 554.945 1500.63C554.945 1501.87 554.642 1502.97 554.036 1503.94C553.43 1504.9 552.568 1505.66 551.451 1506.22C550.333 1506.77 549.007 1507.05 547.473 1507.05C545.939 1507.05 544.614 1506.77 543.496 1506.22C542.379 1505.66 541.517 1504.9 540.911 1503.94C540.305 1502.97 540.002 1501.87 540.002 1500.63C540.002 1499.89 540.108 1499.2 540.321 1498.56C540.534 1497.91 540.847 1497.33 541.259 1496.81C541.666 1496.29 542.163 1495.85 542.75 1495.5C543.333 1495.15 543.998 1494.91 544.746 1494.78ZM540.201 1490.17H554.746V1491.93H540.201V1490.17ZM543.837 1478.68C543.117 1478.77 542.559 1479.11 542.161 1479.72C541.763 1480.32 541.564 1481.07 541.564 1481.95C541.564 1482.59 541.668 1483.16 541.877 1483.64C542.085 1484.12 542.372 1484.49 542.736 1484.76C543.101 1485.03 543.515 1485.16 543.979 1485.16C544.367 1485.16 544.701 1485.07 544.98 1484.88C545.255 1484.69 545.485 1484.45 545.669 1484.16C545.849 1483.86 545.998 1483.56 546.117 1483.23C546.23 1482.91 546.323 1482.62 546.394 1482.35L546.792 1480.87C546.891 1480.49 547.028 1480.07 547.203 1479.6C547.379 1479.14 547.618 1478.69 547.921 1478.26C548.219 1477.83 548.603 1477.48 549.071 1477.2C549.54 1476.92 550.115 1476.78 550.797 1476.78C551.583 1476.78 552.293 1476.98 552.928 1477.4C553.562 1477.8 554.067 1478.4 554.441 1479.19C554.815 1479.97 555.002 1480.92 555.002 1482.03C555.002 1483.08 554.834 1483.98 554.498 1484.74C554.161 1485.5 553.693 1486.09 553.091 1486.53C552.49 1486.96 551.792 1487.2 550.996 1487.26V1485.44C551.545 1485.4 552 1485.21 552.36 1484.89C552.715 1484.56 552.98 1484.15 553.155 1483.65C553.326 1483.15 553.411 1482.61 553.411 1482.03C553.411 1481.36 553.302 1480.76 553.084 1480.22C552.862 1479.69 552.554 1479.26 552.161 1478.95C551.763 1478.64 551.299 1478.48 550.769 1478.48C550.286 1478.48 549.893 1478.62 549.59 1478.89C549.287 1479.16 549.041 1479.51 548.851 1479.95C548.662 1480.39 548.496 1480.87 548.354 1481.38L547.843 1483.17C547.516 1484.31 547.05 1485.21 546.444 1485.87C545.837 1486.53 545.044 1486.86 544.064 1486.86C543.25 1486.86 542.54 1486.64 541.934 1486.2C541.323 1485.76 540.849 1485.16 540.513 1484.41C540.172 1483.66 540.002 1482.82 540.002 1481.89C540.002 1480.95 540.17 1480.12 540.506 1479.39C540.837 1478.66 541.292 1478.08 541.87 1477.66C542.447 1477.23 543.103 1477 543.837 1476.98V1478.68ZM543.837 1465.93C543.117 1466.01 542.559 1466.36 542.161 1466.96C541.763 1467.57 541.564 1468.31 541.564 1469.19C541.564 1469.84 541.668 1470.4 541.877 1470.89C542.085 1471.36 542.372 1471.74 542.736 1472.01C543.101 1472.27 543.515 1472.4 543.979 1472.4C544.367 1472.4 544.701 1472.31 544.98 1472.13C545.255 1471.94 545.485 1471.7 545.669 1471.4C545.849 1471.11 545.998 1470.8 546.117 1470.48C546.23 1470.16 546.323 1469.86 546.394 1469.59L546.792 1468.12C546.891 1467.74 547.028 1467.31 547.203 1466.85C547.379 1466.38 547.618 1465.93 547.921 1465.51C548.219 1465.08 548.603 1464.72 549.071 1464.44C549.54 1464.16 550.115 1464.02 550.797 1464.02C551.583 1464.02 552.293 1464.23 552.928 1464.64C553.562 1465.05 554.067 1465.65 554.441 1466.43C554.815 1467.21 555.002 1468.16 555.002 1469.28C555.002 1470.32 554.834 1471.22 554.498 1471.99C554.161 1472.74 553.693 1473.34 553.091 1473.78C552.49 1474.21 551.792 1474.45 550.996 1474.51V1472.69C551.545 1472.64 552 1472.46 552.36 1472.14C552.715 1471.81 552.98 1471.4 553.155 1470.9C553.326 1470.4 553.411 1469.86 553.411 1469.28C553.411 1468.61 553.302 1468 553.084 1467.47C552.862 1466.93 552.554 1466.51 552.161 1466.2C551.763 1465.89 551.299 1465.73 550.769 1465.73C550.286 1465.73 549.893 1465.86 549.59 1466.13C549.287 1466.4 549.041 1466.76 548.851 1467.2C548.662 1467.64 548.496 1468.12 548.354 1468.63L547.843 1470.42C547.516 1471.55 547.05 1472.45 546.444 1473.12C545.837 1473.78 545.044 1474.11 544.064 1474.11C543.25 1474.11 542.54 1473.89 541.934 1473.45C541.323 1473 540.849 1472.41 540.513 1471.66C540.172 1470.91 540.002 1470.07 540.002 1469.14C540.002 1468.2 540.17 1467.37 540.506 1466.64C540.837 1465.91 541.292 1465.33 541.87 1464.9C542.447 1464.47 543.103 1464.25 543.837 1464.22V1465.93ZM547.473 1448.86C549.007 1448.86 550.333 1449.13 551.451 1449.69C552.568 1450.24 553.43 1451 554.036 1451.97C554.642 1452.93 554.945 1454.04 554.945 1455.28C554.945 1456.52 554.642 1457.62 554.036 1458.59C553.43 1459.55 552.568 1460.31 551.451 1460.87C550.333 1461.42 549.007 1461.7 547.473 1461.7C545.939 1461.7 544.614 1461.42 543.496 1460.87C542.379 1460.31 541.517 1459.55 540.911 1458.59C540.305 1457.62 540.002 1456.52 540.002 1455.28C540.002 1454.04 540.305 1452.93 540.911 1451.97C541.517 1451 542.379 1450.24 543.496 1449.69C544.614 1449.13 545.939 1448.86 547.473 1448.86ZM547.473 1450.56C546.214 1450.56 545.151 1450.77 544.284 1451.19C543.418 1451.61 542.762 1452.17 542.317 1452.89C541.872 1453.6 541.65 1454.4 541.65 1455.28C541.65 1456.16 541.872 1456.95 542.317 1457.67C542.762 1458.38 543.418 1458.95 544.284 1459.37C545.151 1459.78 546.214 1459.99 547.473 1459.99C548.733 1459.99 549.796 1459.78 550.662 1459.37C551.529 1458.95 552.185 1458.38 552.63 1457.67C553.075 1456.95 553.297 1456.16 553.297 1455.28C553.297 1454.4 553.075 1453.6 552.63 1452.89C552.185 1452.17 551.529 1451.61 550.662 1451.19C549.796 1450.77 548.733 1450.56 547.473 1450.56ZM554.746 1445.89H540.201V1440.98C540.201 1439.84 540.395 1438.91 540.783 1438.18C541.167 1437.45 541.694 1436.91 542.367 1436.56C543.039 1436.21 543.804 1436.04 544.661 1436.04C545.518 1436.04 546.278 1436.21 546.941 1436.56C547.604 1436.91 548.124 1437.45 548.503 1438.17C548.877 1438.9 549.064 1439.82 549.064 1440.95V1444.93H547.473V1441.01C547.473 1440.23 547.36 1439.61 547.132 1439.13C546.905 1438.65 546.583 1438.31 546.167 1438.1C545.745 1437.88 545.243 1437.77 544.661 1437.77C544.078 1437.77 543.569 1437.88 543.134 1438.1C542.698 1438.31 542.362 1438.66 542.125 1439.14C541.884 1439.62 541.763 1440.25 541.763 1441.04V1444.13H554.746V1445.89ZM548.212 1439.05L554.746 1435.47V1437.51L548.212 1441.04V1439.05ZM543.837 1425.15C543.117 1425.23 542.559 1425.58 542.161 1426.18C541.763 1426.79 541.564 1427.53 541.564 1428.41C541.564 1429.06 541.668 1429.62 541.877 1430.1C542.085 1430.58 542.372 1430.96 542.736 1431.23C543.101 1431.49 543.515 1431.62 543.979 1431.62C544.367 1431.62 544.701 1431.53 544.98 1431.35C545.255 1431.16 545.485 1430.92 545.669 1430.62C545.849 1430.33 545.998 1430.02 546.117 1429.7C546.23 1429.38 546.323 1429.08 546.394 1428.81L546.792 1427.33C546.891 1426.96 547.028 1426.53 547.203 1426.07C547.379 1425.6 547.618 1425.15 547.921 1424.73C548.219 1424.3 548.603 1423.94 549.071 1423.66C549.54 1423.38 550.115 1423.24 550.797 1423.24C551.583 1423.24 552.293 1423.45 552.928 1423.86C553.562 1424.27 554.067 1424.86 554.441 1425.65C554.815 1426.43 555.002 1427.38 555.002 1428.5C555.002 1429.54 554.834 1430.44 554.498 1431.2C554.161 1431.96 553.693 1432.56 553.091 1432.99C552.49 1433.43 551.792 1433.67 550.996 1433.73V1431.91C551.545 1431.86 552 1431.68 552.36 1431.35C552.715 1431.03 552.98 1430.62 553.155 1430.12C553.326 1429.62 553.411 1429.08 553.411 1428.5C553.411 1427.83 553.302 1427.22 553.084 1426.69C552.862 1426.15 552.554 1425.73 552.161 1425.42C551.763 1425.1 551.299 1424.95 550.769 1424.95C550.286 1424.95 549.893 1425.08 549.59 1425.35C549.287 1425.62 549.041 1425.98 548.851 1426.42C548.662 1426.86 548.496 1427.33 548.354 1427.85L547.843 1429.64C547.516 1430.77 547.05 1431.67 546.444 1432.33C545.837 1433 545.044 1433.33 544.064 1433.33C543.25 1433.33 542.54 1433.11 541.934 1432.67C541.323 1432.22 540.849 1431.63 540.513 1430.88C540.172 1430.13 540.002 1429.28 540.002 1428.36C540.002 1427.42 540.17 1426.59 540.506 1425.86C540.837 1425.13 541.292 1424.55 541.87 1424.12C542.447 1423.69 543.103 1423.47 543.837 1423.44V1425.15Z" /></svg>