
<svg width="595" height="1889" viewbox="0 0 595 1889" fill="none" xmlns="http://www.w3.org/2000/svg"><path id="SilentSpaceLabel" d="M370.693 92.2862C370.608 91.5665 370.262 91.0078 369.656 90.6101C369.05 90.2124 368.307 90.0135 367.426 90.0135C366.782 90.0135 366.219 90.1177 365.736 90.326C365.257 90.5343 364.883 90.8208 364.613 91.1854C364.348 91.55 364.216 91.9643 364.216 92.4283C364.216 92.8165 364.308 93.1503 364.493 93.4297C364.682 93.7043 364.924 93.9339 365.217 94.1186C365.511 94.2985 365.818 94.4477 366.14 94.5661C366.462 94.6797 366.758 94.772 367.028 94.843L368.505 95.2408C368.884 95.3402 369.306 95.4775 369.77 95.6527C370.238 95.8279 370.686 96.067 371.112 96.37C371.543 96.6683 371.898 97.0518 372.177 97.5206C372.457 97.9893 372.596 98.5646 372.596 99.2464C372.596 100.032 372.39 100.743 371.978 101.377C371.571 102.012 370.975 102.516 370.189 102.89C369.407 103.264 368.458 103.451 367.341 103.451C366.299 103.451 365.397 103.283 364.635 102.947C363.877 102.611 363.281 102.142 362.845 101.54C362.414 100.939 362.17 100.241 362.113 99.4453H363.932C363.979 99.9946 364.164 100.449 364.486 100.809C364.812 101.164 365.224 101.429 365.721 101.604C366.223 101.775 366.763 101.86 367.341 101.86C368.013 101.86 368.617 101.751 369.152 101.533C369.687 101.311 370.111 101.003 370.423 100.61C370.736 100.212 370.892 99.7483 370.892 99.218C370.892 98.7351 370.757 98.3421 370.487 98.0391C370.217 97.736 369.862 97.4898 369.422 97.3004C368.981 97.111 368.505 96.9453 367.994 96.8033L366.204 96.2919C365.068 95.9652 364.168 95.4988 363.505 94.8928C362.843 94.2867 362.511 93.4936 362.511 92.5135C362.511 91.6991 362.731 90.9889 363.172 90.3828C363.617 89.772 364.213 89.2985 364.961 88.9624C365.714 88.6214 366.555 88.451 367.483 88.451C368.42 88.451 369.254 88.6191 369.983 88.9553C370.712 89.2867 371.29 89.7412 371.716 90.3189C372.147 90.8965 372.374 91.5523 372.398 92.2862H370.693ZM382.879 88.6499V103.195H381.117V88.6499H382.879ZM392.035 103.195V88.6499H393.797V101.633H400.558V103.195H392.035ZM408.91 103.195V88.6499H417.689V90.2124H410.672V95.1271H417.234V96.6896H410.672V101.633H417.802V103.195H408.91ZM438.023 88.6499V103.195H436.318L428.392 91.7749H428.25V103.195H426.488V88.6499H428.193L436.148 100.099H436.29V88.6499H438.023ZM446.377 90.2124V88.6499H457.286V90.2124H452.712V103.195H450.95V90.2124H446.377ZM484.834 92.2862C484.748 91.5665 484.403 91.0078 483.797 90.6101C483.191 90.2124 482.447 90.0135 481.567 90.0135C480.923 90.0135 480.359 90.1177 479.876 90.326C479.398 90.5343 479.024 90.8208 478.754 91.1854C478.489 91.55 478.356 91.9643 478.356 92.4283C478.356 92.8165 478.449 93.1503 478.633 93.4297C478.823 93.7043 479.064 93.9339 479.358 94.1186C479.651 94.2985 479.959 94.4477 480.281 94.5661C480.603 94.6797 480.899 94.772 481.169 94.843L482.646 95.2408C483.025 95.3402 483.446 95.4775 483.91 95.6527C484.379 95.8279 484.826 96.067 485.253 96.37C485.683 96.6683 486.039 97.0518 486.318 97.5206C486.597 97.9893 486.737 98.5646 486.737 99.2464C486.737 100.032 486.531 100.743 486.119 101.377C485.712 102.012 485.115 102.516 484.329 102.89C483.548 103.264 482.599 103.451 481.481 103.451C480.44 103.451 479.538 103.283 478.775 102.947C478.018 102.611 477.421 102.142 476.986 101.54C476.555 100.939 476.311 100.241 476.254 99.4453H478.072C478.12 99.9946 478.304 100.449 478.626 100.809C478.953 101.164 479.365 101.429 479.862 101.604C480.364 101.775 480.904 101.86 481.481 101.86C482.154 101.86 482.757 101.751 483.292 101.533C483.827 101.311 484.251 101.003 484.564 100.61C484.876 100.212 485.032 99.7483 485.032 99.218C485.032 98.7351 484.898 98.3421 484.628 98.0391C484.358 97.736 484.003 97.4898 483.562 97.3004C483.122 97.111 482.646 96.9453 482.135 96.8033L480.345 96.2919C479.209 95.9652 478.309 95.4988 477.646 94.8928C476.983 94.2867 476.652 93.4936 476.652 92.5135C476.652 91.6991 476.872 90.9889 477.312 90.3828C477.757 89.772 478.354 89.2985 479.102 88.9624C479.855 88.6214 480.695 88.451 481.623 88.451C482.561 88.451 483.394 88.6191 484.123 88.9553C484.853 89.2867 485.43 89.7412 485.856 90.3189C486.287 90.8965 486.514 91.5523 486.538 92.2862H484.834ZM495.258 103.195V88.6499H500.173C501.314 88.6499 502.247 88.8558 502.971 89.2678C503.7 89.675 504.24 90.2266 504.59 90.9226C504.941 91.6186 505.116 92.3951 505.116 93.2521C505.116 94.1091 504.941 94.888 504.59 95.5888C504.245 96.2895 503.71 96.8482 502.985 97.2649C502.261 97.6768 501.333 97.8828 500.201 97.8828H496.678V96.3203H500.144C500.926 96.3203 501.553 96.1854 502.026 95.9155C502.5 95.6456 502.843 95.281 503.056 94.8217C503.274 94.3577 503.383 93.8345 503.383 93.2521C503.383 92.6697 503.274 92.1489 503.056 91.6896C502.843 91.2304 502.498 90.8705 502.019 90.6101C501.541 90.3449 500.907 90.2124 500.116 90.2124H497.019V103.195H495.258ZM514.175 103.195H512.328L517.669 88.6499H519.487L524.828 103.195H522.982L518.635 90.951H518.521L514.175 103.195ZM514.857 97.5135H522.3V99.076H514.857V97.5135ZM544.423 93.1953H542.662C542.558 92.6887 542.376 92.2436 542.115 91.8601C541.86 91.4766 541.547 91.1546 541.178 90.8942C540.813 90.629 540.408 90.4302 539.963 90.2976C539.518 90.165 539.054 90.0987 538.571 90.0987C537.69 90.0987 536.893 90.3213 536.178 90.7663C535.467 91.2114 534.902 91.8672 534.48 92.7337C534.064 93.6001 533.855 94.6631 533.855 95.9226C533.855 97.1821 534.064 98.245 534.48 99.1115C534.902 99.978 535.467 100.634 536.178 101.079C536.893 101.524 537.69 101.746 538.571 101.746C539.054 101.746 539.518 101.68 539.963 101.548C540.408 101.415 540.813 101.219 541.178 100.958C541.547 100.693 541.86 100.369 542.115 99.9851C542.376 99.5968 542.558 99.1518 542.662 98.6499H544.423C544.291 99.3932 544.049 100.058 543.699 100.646C543.349 101.233 542.913 101.732 542.392 102.144C541.871 102.551 541.287 102.862 540.638 103.075C539.994 103.288 539.305 103.394 538.571 103.394C537.331 103.394 536.227 103.091 535.261 102.485C534.296 101.879 533.536 101.017 532.982 99.8999C532.428 98.7824 532.151 97.4567 532.151 95.9226C532.151 94.3885 532.428 93.0627 532.982 91.9453C533.536 90.8279 534.296 89.9661 535.261 89.3601C536.227 88.754 537.331 88.451 538.571 88.451C539.305 88.451 539.994 88.5575 540.638 88.7706C541.287 88.9837 541.871 89.2962 542.392 89.7081C542.913 90.1153 543.349 90.6125 543.699 91.1996C544.049 91.782 544.291 92.4472 544.423 93.1953ZM552.895 103.195V88.6499H561.673V90.2124H554.656V95.1271H561.219V96.6896H554.656V101.633H561.787V103.195H552.895Z" /></svg>