
<svg width="595" height="1889" viewbox="0 0 595 1889" fill="none" xmlns="http://www.w3.org/2000/svg"><path id="SixMinutesLabel" d="M354.846 658.066C354.841 658.364 354.784 658.662 354.675 658.961C354.566 659.259 354.383 659.531 354.125 659.777C353.864 660.024 353.513 660.221 353.07 660.37C352.625 660.52 352.066 660.594 351.394 660.594C350.75 660.594 350.179 660.534 349.682 660.413C349.183 660.292 348.762 660.117 348.422 659.888C348.078 659.658 347.818 659.381 347.64 659.057C347.463 658.73 347.374 658.362 347.374 657.952C347.374 657.545 347.456 657.183 347.619 656.866C347.78 656.546 348.005 656.285 348.294 656.084C348.583 655.883 348.915 655.753 349.292 655.694V656.56C348.965 656.641 348.694 656.797 348.478 657.029C348.263 657.261 348.155 657.569 348.155 657.952C348.155 658.516 348.4 658.959 348.89 659.284C349.38 659.606 350.068 659.768 350.953 659.77V659.714C350.752 659.581 350.581 659.424 350.439 659.241C350.294 659.057 350.183 658.853 350.105 658.63C350.027 658.408 349.988 658.172 349.988 657.924C349.988 657.507 350.092 657.126 350.3 656.78C350.506 656.435 350.791 656.158 351.156 655.949C351.518 655.741 351.934 655.637 352.402 655.637C352.852 655.637 353.264 655.737 353.638 655.939C354.01 656.14 354.306 656.423 354.526 656.787C354.744 657.15 354.85 657.576 354.846 658.066ZM354.064 658.066C354.064 657.767 353.99 657.5 353.841 657.263C353.691 657.024 353.491 656.836 353.24 656.699C352.989 656.559 352.71 656.489 352.402 656.489C352.102 656.489 351.828 656.557 351.582 656.691C351.333 656.824 351.136 657.008 350.989 657.242C350.842 657.474 350.769 657.739 350.769 658.037C350.769 658.262 350.814 658.472 350.904 658.666C350.991 658.86 351.112 659.031 351.266 659.177C351.42 659.322 351.596 659.435 351.795 659.518C351.992 659.601 352.199 659.642 352.417 659.642C352.705 659.642 352.975 659.575 353.226 659.44C353.477 659.303 353.68 659.116 353.833 658.879C353.987 658.64 354.064 658.369 354.064 658.066ZM347.473 651.3V650.249L353.51 647.777V647.692L347.473 645.22V644.169H354.746V644.993H349.221V645.064L354.746 647.337V648.132L349.221 650.405V650.476H354.746V651.3H347.473ZM347.473 641.523H354.746V642.403H347.473V641.523ZM347.473 633.99H354.746V634.842L349.036 638.805V638.876H354.746V639.757H347.473V638.905L353.198 634.927V634.856H347.473V633.99Z" /></svg>