
<svg width="595" height="1889" viewbox="0 0 595 1889" fill="none" xmlns="http://www.w3.org/2000/svg"><path id="SpockLabel" d="M532.607 1233.06C532.556 1232.63 532.348 1232.3 531.985 1232.06C531.621 1231.82 531.175 1231.7 530.647 1231.7C530.26 1231.7 529.922 1231.76 529.632 1231.89C529.346 1232.01 529.121 1232.18 528.959 1232.4C528.8 1232.62 528.721 1232.87 528.721 1233.15C528.721 1233.38 528.776 1233.58 528.887 1233.75C529 1233.91 529.145 1234.05 529.321 1234.16C529.498 1234.27 529.682 1234.36 529.875 1234.43C530.069 1234.5 530.246 1234.55 530.408 1234.6L531.294 1234.84C531.522 1234.9 531.775 1234.98 532.053 1235.08C532.334 1235.19 532.603 1235.33 532.858 1235.51C533.117 1235.69 533.33 1235.92 533.498 1236.2C533.665 1236.48 533.749 1236.83 533.749 1237.24C533.749 1237.71 533.625 1238.14 533.378 1238.52C533.134 1238.9 532.776 1239.2 532.304 1239.43C531.836 1239.65 531.266 1239.76 530.596 1239.76C529.971 1239.76 529.429 1239.66 528.972 1239.46C528.517 1239.26 528.159 1238.98 527.898 1238.62C527.64 1238.25 527.493 1237.84 527.459 1237.36H528.55C528.578 1237.69 528.689 1237.96 528.882 1238.18C529.078 1238.39 529.326 1238.55 529.624 1238.65C529.925 1238.76 530.249 1238.81 530.596 1238.81C530.999 1238.81 531.361 1238.74 531.682 1238.61C532.003 1238.48 532.257 1238.29 532.445 1238.06C532.632 1237.82 532.726 1237.54 532.726 1237.22C532.726 1236.93 532.645 1236.7 532.483 1236.51C532.321 1236.33 532.108 1236.19 531.844 1236.07C531.58 1235.96 531.294 1235.86 530.988 1235.77L529.914 1235.47C529.232 1235.27 528.692 1234.99 528.294 1234.63C527.897 1234.26 527.698 1233.79 527.698 1233.2C527.698 1232.71 527.83 1232.28 528.094 1231.92C528.361 1231.55 528.719 1231.27 529.168 1231.07C529.62 1230.86 530.124 1230.76 530.681 1230.76C531.243 1230.76 531.743 1230.86 532.181 1231.06C532.618 1231.26 532.965 1231.54 533.221 1231.88C533.479 1232.23 533.615 1232.62 533.63 1233.06H532.607ZM535.487 1239.61V1230.88H538.435C539.12 1230.88 539.68 1231 540.114 1231.25C540.552 1231.5 540.876 1231.83 541.086 1232.24C541.296 1232.66 541.401 1233.13 541.401 1233.64C541.401 1234.16 541.296 1234.62 541.086 1235.04C540.879 1235.46 540.558 1235.8 540.123 1236.05C539.688 1236.3 539.131 1236.42 538.452 1236.42H536.339V1235.48H538.418C538.887 1235.48 539.263 1235.4 539.548 1235.24C539.832 1235.08 540.038 1234.86 540.165 1234.58C540.296 1234.31 540.362 1233.99 540.362 1233.64C540.362 1233.29 540.296 1232.98 540.165 1232.7C540.038 1232.43 539.83 1232.21 539.543 1232.06C539.256 1231.9 538.876 1231.82 538.401 1231.82H536.543V1239.61H535.487ZM550.467 1235.24C550.467 1236.17 550.301 1236.96 549.969 1237.63C549.636 1238.3 549.18 1238.82 548.601 1239.18C548.021 1239.55 547.359 1239.73 546.615 1239.73C545.871 1239.73 545.209 1239.55 544.629 1239.18C544.05 1238.82 543.594 1238.3 543.261 1237.63C542.929 1236.96 542.763 1236.17 542.763 1235.24C542.763 1234.32 542.929 1233.53 543.261 1232.86C543.594 1232.19 544.05 1231.67 544.629 1231.31C545.209 1230.94 545.871 1230.76 546.615 1230.76C547.359 1230.76 548.021 1230.94 548.601 1231.31C549.18 1231.67 549.636 1232.19 549.969 1232.86C550.301 1233.53 550.467 1234.32 550.467 1235.24ZM549.445 1235.24C549.445 1234.49 549.318 1233.85 549.065 1233.33C548.815 1232.81 548.476 1232.42 548.047 1232.15C547.621 1231.88 547.143 1231.75 546.615 1231.75C546.087 1231.75 545.608 1231.88 545.179 1232.15C544.753 1232.42 544.413 1232.81 544.161 1233.33C543.911 1233.85 543.786 1234.49 543.786 1235.24C543.786 1236 543.911 1236.64 544.161 1237.16C544.413 1237.68 544.753 1238.07 545.179 1238.34C545.608 1238.61 546.087 1238.74 546.615 1238.74C547.143 1238.74 547.621 1238.61 548.047 1238.34C548.476 1238.07 548.815 1237.68 549.065 1237.16C549.318 1236.64 549.445 1236 549.445 1235.24ZM559.267 1233.61H558.21C558.148 1233.3 558.038 1233.04 557.882 1232.81C557.729 1232.58 557.541 1232.38 557.32 1232.23C557.101 1232.07 556.858 1231.95 556.591 1231.87C556.324 1231.79 556.045 1231.75 555.756 1231.75C555.227 1231.75 554.749 1231.88 554.32 1232.15C553.893 1232.42 553.554 1232.81 553.301 1233.33C553.051 1233.85 552.926 1234.49 552.926 1235.24C552.926 1236 553.051 1236.64 553.301 1237.16C553.554 1237.68 553.893 1238.07 554.32 1238.34C554.749 1238.61 555.227 1238.74 555.756 1238.74C556.045 1238.74 556.324 1238.7 556.591 1238.62C556.858 1238.54 557.101 1238.42 557.32 1238.27C557.541 1238.11 557.729 1237.91 557.882 1237.68C558.038 1237.45 558.148 1237.18 558.21 1236.88H559.267C559.188 1237.33 559.043 1237.73 558.832 1238.08C558.622 1238.43 558.361 1238.73 558.048 1238.98C557.736 1239.22 557.385 1239.41 556.996 1239.54C556.609 1239.66 556.196 1239.73 555.756 1239.73C555.011 1239.73 554.349 1239.55 553.77 1239.18C553.19 1238.82 552.734 1238.3 552.402 1237.63C552.07 1236.96 551.903 1236.17 551.903 1235.24C551.903 1234.32 552.07 1233.53 552.402 1232.86C552.734 1232.19 553.19 1231.67 553.77 1231.31C554.349 1230.94 555.011 1230.76 555.756 1230.76C556.196 1230.76 556.609 1230.83 556.996 1230.95C557.385 1231.08 557.736 1231.27 558.048 1231.52C558.361 1231.76 558.622 1232.06 558.832 1232.41C559.043 1232.76 559.188 1233.16 559.267 1233.61ZM560.975 1239.61V1230.88H562.032V1235.21H562.134L566.054 1230.88H567.435L563.77 1234.82L567.435 1239.61H566.157L563.123 1235.55L562.032 1236.78V1239.61H560.975Z" /></svg>