
<svg width="595" height="1889" viewbox="0 0 595 1889" fill="none" xmlns="http://www.w3.org/2000/svg"><path id="SpongebobLabel" d="M48.074 190.087C47.6599 190.22 47.3704 190.488 47.2055 190.89C47.0407 191.292 47.0087 191.753 47.1095 192.272C47.1832 192.651 47.3091 192.971 47.4871 193.232C47.6645 193.489 47.876 193.677 48.1217 193.794C48.3668 193.909 48.626 193.939 48.8992 193.886C49.1279 193.842 49.314 193.749 49.4573 193.608C49.5974 193.465 49.705 193.297 49.7802 193.103C49.8525 192.909 49.9051 192.711 49.938 192.508C49.9681 192.305 49.9886 192.12 49.9995 191.953L50.0646 191.038C50.0798 190.803 50.1125 190.539 50.1625 190.246C50.212 189.95 50.3016 189.659 50.4313 189.373C50.5577 189.085 50.7429 188.832 50.987 188.614C51.2311 188.396 51.554 188.248 51.9555 188.169C52.4185 188.079 52.8603 188.119 53.2812 188.289C53.7015 188.457 54.0668 188.75 54.3771 189.17C54.6868 189.588 54.9057 190.125 55.0336 190.784C55.1529 191.397 55.1571 191.948 55.0464 192.435C54.9351 192.92 54.7274 193.325 54.4231 193.65C54.1182 193.973 53.7348 194.196 53.2728 194.321L53.0646 193.25C53.3827 193.159 53.6293 192.998 53.8044 192.768C53.9761 192.535 54.0851 192.262 54.1314 191.949C54.1743 191.634 54.1627 191.306 54.0966 190.966C54.0196 190.57 53.8864 190.227 53.6968 189.936C53.5045 189.647 53.2747 189.432 53.0075 189.293C52.7375 189.155 52.4463 189.116 52.1339 189.177C51.8495 189.232 51.6335 189.356 51.4859 189.55C51.3383 189.744 51.234 189.981 51.1728 190.262C51.1117 190.543 51.0686 190.842 51.0434 191.16L50.9472 192.272C50.8848 192.979 50.7131 193.562 50.4321 194.022C50.151 194.482 49.7219 194.768 49.1446 194.88C48.6649 194.973 48.2214 194.925 47.814 194.735C47.4033 194.543 47.0562 194.246 46.7725 193.844C46.4856 193.439 46.2889 192.964 46.1827 192.417C46.0754 191.865 46.079 191.355 46.1935 190.887C46.3052 190.42 46.5068 190.027 46.7982 189.71C47.0891 189.39 47.4493 189.181 47.8789 189.083L48.074 190.087ZM53.9498 186.012L45.3828 187.677L44.8202 184.782C44.6895 184.11 44.7041 183.537 44.8637 183.063C45.0201 182.587 45.2832 182.206 45.653 181.92C46.0228 181.634 46.4601 181.442 46.9649 181.344C47.4696 181.246 47.9484 181.26 48.4013 181.386C48.8536 181.509 49.2439 181.761 49.5722 182.139C49.8978 182.519 50.1254 183.042 50.2549 183.709L50.6582 185.783L49.7379 185.962L49.3411 183.921C49.2517 183.461 49.1004 183.107 48.8872 182.859C48.6741 182.611 48.42 182.45 48.1251 182.377C47.8269 182.302 47.5063 182.298 47.1633 182.365C46.8203 182.431 46.526 182.555 46.2804 182.736C46.0343 182.914 45.8619 183.159 45.7633 183.47C45.6619 183.782 45.6564 184.171 45.747 184.637L46.1015 186.461L53.7481 184.974L53.9498 186.012ZM46.8078 172.139C47.7114 171.963 48.5239 171.974 49.2455 172.173C49.967 172.371 50.5616 172.72 51.0291 173.22C51.4967 173.719 51.8014 174.334 51.9435 175.065C52.0855 175.796 52.0333 176.48 51.7869 177.118C51.5406 177.757 51.12 178.303 50.5253 178.757C49.9306 179.211 49.1815 179.526 48.2779 179.702C47.3744 179.877 46.5618 179.866 45.8403 179.668C45.1187 179.469 44.5242 179.12 44.0566 178.621C43.5891 178.121 43.2843 177.506 43.1423 176.776C43.0003 176.045 43.0524 175.361 43.2988 174.722C43.5452 174.084 43.9657 173.538 44.5604 173.084C45.1552 172.629 45.9043 172.314 46.8078 172.139ZM47.003 173.143C46.2612 173.287 45.6592 173.533 45.1971 173.88C44.7345 174.225 44.4131 174.633 44.2328 175.105C44.0519 175.574 44.0119 176.068 44.1128 176.587C44.2136 177.106 44.436 177.55 44.78 177.92C45.1234 178.288 45.5745 178.546 46.133 178.695C46.6911 178.841 47.341 178.842 48.0828 178.698C48.8246 178.554 49.4268 178.309 49.8894 177.965C50.3515 177.617 50.673 177.209 50.8538 176.74C51.0341 176.268 51.0738 175.772 50.973 175.254C50.8722 174.735 50.65 174.292 50.3066 173.924C49.9626 173.554 49.5116 173.296 48.9535 173.15C48.395 173.001 47.7448 172.999 47.003 173.143ZM40.8648 164.434L49.4317 162.768L49.6269 163.772L43.8079 169.748L43.8242 169.832L50.5506 168.524L50.7522 169.562L42.1853 171.227L41.9902 170.223L47.8226 164.227L47.8063 164.144L41.0632 165.454L40.8648 164.434ZM42.0001 155.981C41.7364 156.128 41.5076 156.298 41.3137 156.492C41.1166 156.684 40.9586 156.898 40.8397 157.136C40.7203 157.37 40.644 157.625 40.6108 157.901C40.5775 158.177 40.591 158.469 40.6512 158.779C40.7498 159.286 40.9706 159.722 41.3135 160.087C41.6564 160.451 42.1069 160.707 42.6649 160.853C43.223 160.999 43.8729 161 44.6147 160.856C45.3565 160.712 45.9584 160.466 46.4205 160.119C46.8826 159.771 47.2035 159.36 47.3833 158.885C47.563 158.41 47.6014 157.908 47.4984 157.378C47.403 156.887 47.2144 156.475 46.9326 156.142C46.6475 155.807 46.2922 155.572 45.8667 155.438C45.4378 155.301 44.9613 155.284 44.437 155.386L44.4421 155.055L44.943 157.632L44.0227 157.811L43.3885 154.548L44.3088 154.369C45.0143 154.232 45.6571 154.263 46.2372 154.463C46.8166 154.66 47.3012 154.994 47.6909 155.465C48.0773 155.934 48.3366 156.509 48.4689 157.19C48.6163 157.948 48.5674 158.649 48.3221 159.293C48.0763 159.934 47.6554 160.479 47.0596 160.928C46.4633 161.374 45.7134 161.684 44.8098 161.86C44.1322 161.992 43.5052 162.019 42.929 161.943C42.3494 161.865 41.8361 161.696 41.389 161.435C40.9419 161.175 40.5721 160.836 40.2796 160.418C39.9871 160 39.7875 159.517 39.6807 158.967C39.5929 158.516 39.5793 158.081 39.6401 157.664C39.6975 157.245 39.8205 156.858 40.0091 156.503C40.1943 156.146 40.4384 155.83 40.7413 155.557C41.0414 155.285 41.3916 155.069 41.792 154.91L42.0001 155.981ZM47.3266 151.939L38.7597 153.604L37.7547 148.433L38.675 148.255L39.4783 152.387L42.373 151.825L41.6217 147.96L42.542 147.781L43.2933 151.646L46.2047 151.08L45.3883 146.88L46.3086 146.701L47.3266 151.939ZM45.9582 144.898L37.3912 146.564L36.809 143.569C36.693 142.972 36.7005 142.46 36.8316 142.032C36.9598 141.605 37.1784 141.263 37.4873 141.006C37.7935 140.749 38.1557 140.581 38.574 140.499C38.9421 140.428 39.2588 140.434 39.5241 140.519C39.7889 140.6 40.0116 140.734 40.1922 140.918C40.3723 141.1 40.5197 141.308 40.6343 141.54L40.718 141.524C40.6837 141.258 40.7245 140.977 40.8404 140.68C40.9562 140.382 41.1529 140.114 41.4306 139.875C41.7082 139.635 42.0729 139.472 42.5247 139.384C42.9542 139.301 43.3594 139.323 43.7403 139.452C44.1213 139.58 44.4531 139.835 44.7357 140.218C45.0184 140.6 45.2253 141.128 45.3565 141.803L45.9582 144.898ZM44.8362 144.04L44.4362 141.982C44.3045 141.304 44.0799 140.849 43.7624 140.615C43.4417 140.379 43.0931 140.298 42.7166 140.371C42.4266 140.428 42.1732 140.554 41.9565 140.749C41.7371 140.945 41.58 141.194 41.4853 141.496C41.3879 141.799 41.3754 142.137 41.4481 142.511L41.8579 144.619L44.8362 144.04ZM40.9543 144.794L40.5803 142.87C40.5196 142.558 40.4035 142.288 40.232 142.061C40.06 141.831 39.848 141.664 39.5962 141.56C39.3438 141.452 39.0671 141.428 38.7659 141.486C38.3894 141.56 38.0956 141.753 37.8844 142.066C37.6704 142.38 37.6187 142.821 37.7293 143.39L38.1099 145.347L40.9543 144.794ZM38.7804 130.841C39.684 130.666 40.4965 130.677 41.2181 130.875C41.9396 131.074 42.5342 131.423 43.0017 131.922C43.4693 132.422 43.7741 133.037 43.9161 133.768C44.0581 134.498 44.0059 135.183 43.7595 135.821C43.5132 136.459 43.0926 137.005 42.4979 137.46C41.9032 137.914 41.1541 138.229 40.2505 138.404C39.347 138.58 38.5344 138.569 37.8129 138.37C37.0913 138.172 36.4968 137.823 36.0292 137.324C35.5617 136.824 35.2569 136.209 35.1149 135.478C34.9729 134.748 35.025 134.063 35.2714 133.425C35.5178 132.787 35.9383 132.24 36.5331 131.786C37.1278 131.332 37.8769 131.017 38.7804 130.841ZM38.9756 131.845C38.2338 131.99 37.6318 132.235 37.1698 132.583C36.7071 132.927 36.3857 133.336 36.2054 133.808C36.0245 134.277 35.9845 134.771 36.0854 135.29C36.1862 135.808 36.4086 136.253 36.7526 136.623C37.096 136.99 37.5471 137.248 38.1056 137.397C38.6637 137.544 39.3136 137.545 40.0554 137.4C40.7972 137.256 41.3994 137.012 41.862 136.667C42.3241 136.32 42.6456 135.912 42.8264 135.442C43.0067 134.97 43.0464 134.475 42.9456 133.956C42.8448 133.437 42.6226 132.994 42.2792 132.627C41.9352 132.257 41.4842 131.999 40.9261 131.853C40.3676 131.704 39.7174 131.701 38.9756 131.845ZM42.7248 128.264L34.1579 129.93L33.5757 126.935C33.4597 126.338 33.4672 125.826 33.5982 125.398C33.7265 124.971 33.9451 124.629 34.254 124.372C34.5601 124.115 34.9224 123.947 35.3407 123.865C35.7088 123.794 36.0255 123.8 36.2908 123.885C36.5556 123.966 36.7783 124.1 36.9589 124.284C37.139 124.466 37.2864 124.674 37.401 124.906L37.4846 124.89C37.4504 124.624 37.4912 124.343 37.6071 124.046C37.7229 123.748 37.9196 123.48 38.1973 123.241C38.4749 123.001 38.8396 122.838 39.2914 122.75C39.7208 122.667 40.1261 122.689 40.507 122.818C40.888 122.946 41.2198 123.202 41.5024 123.584C41.785 123.966 41.992 124.494 42.1231 125.169L42.7248 128.264ZM41.6029 127.406L41.2029 125.348C41.0711 124.67 40.8466 124.215 40.5291 123.981C40.2084 123.745 39.8598 123.664 39.4833 123.737C39.1932 123.794 38.9399 123.92 38.7232 124.115C38.5038 124.311 38.3467 124.56 38.252 124.862C38.1545 125.165 38.1421 125.503 38.2148 125.877L38.6246 127.985L41.6029 127.406ZM37.721 128.16L37.347 126.236C37.2863 125.924 37.1702 125.654 36.9987 125.427C36.8267 125.197 36.6147 125.03 36.3629 124.926C36.1105 124.818 35.8338 124.794 35.5326 124.853C35.1561 124.926 34.8623 125.119 34.6511 125.432C34.4371 125.746 34.3854 126.187 34.496 126.756L34.8765 128.713L37.721 128.16Z" /></svg>