
<svg width="595" height="1889" viewbox="0 0 595 1889" fill="none" xmlns="http://www.w3.org/2000/svg"><path id="SquidwardLabel" d="M150.443 168.856C150.029 168.989 149.739 169.256 149.574 169.659C149.409 170.061 149.377 170.522 149.478 171.04C149.552 171.42 149.678 171.74 149.856 172C150.033 172.258 150.245 172.445 150.49 172.563C150.735 172.677 150.995 172.708 151.268 172.655C151.497 172.61 151.683 172.518 151.826 172.377C151.966 172.234 152.074 172.065 152.149 171.871C152.221 171.678 152.274 171.479 152.307 171.276C152.337 171.074 152.357 170.889 152.368 170.722L152.433 169.806C152.448 169.572 152.481 169.308 152.531 169.014C152.581 168.718 152.67 168.427 152.8 168.142C152.926 167.854 153.112 167.601 153.356 167.382C153.6 167.164 153.923 167.016 154.324 166.938C154.787 166.848 155.229 166.888 155.65 167.058C156.07 167.225 156.435 167.519 156.746 167.939C157.055 168.356 157.274 168.894 157.402 169.552C157.522 170.166 157.526 170.716 157.415 171.204C157.304 171.688 157.096 172.093 156.792 172.419C156.487 172.741 156.103 172.965 155.641 173.089L155.433 172.019C155.751 171.928 155.998 171.767 156.173 171.536C156.345 171.303 156.454 171.03 156.5 170.717C156.543 170.402 156.531 170.074 156.465 169.734C156.388 169.338 156.255 168.995 156.065 168.705C155.873 168.415 155.643 168.201 155.376 168.062C155.106 167.923 154.815 167.884 154.503 167.945C154.218 168 154.002 168.125 153.855 168.319C153.707 168.512 153.603 168.75 153.541 169.031C153.48 169.312 153.437 169.611 153.412 169.928L153.316 171.041C153.253 171.748 153.082 172.331 152.801 172.791C152.52 173.251 152.091 173.537 151.513 173.649C151.034 173.742 150.59 173.694 150.183 173.504C149.772 173.311 149.425 173.014 149.141 172.612C148.854 172.208 148.658 171.732 148.551 171.186C148.444 170.634 148.448 170.124 148.562 169.656C148.674 169.188 148.875 168.796 149.167 168.479C149.458 168.159 149.818 167.95 150.248 167.852L150.443 168.856ZM153.036 162.188L152.815 161.051L153.885 159.853L154.171 159.537L155.785 157.747L156.006 158.885L154.933 160.066L154.661 160.362L153.036 162.188ZM150.63 158.385C151.533 158.209 152.346 158.22 153.068 158.419C153.789 158.617 154.384 158.966 154.851 159.465C155.319 159.965 155.624 160.58 155.766 161.311C155.908 162.041 155.855 162.726 155.609 163.364C155.363 164.002 154.942 164.549 154.347 165.003C153.753 165.457 153.004 165.772 152.1 165.948C151.196 166.123 150.384 166.112 149.662 165.913C148.941 165.715 148.346 165.366 147.879 164.867C147.411 164.367 147.106 163.752 146.964 163.021C146.822 162.291 146.875 161.606 147.121 160.968C147.367 160.33 147.788 159.784 148.383 159.329C148.977 158.875 149.726 158.56 150.63 158.385ZM150.825 159.388C150.083 159.533 149.481 159.778 149.019 160.126C148.557 160.47 148.235 160.879 148.055 161.351C147.874 161.82 147.834 162.314 147.935 162.833C148.036 163.352 148.258 163.796 148.602 164.166C148.946 164.533 149.397 164.792 149.955 164.941C150.513 165.087 151.163 165.088 151.905 164.944C152.647 164.799 153.249 164.555 153.712 164.21C154.174 163.863 154.495 163.455 154.676 162.985C154.856 162.513 154.896 162.018 154.795 161.499C154.694 160.981 154.472 160.538 154.129 160.17C153.785 159.8 153.334 159.542 152.776 159.396C152.217 159.247 151.567 159.244 150.825 159.388ZM144.915 151.851L144.713 150.813L150.385 149.711C150.971 149.597 151.521 149.633 152.034 149.82C152.545 150.004 152.981 150.32 153.343 150.768C153.702 151.216 153.947 151.777 154.078 152.449C154.208 153.121 154.191 153.732 154.026 154.282C153.858 154.833 153.572 155.29 153.169 155.655C152.762 156.018 152.265 156.256 151.68 156.37L146.007 157.473L145.806 156.435L151.394 155.349C151.813 155.268 152.167 155.103 152.458 154.856C152.745 154.609 152.949 154.297 153.07 153.921C153.188 153.542 153.2 153.114 153.107 152.637C153.015 152.16 152.843 151.768 152.592 151.461C152.339 151.154 152.032 150.942 151.674 150.823C151.312 150.703 150.921 150.683 150.503 150.764L144.915 151.851ZM144.109 147.704L152.676 146.039L152.877 147.076L144.31 148.742L144.109 147.704ZM151.757 141.315L152.271 143.959L143.704 145.624L143.168 142.863C143.006 142.032 143.039 141.288 143.267 140.63C143.493 139.973 143.894 139.424 144.471 138.985C145.046 138.546 145.777 138.241 146.664 138.069C147.556 137.895 148.355 137.905 149.061 138.097C149.764 138.291 150.348 138.658 150.812 139.198C151.273 139.74 151.588 140.445 151.757 141.315ZM151.149 143.101L150.85 141.561C150.712 140.853 150.462 140.292 150.098 139.88C149.734 139.467 149.277 139.196 148.728 139.065C148.179 138.934 147.556 138.937 146.859 139.072C146.167 139.207 145.594 139.436 145.138 139.759C144.68 140.082 144.361 140.494 144.181 140.995C143.997 141.497 143.971 142.082 144.101 142.752L144.423 144.408L151.149 143.101ZM150.323 133.936L142.211 137.944L142.006 136.89L148.636 133.743L148.62 133.66L141.288 133.192L141.06 132.021L147.683 128.841L147.667 128.757L140.341 128.323L140.136 127.269L149.159 127.946L149.367 129.017L142.908 132.235L142.921 132.302L150.115 132.866L150.323 133.936ZM148.513 124.627L148.725 125.715L139.546 124.234L139.338 123.163L147.294 118.352L147.505 119.44L140.791 123.402L140.804 123.469L148.513 124.627ZM145.089 124.876L144.237 120.492L145.157 120.313L146.009 124.697L145.089 124.876ZM147.034 117.018L138.467 118.683L137.905 115.789C137.775 115.119 137.782 114.548 137.927 114.074C138.07 113.6 138.319 113.222 138.675 112.939C139.031 112.655 139.461 112.465 139.966 112.366C140.471 112.268 140.938 112.285 141.369 112.415C141.799 112.546 142.168 112.802 142.474 113.186C142.777 113.57 142.993 114.093 143.122 114.757L143.577 117.1L142.64 117.282L142.191 114.973C142.103 114.515 141.964 114.16 141.776 113.907C141.587 113.652 141.358 113.485 141.088 113.407C140.815 113.327 140.507 113.32 140.164 113.387C139.821 113.454 139.534 113.576 139.302 113.754C139.071 113.933 138.912 114.176 138.828 114.485C138.74 114.794 138.742 115.18 138.832 115.643L139.186 117.467L146.833 115.981L147.034 117.018ZM142.402 113.734L145.841 110.877L146.075 112.082L142.63 114.905L142.402 113.734ZM145.056 106.84L145.57 109.483L137.003 111.148L136.466 108.388C136.305 107.557 136.338 106.812 136.566 106.154C136.791 105.497 137.193 104.949 137.77 104.509C138.345 104.071 139.075 103.765 139.962 103.593C140.854 103.419 141.654 103.429 142.36 103.622C143.063 103.815 143.646 104.182 144.11 104.723C144.572 105.264 144.887 105.969 145.056 106.84ZM144.448 108.625L144.149 107.085C144.011 106.377 143.76 105.817 143.396 105.404C143.033 104.991 142.576 104.72 142.027 104.589C141.478 104.459 140.854 104.461 140.157 104.597C139.466 104.731 138.892 104.96 138.437 105.283C137.979 105.606 137.66 106.018 137.479 106.519C137.296 107.021 137.269 107.606 137.399 108.276L137.721 109.932L144.448 108.625Z" /></svg>