
<svg width="595" height="1889" viewbox="0 0 595 1889" fill="none" xmlns="http://www.w3.org/2000/svg"><path id="TeamRoomLabel" d="M221.954 562.125V560.563H232.863V562.125H228.289V575.108H226.528V562.125H221.954ZM235.582 575.108V560.563H244.36V562.125H237.343V567.04H243.906V568.603H237.343V573.546H244.474V575.108H235.582ZM248.131 575.108H246.285L251.626 560.563H253.444L258.785 575.108H256.938L252.592 562.864H252.478L248.131 575.108ZM248.813 569.427H256.256V570.989H248.813V569.427ZM261.05 560.563H263.153L268.096 572.637H268.266L273.21 560.563H275.312V575.108H273.664V564.057H273.522L268.977 575.108H267.386L262.84 564.057H262.698V575.108H261.05V560.563ZM284.468 575.108V560.563H286.23V567.04H293.985V560.563H295.747V575.108H293.985V568.603H286.23V575.108H284.468ZM304.557 570.563H306.489L308.108 572.694L308.534 573.262L310.949 576.472H309.017L307.426 574.341L307.029 573.802L304.557 570.563ZM311.546 567.836C311.546 569.37 311.269 570.696 310.715 571.813C310.161 572.93 309.401 573.792 308.435 574.398C307.469 575.004 306.366 575.307 305.125 575.307C303.885 575.307 302.782 575.004 301.816 574.398C300.85 573.792 300.09 572.93 299.536 571.813C298.982 570.696 298.705 569.37 298.705 567.836C298.705 566.302 298.982 564.976 299.536 563.858C300.09 562.741 300.85 561.879 301.816 561.273C302.782 560.667 303.885 560.364 305.125 560.364C306.366 560.364 307.469 560.667 308.435 561.273C309.401 561.879 310.161 562.741 310.715 563.858C311.269 564.976 311.546 566.302 311.546 567.836ZM309.841 567.836C309.841 566.576 309.631 565.513 309.209 564.647C308.792 563.78 308.227 563.124 307.512 562.679C306.801 562.234 306.006 562.012 305.125 562.012C304.245 562.012 303.447 562.234 302.732 562.679C302.022 563.124 301.456 563.78 301.034 564.647C300.618 565.513 300.409 566.576 300.409 567.836C300.409 569.095 300.618 570.158 301.034 571.025C301.456 571.891 302.022 572.547 302.732 572.992C303.447 573.437 304.245 573.66 305.125 573.66C306.006 573.66 306.801 573.437 307.512 572.992C308.227 572.547 308.792 571.891 309.209 571.025C309.631 570.158 309.841 569.095 309.841 567.836Z" /></svg>