
<svg width="595" height="1889" viewbox="0 0 595 1889" fill="none" xmlns="http://www.w3.org/2000/svg"><path id="VoidLabel" d="M493.37 383.563L497.688 395.807H497.858L502.176 383.563H504.023L498.682 398.108H496.864L491.523 383.563H493.37ZM517.878 390.836C517.878 392.37 517.601 393.696 517.047 394.813C516.493 395.93 515.733 396.792 514.767 397.398C513.801 398.004 512.698 398.307 511.457 398.307C510.217 398.307 509.114 398.004 508.148 397.398C507.182 396.792 506.422 395.93 505.868 394.813C505.314 393.696 505.037 392.37 505.037 390.836C505.037 389.302 505.314 387.976 505.868 386.858C506.422 385.741 507.182 384.879 508.148 384.273C509.114 383.667 510.217 383.364 511.457 383.364C512.698 383.364 513.801 383.667 514.767 384.273C515.733 384.879 516.493 385.741 517.047 386.858C517.601 387.976 517.878 389.302 517.878 390.836ZM516.173 390.836C516.173 389.576 515.963 388.513 515.541 387.647C515.125 386.78 514.559 386.124 513.844 385.679C513.134 385.234 512.338 385.012 511.457 385.012C510.577 385.012 509.779 385.234 509.064 385.679C508.354 386.124 507.788 386.78 507.366 387.647C506.95 388.513 506.741 389.576 506.741 390.836C506.741 392.095 506.95 393.158 507.366 394.025C507.788 394.891 508.354 395.547 509.064 395.992C509.779 396.437 510.577 396.66 511.457 396.66C512.338 396.66 513.134 396.437 513.844 395.992C514.559 395.547 515.125 394.891 515.541 394.025C515.963 393.158 516.173 392.095 516.173 390.836ZM522.601 383.563V398.108H520.839V383.563H522.601ZM530.621 398.108H526.132V383.563H530.82C532.231 383.563 533.438 383.854 534.442 384.437C535.446 385.014 536.215 385.845 536.75 386.929C537.285 388.009 537.553 389.302 537.553 390.807C537.553 392.322 537.283 393.627 536.743 394.721C536.203 395.81 535.417 396.648 534.385 397.235C533.353 397.817 532.098 398.108 530.621 398.108ZM527.894 396.546H530.507C531.71 396.546 532.707 396.314 533.498 395.85C534.288 395.386 534.878 394.725 535.266 393.868C535.654 393.011 535.848 391.991 535.848 390.807C535.848 389.633 535.657 388.622 535.273 387.775C534.89 386.922 534.317 386.269 533.554 385.814C532.792 385.355 531.843 385.125 530.706 385.125H527.894V396.546Z" /></svg>