
<svg width="595" height="1889" viewbox="0 0 595 1889" fill="none" xmlns="http://www.w3.org/2000/svg"><path id="WarpLabel" d="M404.536 1617.86L402.547 1610.59H403.442L404.962 1616.51H405.033L406.581 1610.59H407.575L409.124 1616.51H409.195L410.715 1610.59H411.61L409.621 1617.86H408.712L407.107 1612.06H407.05L405.445 1617.86H404.536ZM412.439 1617.86H411.515L414.186 1610.59H415.095L417.765 1617.86H416.842L414.669 1611.74H414.612L412.439 1617.86ZM412.78 1615.02H416.501V1615.8H412.78V1615.02ZM418.898 1617.86V1610.59H421.356C421.924 1610.59 422.39 1610.68 422.755 1610.88C423.119 1611.07 423.389 1611.33 423.564 1611.67C423.74 1612 423.827 1612.39 423.827 1612.82C423.827 1613.24 423.74 1613.62 423.564 1613.96C423.389 1614.29 423.121 1614.55 422.758 1614.74C422.396 1614.92 421.933 1615.02 421.37 1615.02H419.381V1614.22H421.341C421.73 1614.22 422.042 1614.17 422.279 1614.05C422.518 1613.94 422.691 1613.78 422.797 1613.57C422.906 1613.36 422.961 1613.11 422.961 1612.82C422.961 1612.52 422.906 1612.27 422.797 1612.05C422.689 1611.83 422.515 1611.67 422.275 1611.55C422.036 1611.43 421.72 1611.37 421.327 1611.37H419.779V1617.86H418.898ZM422.322 1614.59L424.111 1617.86H423.089L421.327 1614.59H422.322ZM425.295 1617.86V1610.59H427.752C428.323 1610.59 428.789 1610.69 429.151 1610.89C429.516 1611.1 429.786 1611.37 429.961 1611.72C430.136 1612.07 430.224 1612.46 430.224 1612.89C430.224 1613.32 430.136 1613.7 429.961 1614.06C429.788 1614.41 429.521 1614.68 429.158 1614.89C428.796 1615.1 428.332 1615.2 427.766 1615.2H426.005V1614.42H427.738C428.129 1614.42 428.442 1614.35 428.679 1614.22C428.916 1614.08 429.087 1613.9 429.194 1613.67C429.303 1613.44 429.357 1613.18 429.357 1612.89C429.357 1612.6 429.303 1612.34 429.194 1612.11C429.087 1611.88 428.915 1611.7 428.675 1611.57C428.436 1611.43 428.119 1611.37 427.724 1611.37H426.175V1617.86H425.295Z" /></svg>