
<svg width="595" height="1889" viewbox="0 0 595 1889" fill="none" xmlns="http://www.w3.org/2000/svg"><path id="ZuseLabel" d="M432.385 1674.11V1673.47L436.306 1667.62H432.343V1666.84H437.357V1667.47L433.436 1673.33H437.4V1674.11H432.385ZM443.65 1666.84H444.53V1671.65C444.53 1672.15 444.413 1672.59 444.179 1672.98C443.947 1673.37 443.619 1673.68 443.195 1673.9C442.771 1674.12 442.274 1674.24 441.703 1674.24C441.133 1674.24 440.636 1674.12 440.212 1673.9C439.788 1673.68 439.459 1673.37 439.225 1672.98C438.993 1672.59 438.877 1672.15 438.877 1671.65V1666.84H439.757V1671.58C439.757 1671.94 439.836 1672.25 439.992 1672.53C440.148 1672.8 440.371 1673.02 440.659 1673.18C440.951 1673.33 441.299 1673.41 441.703 1673.41C442.108 1673.41 442.456 1673.33 442.748 1673.18C443.039 1673.02 443.261 1672.8 443.415 1672.53C443.571 1672.25 443.65 1671.94 443.65 1671.58V1666.84ZM450.266 1668.65C450.224 1668.29 450.051 1668.01 449.748 1667.82C449.445 1667.62 449.073 1667.52 448.633 1667.52C448.311 1667.52 448.029 1667.57 447.787 1667.67C447.548 1667.78 447.361 1667.92 447.226 1668.1C447.094 1668.29 447.028 1668.49 447.028 1668.72C447.028 1668.92 447.074 1669.09 447.166 1669.23C447.261 1669.36 447.381 1669.48 447.528 1669.57C447.675 1669.66 447.829 1669.73 447.99 1669.79C448.151 1669.85 448.299 1669.9 448.434 1669.93L449.172 1670.13C449.362 1670.18 449.573 1670.25 449.805 1670.34C450.039 1670.42 450.263 1670.54 450.476 1670.7C450.691 1670.84 450.869 1671.04 451.008 1671.27C451.148 1671.51 451.218 1671.79 451.218 1672.13C451.218 1672.53 451.115 1672.88 450.909 1673.2C450.705 1673.52 450.407 1673.77 450.014 1673.96C449.623 1674.14 449.149 1674.24 448.59 1674.24C448.069 1674.24 447.618 1674.15 447.237 1673.98C446.858 1673.82 446.56 1673.58 446.342 1673.28C446.127 1672.98 446.005 1672.63 445.976 1672.23H446.885C446.909 1672.51 447.001 1672.74 447.162 1672.92C447.326 1673.09 447.532 1673.23 447.78 1673.31C448.031 1673.4 448.301 1673.44 448.59 1673.44C448.926 1673.44 449.228 1673.39 449.496 1673.28C449.763 1673.17 449.975 1673.01 450.131 1672.82C450.287 1672.62 450.366 1672.38 450.366 1672.12C450.366 1671.88 450.298 1671.68 450.163 1671.53C450.028 1671.38 449.851 1671.26 449.631 1671.16C449.41 1671.07 449.172 1670.98 448.917 1670.91L448.022 1670.66C447.454 1670.49 447.004 1670.26 446.672 1669.96C446.341 1669.65 446.175 1669.26 446.175 1668.77C446.175 1668.36 446.285 1668.01 446.506 1667.7C446.728 1667.4 447.026 1667.16 447.4 1666.99C447.777 1666.82 448.197 1666.74 448.661 1666.74C449.13 1666.74 449.546 1666.82 449.911 1666.99C450.276 1667.15 450.564 1667.38 450.778 1667.67C450.993 1667.96 451.107 1668.29 451.118 1668.65H450.266ZM452.666 1674.11V1666.84H457.055V1667.62H453.547V1670.07H456.828V1670.86H453.547V1673.33H457.112V1674.11H452.666Z" /></svg>