<svg width="636" height="648" viewBox="0 0 636 648" xmlns="http://www.w3.org/2000/svg">
    <path
        d="M324.717 277.765V388.727H508.398C500.912 436.357 452.857 528.36 324.717 528.36C214.282 528.36 124.06 436.883 124.06 324.02C124.06 211.156 214.261 119.68 324.717 119.68C387.624 119.68 429.791 146.348 453.808 169.535L541.602 84.9181C485.231 32.3307 412.187 0.300781 324.717 0.300781C145.77 0.300781 0.978058 144.992 0.978058 324.04C0.978058 503.088 145.77 647.779 324.717 647.779C511.555 647.779 635.608 516.462 635.608 331.425C635.608 310.139 633.281 293.912 630.448 277.786L324.717 277.765Z" />
</svg>
    