<svg width="1889" height="595" viewBox="0 0 1889 595" fill="none" xmlns="http://www.w3.org/2000/svg">
<g id="Frame 1">
<path id="background" d="M0.72168 497.454V594.246L1413.12 594.29V476.945H1478.64V564.764H1700.05V585.962H1888.88V336.769H1876.76V263.171L1823.2 0.705078L1642.1 36.1384L1698.76 348.113H1664.99V420.02H1478.64V401.894H1412.35V79.8373L1240.38 115.482V420.02H1061.53V146.75L897.453 197.403V420.02H544.006L528.082 376.308L397.257 419.084L382.582 364.443L0.72168 497.454Z" fill="white"/>
<g id="rooms">
<path id="Vector 33" d="M239.892 470.748V428.748L285.892 411.748V470.748H239.892Z" fill="#D9D9D9" stroke="#D6D7D6" stroke-width="2"/>
<path id="Vector 36" d="M52.3916 580.748V525.748H88.8916V580.748H52.3916Z" fill="#F5BFF8" stroke="#F5BFF8" stroke-width="2"/>
<path id="Vector 37" d="M97.8916 580.748V515.248H237.392V580.748H97.8916Z" fill="#988C8B" stroke="#988C8B" stroke-width="2"/>
<path id="Vector 38" d="M245.892 580.748V515.248H385.392V580.748H245.892Z" fill="#988C8B" stroke="#988C8B" stroke-width="2"/>
<path id="Vector 39" d="M393.892 579.248V516.748H528.892V579.248H393.892Z" fill="#988C8B" stroke="#988C8B" stroke-width="2"/>
<path id="Vector 40" d="M539.892 579.248V517.248H661.392V579.248H539.892Z" fill="#988C8B" stroke="#988C8B" stroke-width="2"/>
<path id="Vector 41" d="M669.892 580.248V515.248H725.892V580.248H669.892Z" fill="#FAFFBA" stroke="#FAFFBA" stroke-width="2"/>
<path id="Vector 42" d="M734.892 580.248V502.248H855.892V580.248H734.892Z" fill="#FFF9F9" stroke="#FFF9F9" stroke-width="2"/>
<path id="Vector 43" d="M1057.39 580.248V476.248H1187.39V580.248H1057.39Z" fill="#988D8C" stroke="#988D8C" stroke-width="2"/>
<path id="Vector 44" d="M1274.39 580.748V502.248L1394.89 501.748V580.748H1274.39Z" fill="#FEF8F8" stroke="#FEF8F8" stroke-width="2"/>
<path id="Vector 34" d="M292.392 433.248V408.748L337.892 392.248V433.248H292.392Z" fill="#D9D9D9" stroke="#D6D7D6" stroke-width="2"/>
<path id="Vector 35" d="M344.892 432.248V389.748L371.892 380.248L381.892 423.248V432.248H344.892Z" fill="#D9D9D9" stroke="#D6D7D6" stroke-width="2"/>
<circle id="Ellipse 4" cx="1827.39" cy="303.748" r="11.5" fill="#6FA7CF"/>
<path id="Vector 51" d="M980.392 201.248V185.748L1048.89 165.248V201.248H980.392Z" fill="#FAFFBB" stroke="#FAFFBB" stroke-width="2"/>
<path id="Vector 52" d="M971.392 314.248V187.748L910.892 206.248V314.248H971.392Z" fill="#FAFFBB" stroke="#FAFFBB" stroke-width="2"/>
<path id="Vector 53" d="M909.392 370.748V322.248H972.392V370.748H909.392Z" fill="#D9D9D9" stroke="#D6D6D6" stroke-width="2"/>
<path id="Vector 54" d="M909.892 423.248V377.248H972.392V423.248H909.892Z" fill="#D9D9D9" stroke="#D6D6D6" stroke-width="2"/>
<path id="Vector 55" d="M1602.89 554.748V475.748H1697.39V554.748H1602.89Z" fill="#D9D9D9" stroke="#D6D6D6" stroke-width="2"/>
<path id="Vector 56" d="M1707.39 576.748V475.248H1790.89V576.748H1707.39Z" fill="#D9D9D9" stroke="#D6D6D6" stroke-width="2"/>
<path id="Vector 57" d="M1799.89 576.248V348.248H1876.89V576.248H1799.89Z" stroke="black" stroke-width="2" stroke-dasharray="10 10"/>
<path id="Vector 58" d="M1326.89 148.248V110.248L1402.39 94.2476V148.248H1326.89Z" fill="#BEFBCF" stroke="#BEFBCF" stroke-width="2"/>
<path id="Vector 61" d="M1250.89 320.248V271.248H1319.89V320.248H1250.89Z" fill="#BEFBCF" stroke="#BEFBCF" stroke-width="2"/>
<path id="Vector 62" d="M1250.89 376.248V326.248H1319.89V376.248H1250.89Z" fill="#BEFBCF" stroke="#BEFBCF" stroke-width="2"/>
<path id="Vector 63" d="M1326.89 376.104V158.248H1402.89V376.248L1326.89 376.104Z" fill="#BEFBCF" stroke="#BEFBCF" stroke-width="2"/>
<path id="Vector 59" d="M1252.39 211.248V124.248L1319.39 111.248V211.248H1252.39Z" fill="#BEFBCF" stroke="#BEFBCF" stroke-width="2"/>
<path id="Vector 60" d="M1251.89 264.248V220.248H1319.89V264.248H1251.89Z" fill="#BEFBCF" stroke="#BEFBCF" stroke-width="2"/>
<path id="Vector 45" d="M1487.39 555.248V475.248H1596.39V555.248H1487.39Z" fill="#FAFFBB" stroke="#FAFFBB" stroke-width="2"/>
<path id="spongebob" d="M1732.89 75.2476L1724.39 31.7476L1815.89 14.2476L1824.39 56.7476L1732.89 75.2476Z" fill="#FAFFBB" stroke="#FAFFBB" stroke-width="2"/>
<path id="patrick" d="M1742.89 126.248L1734.89 83.2476L1825.89 65.7476L1833.89 108.248L1742.89 126.248Z" fill="#FAFFBB" stroke="#FAFFBB" stroke-width="2"/>
<path id="squidward" d="M1752.89 177.748L1744.89 135.248L1835.89 117.248L1844.39 159.748L1752.89 177.748Z" fill="#FAFFBB" stroke="#FAFFBB" stroke-width="2"/>
<path id="mr. krabs" d="M1762.89 229.248L1754.89 186.248L1845.89 168.748L1853.89 211.248L1762.89 229.248Z" fill="#FAFFBB" stroke="#FAFFBB" stroke-width="2"/>
<path id="plankton" d="M1772.89 280.748L1764.89 237.748L1855.89 220.248L1863.89 262.248L1772.89 280.748Z" fill="#FAFFBB" stroke="#FAFFBB" stroke-width="2"/>
<path id="Vector 32" d="M198.392 470.248V442.914L233.392 429.248V470.248H198.392Z" fill="#D6D7D6" stroke="#D6D7D6" stroke-width="2"/>
</g>
</g>
</svg>
