<svg width="2077" height="702" viewBox="0 0 2077 702" fill="none" xmlns="http://www.w3.org/2000/svg">
    <g id="segmented floorplan">
        <g id="areas">
            <path id="[area][4.11.12]"
                d="M358.637 380.68V428.23L409.737 428.223V421.48L392.238 369.188L358.637 380.68Z"
                fill="#66FFB2" stroke="#496668" stroke-width="2" />
            <rect id="[area][4.2.1]" x="1797.64" y="346" width="97" height="237" fill="#152223"
                stroke="#496668" stroke-width="2" />
            <rect id="[area][th-1]" x="1671.64" y="346" width="126" height="90" stroke="#496668"
                stroke-width="2" />
            <rect id="[area][4-f1]" x="1545.52" y="436" width="252.112" height="51" stroke="#496668"
                stroke-width="2" />
            <path id="[area][th-6]"
                d="M1470.64 417.457H1530.52C1538.81 417.457 1545.52 424.173 1545.52 432.457V487H1470.64V417.457Z"
                stroke="#496668" stroke-width="2" />
            <rect id="[area][4.2.2]" x="1701.64" y="487" width="96" height="96" fill="#66FFB2"
                stroke="#496668" stroke-width="2" />
            <rect id="[area][4.3.1]" x="1590.64" y="487" width="111" height="96" fill="#66FFB2"
                stroke="#496668" stroke-width="2" />
            <rect id="[area][4.11.12]_2" x="1470.64" y="487" width="120" height="96"
                stroke="#496668" stroke-width="2" />
            <rect id="[area][4.6/4.7]" x="1110.64" y="464" width="147" height="119" fill="#66FFB2"
                stroke="#496668" stroke-width="2" />
            <path id="[area][4.1.6]"
                d="M1739.77 21.8164L1835.51 1.58396L1846.65 65.064L1750.36 82.0428L1739.77 21.8164Z"
                fill="#66FFB2" stroke="#496668" stroke-width="2" />
            <rect id="[area][4.8.2]" x="952.637" y="367" width="77" height="44" fill="#66FFB2"
                stroke="#496668" stroke-width="2" />
            <rect id="[area][4.8.1]" x="952.637" y="313" width="77" height="54" fill="#66FFB2"
                stroke="#496668" stroke-width="2" />
            <path id="[area][4.8.3]" d="M952.637 184L1029.64 161V313H952.637V184Z" fill="#66FFB2"
                stroke="#496668" stroke-width="2" />
            <path id="[area][4.8.5]" d="M1029.64 161L1110.64 142.5V204H1029.64V161Z" fill="#66FFB2"
                stroke="#496668" stroke-width="2" />
            <rect id="[area][4-f3]" x="1110.64" y="422" width="147" height="42" stroke="#496668"
                stroke-width="2" />
            <rect id="[area][th-3]" x="898.637" y="422" width="54" height="161" stroke="#496668"
                stroke-width="2" />
            <rect id="[area][womens-restroom-2]" x="823.637" y="509" width="75" height="74"
                stroke="#496668" stroke-width="2" />
            <rect id="[area][mens-restroom-2]" x="751.637" y="509" width="72" height="74"
                stroke="#496668" stroke-width="2" />
            <rect id="[area][4.11.3]" x="701.637" y="499" width="50" height="84" fill="#66FFB2"
                stroke="#496668" stroke-width="2" />
            <rect id="[area][4.11.2]" x="554.637" y="499" width="147" height="84" fill="#66FFB2"
                stroke="#496668" stroke-width="2" />
            <rect id="[area][4.11.4]" x="408.637" y="499" width="146" height="84" fill="#FFE666"
                stroke="#496668" stroke-width="2" />
            <rect id="[area][4.11.7]" x="256.637" y="499" width="152" height="84" fill="#66FFB2"
                stroke="#496668" stroke-width="2" />
            <rect id="[area][4.11.6]" x="107.637" y="499" width="149" height="84" fill="#66FFB2"
                stroke="#496668" stroke-width="2" />
            <rect id="[area][4.11.8]" x="53.6367" y="518" width="54" height="65" fill="#66FFB2"
                stroke="#496668" stroke-width="2" />
            <path id="[area][4.11.9]"
                d="M202.087 433.502L252.637 416.374L252.637 468.063L202.087 468.118L202.087 433.502Z"
                fill="#66FFB2" stroke="#496668" stroke-width="2" />
            <path id="[area][4.11.10]"
                d="M252.637 416.383L304.437 399.255L304.438 468.011L252.637 468.066L252.637 416.383Z"
                fill="#66FFB2" stroke="#496668" stroke-width="2" />
            <path id="[area][4.11.11]"
                d="M304.437 399.253L358.637 380.681L358.637 428.229L304.437 428.229L304.437 399.253Z"
                fill="#66FFB2" stroke="#496668" stroke-width="2" />
            <rect id="[area][4.1.5]" x="1750.37" y="82.0428" width="97.7708" height="55.6282"
                transform="rotate(-10 1750.37 82.0428)" fill="#FF6666" stroke="#496668"
                stroke-width="2" />
            <rect id="[area][4.1.4]" x="1760.03" y="136.826" width="97.7708" height="55.6282"
                transform="rotate(-10 1760.03 136.826)" fill="#66FFB2" stroke="#496668"
                stroke-width="2" />
            <rect id="[area][4.1.3]" x="1769.69" y="191.609" width="97.7708" height="54.8669"
                transform="rotate(-10 1769.69 191.609)" fill="#66FFB2" stroke="#496668"
                stroke-width="2" />
            <rect id="[area][4.1.2]" x="1779.22" y="245.642" width="97.7708" height="54.0033"
                transform="rotate(-10 1779.22 245.642)" fill="#66FFB2" stroke="#496668"
                stroke-width="2" />
            <rect id="[area][storage-6]" x="392.24" y="369.191" width="39.2644" height="30.5708"
                transform="rotate(-18.5 392.24 369.191)" fill="#496668" stroke="#496668"
                stroke-width="2" />
            <rect id="[area][th-5]" x="429.476" y="356.732" width="110.374" height="55.1354"
                transform="rotate(-18.5 429.476 356.732)" fill="#496668" stroke="#496668"
                stroke-width="2" />
            <rect id="[area][storage-7]" x="401.94" y="398.182" width="39.2644" height="24.5678"
                transform="rotate(-18.5 401.94 398.182)" fill="#496668" stroke="#496668"
                stroke-width="2" />
            <rect id="[area][storage-5]" x="751.637" y="464.121" width="32.903" height="44.8792"
                fill="#496668" stroke="#496668" stroke-width="2" />
            <rect id="[area][storage-4]" x="873.62" y="464.121" width="25.0164" height="44.8792"
                fill="#496668" stroke="#496668" stroke-width="2" />
            <rect id="[area][th-4]" x="1257.64" y="422" width="55.2652" height="161"
                stroke="#496668" stroke-width="2" />
            <path id="[area][th-4]_2" d="M1.74707 582.996H53.6368V484.029L1.74707 500.524V582.996Z"
                fill="#496668" stroke="#496668" stroke-width="2" />
            <path id="[area][4.4]" d="M1390.57 150.72H1470.64V307.765H1390.57V150.72Z"
                fill="#0C1414" stroke="#496668" stroke-width="2" />
            <rect id="[area][storage-3]" x="1312.9" y="369.703" width="56.137" height="39.4918"
                fill="#496668" stroke="#496668" stroke-width="2" />
            <rect id="[area][4.4.1]" x="1312.9" y="309.765" width="77.6641" height="59.9383"
                fill="#0C1414" stroke="#496668" stroke-width="2" />
            <rect id="[area][4.4.2]" x="1312.9" y="256.495" width="77.6641" height="53.2693"
                fill="#0C1414" stroke="#496668" stroke-width="2" />
            <rect id="[area][4.4.3]" x="1312.9" y="203.226" width="77.6641" height="53.2693"
                fill="#0C1414" stroke="#496668" stroke-width="2" />
            <path id="[area][4.4.4]" d="M1312.9 106.637L1390.57 90.3693V203.226H1312.9V106.637Z"
                fill="#0C1414" stroke="#496668" stroke-width="2" />
            <path id="[area][4.4.5]" d="M1390.57 90.3693L1470.64 75.7456V150.721H1390.57V90.3693Z"
                fill="#0C1414" stroke="#496668" stroke-width="2" />
            <path id="[area][4.9]" d="M1110.64 204H1029.64V411.003H952.637V583H1110.64V204Z"
                stroke="#496668" stroke-width="2" />
            <path id="[area][4.1]"
                d="M1739.77 21.81L1648.15 41.32L1696.43 315.08V346H1884.88V281.85L1788.59 298.82L1739.77 21.81Z"
                fill="#152223" stroke="#496668" stroke-width="2" />
            <path id="[area][4-F5]"
                d="M202.086 468.109V433.501L53.6372 483.975V518H107.653V498.999H409.737V428.23H334.598L304.437 428.23V468.109H202.086Z"
                stroke="#496668" stroke-width="2" />
            <path id="[area][4.11.1]"
                d="M409.737 421.48L543.058 376.873L556.278 416.353V422.001L751.635 422V499H409.737V421.48Z"
                stroke="#496668" stroke-width="2" />
            <path id="[area][4-f4]"
                d="M751.637 422.004H898.637V464.125H873.617V509H784.537V464.125H751.637V422.004Z"
                stroke="#496668" stroke-width="2" />
            <path id="[area][elevator]"
                d="M556.276 422.001V416.354L543.057 376.87L578.107 365.14L597.62 422.001H556.276Z"
                stroke="#496668" stroke-width="2" />
            <path id="[area][storage-1]"
                d="M1420.81 487.372V467.45H1470.64V520.378H1441.98V487.372H1420.81Z" fill="#496668"
                stroke="#496668" stroke-width="2" />
            <path id="[area][womens-restroom-1]"
                d="M1420.69 508.75H1441.98V520.38H1470.64V583H1392.1V520.38H1420.69V508.75Z"
                stroke="#496668" stroke-width="2" />
            <rect id="[area][storage-2]" x="1312.9" y="475.823" width="37.8398" height="34.27"
                fill="#496668" stroke="#496668" stroke-width="2" />
            <path id="[area][mens-restroom-1]"
                d="M1370.05 510.09H1312.9V583H1392.1V520.38H1370.05V510.09Z" stroke="#496668"
                stroke-width="2" />
            <path id="[area][4-f2]"
                d="M1312.9 475.816V409.19H1369.03V369.7H1390.56V307.76H1470.63V467.446H1420.81V487.366H1441.97V508.746H1420.68V520.376H1370.04V510.086H1350.73V475.816H1312.9Z"
                stroke="#496668" stroke-width="2" />
        </g>
        <g id="icons">
            <g id="[icon][womens-restroom-1]" clip-path="url(#clip0_80_15)">
                <path id="Vector" fill-rule="evenodd" clip-rule="evenodd"
                    d="M1435.11 553.84V562.805C1435.1 563.268 1434.92 563.711 1434.59 564.036C1434.26 564.362 1433.81 564.545 1433.35 564.545V564.545C1432.89 564.54 1432.45 564.356 1432.12 564.03C1431.8 563.705 1431.61 563.265 1431.61 562.805V540.557H1431.01V549.311C1431.01 549.66 1430.87 549.996 1430.62 550.243C1430.37 550.491 1430.04 550.63 1429.69 550.632C1429.34 550.63 1429 550.491 1428.76 550.243C1428.51 549.996 1428.37 549.66 1428.37 549.311V539.895C1428.37 538.362 1428.88 537.287 1429.83 536.581C1430.65 535.966 1433.09 535.661 1435.52 535.67C1437.88 535.67 1440.73 535.963 1441.54 536.581C1442.42 537.234 1442.56 538.093 1442.91 539.528C1442.93 539.582 1442.95 539.637 1442.96 539.693L1445.67 549.375C1445.77 549.721 1445.73 550.091 1445.55 550.404C1445.38 550.717 1445.08 550.948 1444.74 551.045C1444.39 551.142 1444.02 551.098 1443.71 550.922C1443.4 550.746 1443.16 550.453 1443.07 550.108L1440.38 540.557H1440.34H1439.79V541.163L1443.36 553.84H1439.79V562.805C1439.79 563.268 1439.6 563.711 1439.27 564.036C1438.94 564.362 1438.5 564.545 1438.04 564.545V564.545C1437.58 564.54 1437.14 564.356 1436.81 564.03C1436.49 563.705 1436.3 563.265 1436.3 562.805V553.84H1435.11ZM1435.6 528.545C1436.25 528.545 1436.89 528.738 1437.43 529.101C1437.97 529.463 1438.39 529.977 1438.64 530.58C1438.89 531.182 1438.96 531.845 1438.83 532.484C1438.7 533.123 1438.39 533.711 1437.93 534.171C1437.47 534.632 1436.88 534.946 1436.24 535.074C1435.6 535.201 1434.94 535.135 1434.34 534.886C1433.73 534.636 1433.22 534.214 1432.86 533.672C1432.49 533.13 1432.3 532.493 1432.3 531.841C1432.3 531.408 1432.39 530.979 1432.55 530.579C1432.72 530.179 1432.96 529.816 1433.27 529.51C1433.57 529.203 1433.93 528.961 1434.33 528.795C1434.73 528.63 1435.16 528.545 1435.6 528.545V528.545Z"
                    fill="#496668" />
            </g>
            <g id="[icon][womens-restroom-2]" clip-path="url(#clip1_80_15)">
                <path id="Vector_2" fill-rule="evenodd" clip-rule="evenodd"
                    d="M859.197 553.84V562.805C859.193 563.268 859.005 563.711 858.676 564.036C858.347 564.362 857.903 564.545 857.439 564.545V564.545C856.979 564.54 856.539 564.356 856.214 564.03C855.889 563.705 855.704 563.265 855.699 562.805V540.557H855.096V549.311C855.095 549.66 854.956 549.996 854.709 550.243C854.462 550.491 854.127 550.63 853.777 550.632C853.428 550.63 853.093 550.491 852.846 550.243C852.599 549.996 852.46 549.66 852.459 549.311V539.895C852.459 538.362 852.975 537.287 853.924 536.581C854.741 535.966 857.185 535.661 859.61 535.67C861.972 535.67 864.819 535.963 865.631 536.581C866.51 537.234 866.65 538.093 866.996 539.528C867.019 539.582 867.038 539.637 867.055 539.693L869.765 549.375C869.862 549.721 869.818 550.091 869.642 550.404C869.466 550.717 869.173 550.948 868.827 551.045C868.481 551.142 868.111 551.098 867.798 550.922C867.485 550.746 867.254 550.453 867.157 550.108L864.471 540.557H864.433H863.885V541.163L867.453 553.84H863.885V562.805C863.88 563.268 863.693 563.711 863.364 564.036C863.035 564.362 862.59 564.545 862.127 564.545V564.545C861.667 564.54 861.227 564.356 860.901 564.03C860.576 563.705 860.391 563.265 860.387 562.805V553.84H859.197ZM859.687 528.545C860.338 528.545 860.976 528.738 861.518 529.101C862.06 529.463 862.482 529.977 862.732 530.58C862.981 531.182 863.046 531.845 862.919 532.484C862.792 533.123 862.478 533.711 862.017 534.171C861.556 534.632 860.969 534.946 860.33 535.074C859.69 535.201 859.027 535.135 858.425 534.886C857.823 534.636 857.308 534.214 856.946 533.672C856.584 533.13 856.391 532.493 856.391 531.841C856.39 531.408 856.475 530.979 856.641 530.579C856.806 530.179 857.049 529.816 857.355 529.51C857.661 529.203 858.025 528.961 858.425 528.795C858.825 528.63 859.254 528.545 859.687 528.545V528.545Z"
                    fill="#496668" />
            </g>
            <g id="[icon][mens-restroom-1]" clip-path="url(#clip2_80_15)">
                <path id="Vector_3"
                    d="M1350.74 528.545C1351.34 528.545 1351.94 528.723 1352.44 529.056C1352.95 529.388 1353.34 529.862 1353.57 530.415C1353.8 530.969 1353.86 531.578 1353.75 532.165C1353.63 532.753 1353.34 533.293 1352.91 533.716C1352.48 534.14 1351.93 534.429 1351.33 534.545C1350.74 534.662 1350.12 534.602 1349.56 534.373C1349 534.144 1348.52 533.755 1348.19 533.257C1347.85 532.759 1347.67 532.173 1347.67 531.574C1347.67 530.771 1347.99 530 1348.57 529.432C1349.14 528.864 1349.92 528.545 1350.74 528.545V528.545ZM1354.61 539.95V562.869C1354.61 563.313 1354.43 563.739 1354.12 564.053C1353.8 564.366 1353.37 564.543 1352.92 564.545V564.545C1352.47 564.544 1352.04 564.367 1351.72 564.053C1351.4 563.739 1351.22 563.313 1351.22 562.869V549.393H1350.3V562.869C1350.3 563.313 1350.12 563.739 1349.8 564.053C1349.48 564.366 1349.05 564.543 1348.6 564.545V564.545C1348.15 564.543 1347.72 564.366 1347.4 564.053C1347.08 563.739 1346.9 563.313 1346.9 562.869V539.95H1346.31V548.373C1346.31 550.052 1343.74 550.052 1343.74 548.373V539.309C1343.74 537.844 1344.24 536.801 1345.15 536.121C1346.72 534.949 1354.75 534.949 1356.32 536.121C1357.23 536.801 1357.74 537.835 1357.74 539.309V548.373C1357.74 550.052 1355.16 550.052 1355.16 548.373V539.95H1354.61Z"
                    fill="#496668" />
            </g>
            <g id="[icon][mens-restroom-2]" clip-path="url(#clip3_80_15)">
                <path id="Vector_4"
                    d="M784.54 528.545C785.146 528.545 785.74 528.723 786.244 529.056C786.749 529.388 787.142 529.862 787.374 530.415C787.606 530.969 787.667 531.578 787.549 532.165C787.43 532.753 787.138 533.293 786.709 533.716C786.28 534.14 785.733 534.429 785.138 534.545C784.543 534.662 783.926 534.602 783.365 534.373C782.805 534.144 782.326 533.755 781.988 533.257C781.651 532.759 781.471 532.173 781.471 531.574C781.471 530.771 781.795 530 782.37 529.432C782.945 528.864 783.726 528.545 784.54 528.545V528.545ZM788.418 539.95V562.869C788.416 563.313 788.237 563.739 787.919 564.053C787.601 564.366 787.17 564.543 786.721 564.545V564.545C786.271 564.544 785.839 564.367 785.521 564.053C785.203 563.739 785.024 563.313 785.023 562.869V549.393H784.1V562.869C784.099 563.313 783.919 563.739 783.602 564.053C783.284 564.366 782.853 564.543 782.403 564.545V564.545C781.953 564.543 781.523 564.366 781.205 564.053C780.887 563.739 780.707 563.313 780.706 562.869V539.95H780.112V548.373C780.112 550.052 777.54 550.052 777.54 548.373V539.309C777.54 537.844 778.041 536.801 778.955 536.121C780.528 534.949 788.548 534.949 790.121 536.121C791.035 536.801 791.543 537.835 791.54 539.309V548.373C791.54 550.052 788.964 550.052 788.964 548.373V539.95H788.418Z"
                    fill="#496668" />
            </g>
            <g id="[icon][4.11.8]" clip-path="url(#clip4_80_15)">
                <g id="Group">
                    <path id="Vector_5" fill-rule="evenodd" clip-rule="evenodd"
                        d="M91.1206 556.376C91.9233 556.235 92.6821 556.259 93.3472 556.414V540.784L76.8091 545.533V563.683C76.8179 563.782 76.8237 563.885 76.8237 563.984V563.987C76.8237 566.431 74.2603 568.857 71.0962 569.404C67.9351 569.949 65.3687 568.411 65.3687 565.965C65.3687 563.522 67.9351 561.096 71.0962 560.551C72.2856 560.346 73.3931 560.437 74.3101 560.759V538.417H74.4478L95.8491 533.513V558.685C95.8872 558.869 95.9077 559.057 95.9077 559.244C95.9077 559.244 95.9077 559.244 95.9077 559.247C95.9077 561.289 93.7632 563.316 91.1235 563.771C88.481 564.228 86.3394 562.941 86.3394 560.899C86.3364 558.857 88.478 556.83 91.1206 556.376Z"
                        fill="#496668" />
                </g>
            </g>
            <path id="[icon][4.2.1]"
                d="M1828.47 465.373H1838.04L1845.96 457.397C1846.1 457.258 1846.26 457.147 1846.45 457.072C1846.63 456.997 1846.82 456.958 1847.02 456.958C1847.22 456.958 1847.41 456.997 1847.59 457.072C1847.78 457.147 1847.94 457.258 1848.08 457.397C1848.22 457.535 1848.33 457.699 1848.41 457.88C1848.49 458.062 1848.53 458.257 1848.53 458.454V491.438C1848.53 491.739 1848.44 492.035 1848.28 492.287C1848.11 492.538 1847.87 492.733 1847.59 492.847C1847.31 492.961 1847.01 492.988 1846.71 492.924C1846.42 492.861 1846.15 492.71 1845.94 492.491L1838.12 486.119H1828.47C1827.2 486.116 1825.98 485.609 1825.08 484.71C1824.18 483.81 1823.68 482.59 1823.67 481.318V470.175C1823.68 468.902 1824.18 467.683 1825.08 466.783C1825.98 465.883 1827.2 465.376 1828.47 465.373V465.373ZM1866.19 468.406C1866.38 468.211 1866.61 468.056 1866.86 467.951C1867.11 467.845 1867.38 467.791 1867.65 467.791C1867.93 467.791 1868.2 467.845 1868.45 467.951C1868.7 468.056 1868.93 468.211 1869.12 468.406C1869.51 468.8 1869.72 469.331 1869.72 469.884C1869.72 470.438 1869.51 470.969 1869.12 471.363L1865.59 474.946L1869.13 478.541C1869.52 478.935 1869.73 479.465 1869.73 480.016C1869.72 480.567 1869.5 481.095 1869.11 481.483C1868.92 481.675 1868.69 481.828 1868.44 481.932C1868.19 482.037 1867.92 482.09 1867.65 482.09C1867.38 482.09 1867.11 482.037 1866.86 481.932C1866.61 481.828 1866.38 481.675 1866.19 481.483L1862.65 477.907L1859.13 481.487C1858.94 481.68 1858.71 481.834 1858.46 481.939C1858.21 482.044 1857.94 482.098 1857.66 482.098C1857.39 482.098 1857.12 482.044 1856.87 481.939C1856.62 481.834 1856.39 481.68 1856.2 481.487C1855.81 481.092 1855.59 480.56 1855.59 480.006C1855.59 479.452 1855.81 478.92 1856.2 478.526L1859.74 474.946L1856.2 471.348C1855.81 470.954 1855.6 470.425 1855.6 469.874C1855.61 469.323 1855.83 468.797 1856.22 468.409C1856.41 468.216 1856.64 468.062 1856.89 467.958C1857.14 467.853 1857.41 467.799 1857.68 467.799C1857.95 467.799 1858.22 467.853 1858.47 467.958C1858.72 468.062 1858.95 468.216 1859.14 468.409L1862.66 471.978L1866.19 468.402V468.406Z"
                fill="#496668" />
            <g id="[icon][4.11.12]" clip-path="url(#clip5_80_15)">
                <path id="Vector_6" fill-rule="evenodd" clip-rule="evenodd"
                    d="M1548.16 538.708L1546.35 556.177L1548.16 538.708V538.708ZM1519.31 524.826C1518.28 523.863 1516.76 523.405 1515.18 523.513C1519.66 527.176 1514.35 531.907 1511.4 526.406C1510.19 529.13 1511.45 531.637 1513.96 532.927C1515.15 533.536 1515.77 533.9 1516.2 534.378C1516.44 534.635 1516.61 534.931 1516.8 535.316L1517.62 537.17H1513.21C1512.37 537.17 1511.68 537.859 1511.68 538.708V551.81C1511.68 553.505 1512.37 555.05 1513.49 556.173L1513.5 556.183C1514.62 557.303 1516.17 558 1517.87 558H1541.97C1543.67 558 1545.22 557.303 1546.34 556.183C1547.47 555.056 1548.16 553.509 1548.16 551.81V538.708C1548.16 537.859 1547.47 537.17 1546.62 537.17H1539.9L1543.63 530.92L1540.63 529.186L1535.83 537.17H1532.03L1532.03 537.047C1532.03 537.008 1532.01 536.968 1531.99 536.935C1531.86 536.783 1531.73 536.632 1531.6 536.483L1531.6 536.478C1531.36 536.205 1531.24 536.067 1531.24 535.975C1531.24 535.882 1531.35 535.737 1531.59 535.447C1531.69 535.327 1531.8 535.187 1531.94 535.01C1531.96 534.98 1531.98 534.939 1531.98 534.894L1531.97 533.88C1531.97 533.834 1531.96 533.789 1531.92 533.756C1531.89 533.723 1531.84 533.704 1531.8 533.704L1530.24 533.711L1530.27 526.627L1531.21 524.989C1531.3 524.846 1531.36 524.675 1531.35 524.491L1531.35 522.9C1531.35 522.4 1530.94 521.998 1530.44 522L1528.25 522.007C1527.75 522.015 1527.35 522.426 1527.36 522.927L1527.38 524.702C1527.39 524.877 1527.44 525.053 1527.55 525.207L1528.43 526.46L1528.39 533.719L1526.55 533.726C1526.46 533.726 1526.38 533.806 1526.38 533.904L1526.38 534.897C1526.38 534.939 1526.4 534.982 1526.43 535.015C1526.58 535.18 1526.71 535.318 1526.82 535.436C1527.14 535.78 1527.29 535.946 1527.29 536.065C1527.29 536.179 1527.16 536.343 1526.91 536.659C1526.8 536.798 1526.67 536.964 1526.52 537.17H1521.93L1520.46 533.824C1520.24 533.323 1520.13 532.977 1520.1 532.61C1520.07 532.27 1520.1 531.916 1520.19 531.405C1520.61 528.912 1521.48 526.838 1519.31 524.826V524.826ZM1520 552.812V544.546H1523.7C1525.19 544.546 1526.22 544.863 1526.77 545.498C1527.33 546.133 1527.61 547.193 1527.61 548.679C1527.61 550.165 1527.33 551.225 1526.77 551.86C1526.22 552.495 1525.19 552.812 1523.7 552.812H1520V552.812ZM1523.74 546.661H1522.64V550.697H1523.74C1524.1 550.697 1524.37 550.654 1524.53 550.57C1524.69 550.487 1524.77 550.295 1524.77 549.995V547.363C1524.77 547.063 1524.69 546.872 1524.53 546.788C1524.37 546.704 1524.1 546.661 1523.74 546.661ZM1528.83 552.812V544.546H1531.47V552.812H1528.83ZM1535.36 544.546L1536.08 547.456H1536.18L1536.92 544.546H1539.84L1537.46 550.564V552.812H1534.81V550.564L1532.43 544.546H1535.36ZM1546.62 540.788V551.81C1546.62 554.367 1544.53 556.461 1541.97 556.461H1517.87C1515.31 556.461 1513.21 554.368 1513.21 551.81V540.788H1546.62V540.788ZM1535.08 528.04C1535.6 527.658 1536.16 527.381 1536.78 527.215C1537.71 526.967 1538.55 527.059 1539.3 527.487L1545.84 531.256L1545.44 531.941L1547.93 533.387L1550.34 529.208L1547.86 527.776L1547.41 528.531L1540.91 524.782C1540.02 524.27 1539.17 524.126 1538.36 524.343C1537 524.707 1535.91 525.937 1535.08 528.04V528.04Z"
                    fill="#496668" />
            </g>
        </g>
        <g id="labels">
            <g id="echo label">
                <g id="label">
                    <rect id="background" x="374.399" y="283.5" width="118.44" height="47"
                        fill="#0C1414" stroke="#B0C6C8" />
                    <text id="label_2" fill="#B0C6C8" xml:space="preserve" style="white-space: pre"
                        font-size="16" letter-spacing="0em"><tspan x="383.119" y="312.818">[4.11.12] Echo</tspan></text>
                </g>
                <g id="handle">
                    <path id="Ellipse 2"
                        d="M387.899 331C387.899 329.674 387.372 328.402 386.434 327.464C385.497 326.527 384.225 326 382.899 326C381.573 326 380.301 326.527 379.363 327.464C378.426 328.402 377.899 329.674 377.899 331L382.899 331H387.899Z"
                        fill="#B0C6C8" />
                    <path id="line" d="M382.923 333L382.924 406.838" stroke="#0C1414"
                        stroke-width="2" />
                    <circle id="dot" cx="382.924" cy="410.178" r="3" fill="#B0C6C8" stroke="#0C1414"
                        stroke-width="2" />
                    <circle id="dot_2" cx="382.924" cy="331" r="3" fill="#B0C6C8" stroke="#0C1414"
                        stroke-width="2" />
                </g>
            </g>
            <g id="echo label_2">
                <g id="label_3">
                    <rect id="background_2" x="324.899" y="283.5" width="118.44" height="47"
                        fill="#0C1414" stroke="#B0C6C8" />
                    <text id="label_4" fill="#B0C6C8" xml:space="preserve" style="white-space: pre"
                        font-size="16" letter-spacing="0em"><tspan x="333.619" y="312.818">[4.11.11] Warp</tspan></text>
                </g>
                <g id="handle_2">
                    <path id="Ellipse 2_2"
                        d="M338.399 331C338.399 329.674 337.872 328.402 336.934 327.464C335.997 326.527 334.725 326 333.399 326C332.073 326 330.801 326.527 329.863 327.464C328.926 328.402 328.399 329.674 328.399 331L333.399 331H338.399Z"
                        fill="#B0C6C8" />
                    <path id="line_2" d="M333.423 333L333.424 406.838" stroke="#0C1414"
                        stroke-width="2" />
                    <circle id="dot_3" cx="333.424" cy="410.178" r="3" fill="#B0C6C8"
                        stroke="#0C1414" stroke-width="2" />
                    <circle id="dot_4" cx="333.424" cy="331" r="3" fill="#B0C6C8" stroke="#0C1414"
                        stroke-width="2" />
                </g>
            </g>
            <g id="echo label_3">
                <g id="label_5">
                    <rect id="background_3" x="271.352" y="242.831" width="118.44" height="47.059"
                        fill="#0C1414" stroke="#B0C6C8" />
                    <text id="label_6" fill="#B0C6C8" xml:space="preserve" style="white-space: pre"
                        font-size="16" letter-spacing="0em"><tspan x="280.072" y="272.167">[4.11.10] Zuse</tspan></text>
                </g>
                <g id="handle_3">
                    <path id="Ellipse 2_3"
                        d="M284.852 290.39C284.852 289.063 284.325 287.789 283.387 286.851C282.449 285.912 281.178 285.384 279.852 285.384C278.525 285.384 277.254 285.912 276.316 286.851C275.378 287.789 274.852 289.063 274.852 290.39L279.852 290.39H284.852Z"
                        fill="#B0C6C8" />
                    <path id="line_3" d="M279.876 292.393L279.877 366.322" stroke="#0C1414"
                        stroke-width="2" />
                    <path id="dot_5"
                        d="M279.876 372.669C281.534 372.669 282.876 371.323 282.876 369.666C282.876 368.009 281.534 366.664 279.876 366.664C278.218 366.664 276.876 368.009 276.876 369.666C276.876 371.323 278.218 372.669 279.876 372.669Z"
                        fill="#B0C6C8" stroke="#0C1414" stroke-width="2" />
                    <path id="dot_6"
                        d="M279.876 293.393C281.534 293.393 282.876 292.047 282.876 290.39C282.876 288.733 281.534 287.388 279.876 287.388C278.218 287.388 276.876 288.733 276.876 290.39C276.876 292.047 278.218 293.393 279.876 293.393Z"
                        fill="#B0C6C8" stroke="#0C1414" stroke-width="2" />
                </g>
            </g>
            <g id="echo label_4">
                <g id="label_7">
                    <rect id="background_4" x="220.125" y="317.5" width="118.44" height="47"
                        fill="#0C1414" stroke="#B0C6C8" />
                    <text id="label_8" fill="#B0C6C8" xml:space="preserve" style="white-space: pre"
                        font-size="16" letter-spacing="0em"><tspan x="228.845" y="346.818">[4.11.9] Ada</tspan></text>
                </g>
                <g id="handle_4">
                    <path id="Ellipse 2_4"
                        d="M233.625 365C233.625 363.674 233.098 362.402 232.161 361.464C231.223 360.527 229.951 360 228.625 360C227.299 360 226.027 360.527 225.089 361.464C224.152 362.402 223.625 363.674 223.625 365L228.625 365H233.625Z"
                        fill="#B0C6C8" />
                    <path id="line_4" d="M228.649 367L228.65 440.838" stroke="#0C1414"
                        stroke-width="2" />
                    <circle id="dot_7" cx="228.65" cy="444.178" r="3" fill="#B0C6C8"
                        stroke="#0C1414" stroke-width="2" />
                    <circle id="dot_8" cx="228.65" cy="365" r="3" fill="#B0C6C8" stroke="#0C1414"
                        stroke-width="2" />
                </g>
            </g>
            <g id="echo label_5">
                <g id="label_9">
                    <rect id="background_5" x="1070.64" y="49.1442" width="126.677" height="47"
                        fill="#0C1414" stroke="#B0C6C8" />
                    <text id="label_10" fill="#B0C6C8" xml:space="preserve" style="white-space: pre"
                        font-size="16" letter-spacing="0em"><tspan x="1079.99" y="78.4623">[4.8.5] Peace</tspan></text>
                </g>
                <g id="handle_5">
                    <path id="Ellipse 2_5"
                        d="M1084.14 96.6442C1084.14 95.3181 1083.61 94.0463 1082.67 93.1086C1081.73 92.1709 1080.46 91.6442 1079.14 91.6442C1077.81 91.6442 1076.54 92.1709 1075.6 93.1086C1074.66 94.0463 1074.14 95.3181 1074.14 96.6442L1079.14 96.6442H1084.14Z"
                        fill="#B0C6C8" />
                    <path id="line_5" d="M1079.16 98.6442L1079.16 172.482" stroke="#0C1414"
                        stroke-width="2" />
                    <circle id="dot_9" cx="1079.16" cy="175.822" r="3" fill="#B0C6C8"
                        stroke="#0C1414" stroke-width="2" />
                    <circle id="dot_10" cx="1079.16" cy="96.6442" r="3" fill="#B0C6C8"
                        stroke="#0C1414" stroke-width="2" />
                </g>
            </g>
            <g id="echo label_6">
                <g id="label_11">
                    <rect id="background_6" x="1144.38" y="635.576" width="150.169" height="47"
                        fill="#0C1414" stroke="#B0C6C8" />
                    <text id="label_12" fill="#B0C6C8" xml:space="preserve" style="white-space: pre"
                        font-size="16" letter-spacing="0em"><tspan x="1155.83" y="664.895">[4.6 / 4.7] Jungle</tspan></text>
                </g>
                <g id="handle_6">
                    <path id="Ellipse 2_6"
                        d="M1148.96 635.09C1148.96 636.416 1149.49 637.688 1150.43 638.625C1151.36 639.563 1152.64 640.09 1153.96 640.09C1155.29 640.09 1156.56 639.563 1157.5 638.625C1158.44 637.688 1158.96 636.416 1158.96 635.09L1153.96 635.09H1148.96Z"
                        fill="#B0C6C8" />
                    <path id="line_6" d="M1153.94 633.09L1153.94 559.252" stroke="#0C1414"
                        stroke-width="2" />
                    <circle id="dot_11" cx="1153.94" cy="555.911" r="3"
                        transform="rotate(-180 1153.94 555.911)" fill="#B0C6C8" stroke="#0C1414"
                        stroke-width="2" />
                    <circle id="dot_12" cx="1153.94" cy="635.09" r="3"
                        transform="rotate(-180 1153.94 635.09)" fill="#B0C6C8" stroke="#0C1414"
                        stroke-width="2" />
                </g>
            </g>
            <g id="echo label_7">
                <g id="label_13">
                    <rect id="background_7" x="706.955" y="654.172" width="130.618" height="47"
                        fill="#0C1414" stroke="#B0C6C8" />
                    <text id="label_14" fill="#B0C6C8" xml:space="preserve" style="white-space: pre"
                        font-size="16" letter-spacing="0em"><tspan x="716.615" y="683.49">[4.11.3] Spock</tspan></text>
                </g>
                <g id="handle_7">
                    <path id="Ellipse 2_7"
                        d="M711.542 653.686C711.542 655.012 712.069 656.284 713.006 657.221C713.944 658.159 715.216 658.686 716.542 658.686C717.868 658.686 719.14 658.159 720.078 657.221C721.015 656.284 721.542 655.012 721.542 653.686L716.542 653.686H711.542Z"
                        fill="#B0C6C8" />
                    <path id="line_7" d="M716.518 651.686L716.517 577.848" stroke="#0C1414"
                        stroke-width="2" />
                    <circle id="dot_13" cx="716.517" cy="574.507" r="3"
                        transform="rotate(-180 716.517 574.507)" fill="#B0C6C8" stroke="#0C1414"
                        stroke-width="2" />
                    <circle id="dot_14" cx="716.517" cy="653.686" r="3"
                        transform="rotate(-180 716.517 653.686)" fill="#B0C6C8" stroke="#0C1414"
                        stroke-width="2" />
                </g>
            </g>
            <g id="echo label_8">
                <g id="label_15">
                    <rect id="background_8" x="566.354" y="604.186" width="130.618" height="47"
                        fill="#0C1414" stroke="#B0C6C8" />
                    <text id="label_16" fill="#B0C6C8" xml:space="preserve" style="white-space: pre"
                        font-size="16" letter-spacing="0em"><tspan x="576.014" y="633.504">[4.11.2] Lizard</tspan></text>
                </g>
                <g id="handle_8">
                    <path id="Ellipse 2_8"
                        d="M570.94 603.699C570.94 605.025 571.467 606.297 572.405 607.235C573.343 608.172 574.614 608.699 575.94 608.699C577.267 608.699 578.538 608.172 579.476 607.235C580.414 606.297 580.94 605.025 580.94 603.699L575.94 603.699H570.94Z"
                        fill="#B0C6C8" />
                    <path id="line_8" d="M575.916 601.699L575.915 527.861" stroke="#0C1414"
                        stroke-width="2" />
                    <circle id="dot_15" cx="575.916" cy="524.521" r="3"
                        transform="rotate(-180 575.916 524.521)" fill="#B0C6C8" stroke="#0C1414"
                        stroke-width="2" />
                    <circle id="dot_16" cx="575.916" cy="603.699" r="3"
                        transform="rotate(-180 575.916 603.699)" fill="#B0C6C8" stroke="#0C1414"
                        stroke-width="2" />
                </g>
            </g>
            <g id="echo label_9">
                <g id="label_17">
                    <rect id="background_9" x="205.542" y="644.768" width="120.679" height="47"
                        fill="#0C1414" stroke="#B0C6C8" />
                    <text id="label_18" fill="#B0C6C8" xml:space="preserve" style="white-space: pre"
                        font-size="16" letter-spacing="0em"><tspan x="214.436" y="674.086">[4.11.6] Rock</tspan></text>
                </g>
                <g id="handle_9">
                    <path id="Ellipse 2_9"
                        d="M210.129 644.282C210.129 645.608 210.656 646.88 211.594 647.817C212.532 648.755 213.803 649.282 215.129 649.282C216.455 649.282 217.727 648.755 218.665 647.817C219.603 646.88 220.129 645.608 220.129 644.282L215.129 644.282H210.129Z"
                        fill="#B0C6C8" />
                    <path id="line_9" d="M215.105 642.282L215.104 568.444" stroke="#0C1414"
                        stroke-width="2" />
                    <circle id="dot_17" cx="215.104" cy="565.103" r="3"
                        transform="rotate(-180 215.104 565.103)" fill="#B0C6C8" stroke="#0C1414"
                        stroke-width="2" />
                    <circle id="dot_18" cx="215.104" cy="644.282" r="3"
                        transform="rotate(-180 215.104 644.282)" fill="#B0C6C8" stroke="#0C1414"
                        stroke-width="2" />
                </g>
            </g>
            <g id="echo label_10">
                <g id="label_19">
                    <rect id="background_10" x="68.1367" y="653.292" width="107.469" height="47"
                        fill="#0C1414" stroke="#B0C6C8" />
                    <text id="label_20" fill="#B0C6C8" xml:space="preserve" style="white-space: pre"
                        font-size="16" letter-spacing="0em"><tspan x="76.0098" y="682.611">[4.11.8] 8Bit</tspan></text>
                </g>
                <g id="handle_10">
                    <path id="Ellipse 2_10"
                        d="M72.7236 652.806C72.7236 654.132 73.2504 655.404 74.1881 656.341C75.1258 657.279 76.3976 657.806 77.7236 657.806C79.0497 657.806 80.3215 657.279 81.2592 656.341C82.1968 655.404 82.7236 654.132 82.7236 652.806L77.7236 652.806H72.7236Z"
                        fill="#B0C6C8" />
                    <path id="line_10" d="M77.6992 650.806L77.6983 576.968" stroke="#0C1414"
                        stroke-width="2" />
                    <circle id="dot_19" cx="77.6987" cy="573.628" r="3"
                        transform="rotate(-180 77.6987 573.628)" fill="#B0C6C8" stroke="#0C1414"
                        stroke-width="2" />
                    <circle id="dot_20" cx="77.6987" cy="652.806" r="3"
                        transform="rotate(-180 77.6987 652.806)" fill="#B0C6C8" stroke="#0C1414"
                        stroke-width="2" />
                </g>
            </g>
            <g id="echo label_11">
                <g id="label_21">
                    <rect id="background_11" x="338.245" y="600.082" width="130.618" height="47"
                        fill="#0C1414" stroke="#B0C6C8" />
                    <text id="label_22" fill="#B0C6C8" xml:space="preserve" style="white-space: pre"
                        font-size="16" letter-spacing="0em"><tspan x="347.905" y="629.401">[4.11.7] Paper</tspan></text>
                </g>
                <g id="handle_11">
                    <path id="Ellipse 2_11"
                        d="M342.832 599.596C342.832 600.922 343.359 602.194 344.296 603.131C345.234 604.069 346.506 604.596 347.832 604.596C349.158 604.596 350.43 604.069 351.368 603.131C352.305 602.194 352.832 600.922 352.832 599.596L347.832 599.596H342.832Z"
                        fill="#B0C6C8" />
                    <path id="line_11" d="M347.808 597.596L347.807 523.758" stroke="#0C1414"
                        stroke-width="2" />
                    <circle id="dot_21" cx="347.807" cy="520.418" r="3"
                        transform="rotate(-180 347.807 520.418)" fill="#B0C6C8" stroke="#0C1414"
                        stroke-width="2" />
                    <circle id="dot_22" cx="347.807" cy="599.596" r="3"
                        transform="rotate(-180 347.807 599.596)" fill="#B0C6C8" stroke="#0C1414"
                        stroke-width="2" />
                </g>
            </g>
            <g id="echo label_12">
                <g id="label_23">
                    <rect id="background_12" x="457.08" y="652.719" width="150.053" height="47"
                        fill="#0C1414" stroke="#FFE666" />
                    <text id="label_24" fill="#FFE666" xml:space="preserve" style="white-space: pre"
                        font-size="16" letter-spacing="0em"><tspan x="466.74" y="682.038">[4.11.4] Scissors</tspan></text>
                </g>
                <g id="handle_12">
                    <path id="Ellipse 2_12"
                        d="M461.667 652.233C461.667 653.559 462.194 654.831 463.131 655.768C464.069 656.706 465.341 657.233 466.667 657.233C467.993 657.233 469.265 656.706 470.203 655.768C471.14 654.831 471.667 653.559 471.667 652.233L466.667 652.233H461.667Z"
                        fill="#FFE666" />
                    <path id="line_12" d="M466.643 650.233L466.642 576.395" stroke="#0C1414"
                        stroke-width="2" />
                    <circle id="dot_23" cx="466.642" cy="573.054" r="3"
                        transform="rotate(-180 466.642 573.054)" fill="#FFE666" stroke="#0C1414"
                        stroke-width="2" />
                    <circle id="dot_24" cx="466.642" cy="652.233" r="3"
                        transform="rotate(-180 466.642 652.233)" fill="#FFE666" stroke="#0C1414"
                        stroke-width="2" />
                </g>
            </g>
            <g id="echo label_13">
                <g id="label_25">
                    <rect id="background_13" x="1495.56" y="646.21" width="112.75" height="47"
                        fill="#0C1414" stroke="#B0C6C8" />
                    <text id="label_26" fill="#B0C6C8" xml:space="preserve" style="white-space: pre"
                        font-size="16" letter-spacing="0em"><tspan x="1503.84" y="675.528">[4.11.12] Void</tspan></text>
                </g>
                <g id="handle_13">
                    <path id="Ellipse 2_13"
                        d="M1500.14 645.723C1500.14 647.049 1500.67 648.321 1501.61 649.259C1502.55 650.197 1503.82 650.723 1505.14 650.723C1506.47 650.723 1507.74 650.197 1508.68 649.259C1509.62 648.321 1510.14 647.049 1510.14 645.723L1505.14 645.723H1500.14Z"
                        fill="#B0C6C8" />
                    <path id="line_13" d="M1505.12 643.723L1505.12 569.886" stroke="#0C1414"
                        stroke-width="2" />
                    <circle id="dot_25" cx="1505.12" cy="566.545" r="3"
                        transform="rotate(-180 1505.12 566.545)" fill="#B0C6C8" stroke="#0C1414"
                        stroke-width="2" />
                    <circle id="dot_26" cx="1505.12" cy="645.723" r="3"
                        transform="rotate(-180 1505.12 645.723)" fill="#B0C6C8" stroke="#0C1414"
                        stroke-width="2" />
                </g>
            </g>
            <g id="echo label_14">
                <g id="label_27">
                    <rect id="background_14" x="1637.33" y="646.21" width="84.9238" height="47"
                        fill="#0C1414" stroke="#66FFB2" />
                    <text id="label_28" fill="#66FFB2" xml:space="preserve" style="white-space: pre"
                        font-size="16" letter-spacing="0em"><tspan x="1644.71" y="675.528">[4.3.1] R2</tspan></text>
                </g>
                <g id="handle_14">
                    <path id="Ellipse 2_14"
                        d="M1641.91 645.723C1641.91 647.049 1642.44 648.321 1643.38 649.259C1644.32 650.197 1645.59 650.723 1646.91 650.723C1648.24 650.723 1649.51 650.197 1650.45 649.259C1651.39 648.321 1651.91 647.049 1651.91 645.723L1646.91 645.723H1641.91Z"
                        fill="#66FFB2" />
                    <path id="line_14" d="M1646.89 643.723L1646.89 569.886" stroke="#0C1414"
                        stroke-width="2" />
                    <circle id="dot_27" cx="1646.89" cy="566.545" r="3"
                        transform="rotate(-180 1646.89 566.545)" fill="#66FFB2" stroke="#0C1414"
                        stroke-width="2" />
                    <circle id="dot_28" cx="1646.89" cy="645.723" r="3"
                        transform="rotate(-180 1646.89 645.723)" fill="#66FFB2" stroke="#0C1414"
                        stroke-width="2" />
                </g>
            </g>
            <g id="echo label_15">
                <g id="label_29">
                    <rect id="background_15" x="779.23" y="238.065" width="132.612" height="47"
                        fill="#0C1414" stroke="#B0C6C8" />
                    <text id="label_30" fill="#B0C6C8" xml:space="preserve" style="white-space: pre"
                        font-size="16" letter-spacing="0em"><tspan x="789.037" y="267.383">[4.8.3] Roomy</tspan></text>
                </g>
                <g id="handle_15">
                    <path id="Ellipse 2_15"
                        d="M912.348 256.004C911.022 256.004 909.75 256.531 908.813 257.468C907.875 258.406 907.348 259.678 907.348 261.004C907.348 262.33 907.875 263.602 908.813 264.539C909.75 265.477 911.022 266.004 912.348 266.004L912.348 261.004V256.004Z"
                        fill="#B0C6C8" />
                    <path id="line_15" d="M914.348 260.979L988.186 260.978" stroke="#0C1414"
                        stroke-width="2" />
                    <circle id="dot_29" cx="991.526" cy="260.979" r="3"
                        transform="rotate(-90 991.526 260.979)" fill="#B0C6C8" stroke="#0C1414"
                        stroke-width="2" />
                    <circle id="dot_30" cx="912.348" cy="260.979" r="3"
                        transform="rotate(-90 912.348 260.979)" fill="#B0C6C8" stroke="#0C1414"
                        stroke-width="2" />
                </g>
            </g>
            <g id="echo label_16">
                <g id="label_31">
                    <rect id="background_16" x="779.23" y="302.21" width="132.612" height="47"
                        fill="#0C1414" stroke="#B0C6C8" />
                    <text id="label_32" fill="#B0C6C8" xml:space="preserve" style="white-space: pre"
                        font-size="16" letter-spacing="0em"><tspan x="789.037" y="331.528">[4.8.1] Morty</tspan></text>
                </g>
                <g id="handle_16">
                    <path id="Ellipse 2_16"
                        d="M912.348 320.149C911.022 320.149 909.75 320.676 908.813 321.613C907.875 322.551 907.348 323.823 907.348 325.149C907.348 326.475 907.875 327.747 908.813 328.684C909.75 329.622 911.022 330.149 912.348 330.149L912.348 325.149V320.149Z"
                        fill="#B0C6C8" />
                    <path id="line_16" d="M914.348 325.124L988.186 325.123" stroke="#0C1414"
                        stroke-width="2" />
                    <circle id="dot_31" cx="991.526" cy="325.124" r="3"
                        transform="rotate(-90 991.526 325.124)" fill="#B0C6C8" stroke="#0C1414"
                        stroke-width="2" />
                    <circle id="dot_32" cx="912.348" cy="325.124" r="3"
                        transform="rotate(-90 912.348 325.124)" fill="#B0C6C8" stroke="#0C1414"
                        stroke-width="2" />
                </g>
            </g>
            <g id="echo label_17">
                <g id="label_33">
                    <rect id="background_17" x="779.23" y="366.355" width="132.612" height="47"
                        fill="#0C1414" stroke="#B0C6C8" />
                    <text id="label_34" fill="#B0C6C8" xml:space="preserve" style="white-space: pre"
                        font-size="16" letter-spacing="0em"><tspan x="789.037" y="395.673">[4.8.2] Rick</tspan></text>
                </g>
                <g id="handle_17">
                    <path id="Ellipse 2_17"
                        d="M912.348 384.294C911.022 384.294 909.75 384.821 908.813 385.758C907.875 386.696 907.348 387.968 907.348 389.294C907.348 390.62 907.875 391.892 908.813 392.829C909.75 393.767 911.022 394.294 912.348 394.294L912.348 389.294V384.294Z"
                        fill="#B0C6C8" />
                    <path id="line_17" d="M914.348 389.27L988.186 389.269" stroke="#0C1414"
                        stroke-width="2" />
                    <circle id="dot_33" cx="991.526" cy="389.269" r="3"
                        transform="rotate(-90 991.526 389.269)" fill="#B0C6C8" stroke="#0C1414"
                        stroke-width="2" />
                    <circle id="dot_34" cx="912.348" cy="389.269" r="3"
                        transform="rotate(-90 912.348 389.269)" fill="#B0C6C8" stroke="#0C1414"
                        stroke-width="2" />
                </g>
            </g>
            <g id="echo label_18">
                <g id="label_35">
                    <rect id="background_18" x="1873.93" y="15.6442" width="160.462" height="47"
                        fill="#0C1414" stroke="#B0C6C8" />
                    <text id="label_36" fill="#B0C6C8" xml:space="preserve" style="white-space: pre"
                        font-size="16" letter-spacing="0em"><tspan x="1885.89" y="44.9624">[4.1.6] Spongebob</tspan></text>
                </g>
                <g id="handle_18">
                    <path id="Ellipse 2_18"
                        d="M1874.11 44.1443C1875.44 44.1443 1876.71 43.6175 1877.65 42.6798C1878.59 41.7421 1879.11 40.4703 1879.11 39.1443C1879.11 37.8182 1878.59 36.5464 1877.65 35.6087C1876.71 34.671 1875.44 34.1443 1874.11 34.1443L1874.11 39.1443V44.1443Z"
                        fill="#B0C6C8" />
                    <path id="line_18" d="M1872.11 39.1687L1798.27 39.1695" stroke="#0C1414"
                        stroke-width="2" />
                    <circle id="dot_35" cx="1794.93" cy="39.1692" r="3"
                        transform="rotate(90 1794.93 39.1692)" fill="#B0C6C8" stroke="#0C1414"
                        stroke-width="2" />
                    <circle id="dot_36" cx="1874.11" cy="39.1692" r="3"
                        transform="rotate(90 1874.11 39.1692)" fill="#B0C6C8" stroke="#0C1414"
                        stroke-width="2" />
                </g>
            </g>
            <g id="echo label_19">
                <g id="label_37">
                    <rect id="background_19" x="1890.11" y="78.603" width="122.073" height="47"
                        fill="#0C1414" stroke="#FF6666" />
                    <text id="label_38" fill="#FF6666" xml:space="preserve" style="white-space: pre"
                        font-size="16" letter-spacing="0em"><tspan x="1899.12" y="107.921">[4.1.5] Patrick</tspan></text>
                </g>
                <g id="handle_19">
                    <path id="Ellipse 2_19"
                        d="M1890.3 107.103C1891.62 107.103 1892.9 106.576 1893.83 105.639C1894.77 104.701 1895.3 103.429 1895.3 102.103C1895.3 100.777 1894.77 99.5051 1893.83 98.5674C1892.9 97.6298 1891.62 97.103 1890.3 97.103L1890.3 102.103V107.103Z"
                        fill="#FF6666" />
                    <path id="line_19" d="M1888.3 102.127L1814.46 102.128" stroke="#0C1414"
                        stroke-width="2" />
                    <circle id="dot_37" cx="1811.12" cy="102.128" r="3"
                        transform="rotate(90 1811.12 102.128)" fill="#FF6666" stroke="#0C1414"
                        stroke-width="2" />
                    <circle id="dot_38" cx="1890.3" cy="102.128" r="3"
                        transform="rotate(90 1890.3 102.128)" fill="#FF6666" stroke="#0C1414"
                        stroke-width="2" />
                </g>
            </g>
            <g id="echo label_20">
                <g id="label_39">
                    <rect id="background_20" x="1890.11" y="141.562" width="158.024" height="47"
                        fill="#0C1414" stroke="#B0C6C8" />
                    <text id="label_40" fill="#B0C6C8" xml:space="preserve" style="white-space: pre"
                        font-size="16" letter-spacing="0em"><tspan x="1901.89" y="170.88">[4.1.4] Squidward</tspan></text>
                </g>
                <g id="handle_20">
                    <path id="Ellipse 2_20"
                        d="M1890.3 170.062C1891.62 170.062 1892.9 169.535 1893.83 168.597C1894.77 167.66 1895.3 166.388 1895.3 165.062C1895.3 163.736 1894.77 162.464 1893.83 161.526C1892.9 160.589 1891.62 160.062 1890.3 160.062L1890.3 165.062V170.062Z"
                        fill="#B0C6C8" />
                    <path id="line_20" d="M1888.3 165.086L1814.46 165.087" stroke="#0C1414"
                        stroke-width="2" />
                    <circle id="dot_39" cx="1811.12" cy="165.087" r="3"
                        transform="rotate(90 1811.12 165.087)" fill="#B0C6C8" stroke="#0C1414"
                        stroke-width="2" />
                    <circle id="dot_40" cx="1890.3" cy="165.087" r="3"
                        transform="rotate(90 1890.3 165.087)" fill="#B0C6C8" stroke="#0C1414"
                        stroke-width="2" />
                </g>
            </g>
            <g id="echo label_21">
                <g id="label_41">
                    <rect id="background_21" x="1910.68" y="189.562" width="145.463" height="47"
                        fill="#0C1414" stroke="#B0C6C8" />
                    <text id="label_42" fill="#B0C6C8" xml:space="preserve" style="white-space: pre"
                        font-size="16" letter-spacing="0em"><tspan x="1921.49" y="218.88">[4.1.3] Mr. Krabs</tspan></text>
                </g>
                <g id="handle_21">
                    <path id="Ellipse 2_21"
                        d="M1910.87 218.062C1912.19 218.062 1913.47 217.535 1914.4 216.597C1915.34 215.66 1915.87 214.388 1915.87 213.062C1915.87 211.736 1915.34 210.464 1914.4 209.526C1913.47 208.589 1912.19 208.062 1910.87 208.062L1910.87 213.062V218.062Z"
                        fill="#B0C6C8" />
                    <path id="line_21" d="M1908.87 213.086L1835.03 213.087" stroke="#0C1414"
                        stroke-width="2" />
                    <circle id="dot_41" cx="1831.69" cy="213.087" r="3"
                        transform="rotate(90 1831.69 213.087)" fill="#B0C6C8" stroke="#0C1414"
                        stroke-width="2" />
                    <circle id="dot_42" cx="1910.87" cy="213.087" r="3"
                        transform="rotate(90 1910.87 213.087)" fill="#B0C6C8" stroke="#0C1414"
                        stroke-width="2" />
                </g>
            </g>
            <g id="echo label_22">
                <g id="label_43">
                    <rect id="background_22" x="1916.68" y="253.625" width="139.132" height="47"
                        fill="#0C1414" stroke="#B0C6C8" />
                    <text id="label_44" fill="#B0C6C8" xml:space="preserve" style="white-space: pre"
                        font-size="16" letter-spacing="0em"><tspan x="1927" y="282.944">[4.1.2] Plankton</tspan></text>
                </g>
                <g id="handle_22">
                    <path id="Ellipse 2_22"
                        d="M1916.87 282.125C1918.19 282.125 1919.47 281.599 1920.4 280.661C1921.34 279.723 1921.87 278.452 1921.87 277.125C1921.87 275.799 1921.34 274.528 1920.4 273.59C1919.47 272.652 1918.19 272.125 1916.87 272.125L1916.87 277.125V282.125Z"
                        fill="#B0C6C8" />
                    <path id="line_22" d="M1914.87 277.15L1841.03 277.151" stroke="#0C1414"
                        stroke-width="2" />
                    <circle id="dot_43" cx="1837.69" cy="277.15" r="3"
                        transform="rotate(90 1837.69 277.15)" fill="#B0C6C8" stroke="#0C1414"
                        stroke-width="2" />
                    <circle id="dot_44" cx="1916.87" cy="277.15" r="3"
                        transform="rotate(90 1916.87 277.15)" fill="#B0C6C8" stroke="#0C1414"
                        stroke-width="2" />
                </g>
            </g>
            <g id="echo label_23">
                <g id="label_45">
                    <rect id="background_23" x="1930.36" y="491.607" width="125.785" height="47"
                        fill="#0C1414" stroke="#B0C6C8" />
                    <text id="label_46" fill="#B0C6C8" xml:space="preserve" style="white-space: pre"
                        font-size="16" letter-spacing="0em"><tspan x="1941.65" y="520.925">[4.2.1] Space</tspan></text>
                </g>
                <g id="handle_23">
                    <path id="Ellipse 2_23"
                        d="M1930.54 520.107C1931.87 520.107 1933.14 519.58 1934.08 518.642C1935.02 517.705 1935.54 516.433 1935.54 515.107C1935.54 513.781 1935.02 512.509 1934.08 511.571C1933.14 510.634 1931.87 510.107 1930.54 510.107L1930.54 515.107V520.107Z"
                        fill="#B0C6C8" />
                    <path id="line_23" d="M1928.54 515.131L1854.71 515.132" stroke="#0C1414"
                        stroke-width="2" />
                    <circle id="dot_45" cx="1851.37" cy="515.132" r="3"
                        transform="rotate(90 1851.37 515.132)" fill="#B0C6C8" stroke="#0C1414"
                        stroke-width="2" />
                    <circle id="dot_46" cx="1930.54" cy="515.132" r="3"
                        transform="rotate(90 1930.54 515.132)" fill="#B0C6C8" stroke="#0C1414"
                        stroke-width="2" />
                </g>
            </g>
            <g id="echo label_24">
                <g id="label_47">
                    <rect id="background_24" x="1750.32" y="646.21" width="100.668" height="47"
                        fill="#0C1414" stroke="#66FFB2" />
                    <text id="label_48" fill="#66FFB2" xml:space="preserve" style="white-space: pre"
                        font-size="16" letter-spacing="0em"><tspan x="1757.67" y="675.528">[4.2.2] D2</tspan></text>
                </g>
                <g id="handle_24">
                    <path id="Ellipse 2_24"
                        d="M1754.91 645.723C1754.91 647.049 1755.44 648.321 1756.37 649.259C1757.31 650.197 1758.58 650.723 1759.91 650.723C1761.24 650.723 1762.51 650.197 1763.44 649.259C1764.38 648.321 1764.91 647.049 1764.91 645.723L1759.91 645.723H1754.91Z"
                        fill="#66FFB2" />
                    <path id="line_24" d="M1759.88 643.723L1759.88 569.886" stroke="#0C1414"
                        stroke-width="2" />
                    <circle id="dot_47" cx="1759.88" cy="566.545" r="3"
                        transform="rotate(-180 1759.88 566.545)" fill="#66FFB2" stroke="#0C1414"
                        stroke-width="2" />
                    <circle id="dot_48" cx="1759.88" cy="645.723" r="3"
                        transform="rotate(-180 1759.88 645.723)" fill="#66FFB2" stroke="#0C1414"
                        stroke-width="2" />
                </g>
            </g>
        </g>
        <g id="legend">
            <text id="[legend-label][booked-out]" fill="#B0C6C8" xml:space="preserve"
                style="white-space: pre" font-size="16" letter-spacing="0em"><tspan x="102.735" y="65.8182">Booked out for the day</tspan></text>
            <text id="[legend-label][booked]" fill="#B0C6C8" xml:space="preserve"
                style="white-space: pre" font-size="16" letter-spacing="0em"><tspan x="102.735" y="125.818">Booked right now</tspan></text>
            <text id="[legend-label][free]" fill="#B0C6C8" xml:space="preserve"
                style="white-space: pre" font-size="16" letter-spacing="0em"><tspan x="102.735" y="185.818">Free</tspan></text>
            <rect id="[legend-dot][booked-out]" x="42.25" y="40.5" width="39" height="39" rx="19.5"
                fill="#FF6666" stroke="#496668" />
            <rect id="[legend-dot][booked]" x="42.25" y="100.5" width="39" height="39" rx="19.5"
                fill="#FFE666" stroke="#496668" />
            <rect id="[legend-dot][free]" x="41.1367" y="160.5" width="39" height="39" rx="19.5"
                fill="#66FFB2" stroke="#496668" />
            <text id="[legend-label][unbookable]" fill="#B0C6C8" xml:space="preserve"
                style="white-space: pre" font-size="16" letter-spacing="0em"><tspan x="101.794" y="245.818">Unbookable</tspan></text>
            <rect id="[legend-dot][unbookable]" x="40.1958" y="220.5" width="39" height="39"
                rx="19.5" fill="#152223" stroke="#496668" />
            <text id="[legend-label][faculty]" fill="#B0C6C8" xml:space="preserve"
                style="white-space: pre" font-size="16" letter-spacing="0em"><tspan x="101.794" y="305.818">Faculty</tspan></text>
            <rect id="[legend-dot][faculty]" x="40.1958" y="280.5" width="39" height="39" rx="19.5"
                fill="#0C1414" stroke="#496668" />
        </g>
    </g>
    <defs>
        <clipPath id="clip0_80_15">
            <rect width="17.3555" height="36" fill="white" transform="translate(1428.37 528.545)" />
        </clipPath>
        <clipPath id="clip1_80_15">
            <rect width="17.3555" height="36" fill="white" transform="translate(852.459 528.545)" />
        </clipPath>
        <clipPath id="clip2_80_15">
            <rect width="14" height="36" fill="white" transform="translate(1343.74 528.545)" />
        </clipPath>
        <clipPath id="clip3_80_15">
            <rect width="14" height="36" fill="white" transform="translate(777.54 528.545)" />
        </clipPath>
        <clipPath id="clip4_80_15">
            <rect width="30.5361" height="36" fill="white" transform="translate(65.3687 533.513)" />
        </clipPath>
        <clipPath id="clip5_80_15">
            <rect width="39.4065" height="36" fill="white" transform="translate(1510.93 522)" />
        </clipPath>
    </defs>
</svg>